<svg width="316" height="94" viewBox="0 0 316 94" fill="none" xmlns="http://www.w3.org/2000/svg">
<g clip-path="url(#clip0_2290_15905)">
<g filter="url(#filter0_d_2290_15905)">
<path d="M294.682 1H21.6126C12.4377 1 5 8.43771 5 17.6126V66.3874C5 75.5623 12.4377 83 21.6126 83H294.682C303.857 83 311.295 75.5623 311.295 66.3874V17.6126C311.295 8.43771 303.857 1 294.682 1Z" fill="white"/>
<path d="M294.683 0.740234H21.6127C12.2944 0.740234 4.74048 8.29418 4.74048 17.6124V66.3871C4.74048 75.7054 12.2944 83.2593 21.6127 83.2593H294.683C304.002 83.2593 311.555 75.7054 311.555 66.3871V17.6124C311.555 8.29418 304.002 0.740234 294.683 0.740234Z" stroke="#CFCFCF" stroke-width="0.519145"/>
<path d="M22.9603 36.0003V32.4033L19.6521 27.0078H21.5294L23.7742 30.9198H23.8399L26.0847 27.0078H27.962L24.6538 32.4033V36.0003H22.9603ZM30.3853 36.1447C28.4161 36.1447 27.0246 34.74 27.0246 32.7183C27.0246 30.6835 28.4161 29.2789 30.3853 29.2789C32.3545 29.2789 33.746 30.6835 33.746 32.7183C33.746 34.74 32.3545 36.1447 30.3853 36.1447ZM28.5868 32.7183C28.5868 34.0311 29.3613 34.8057 30.3853 34.8057C31.4092 34.8057 32.1838 34.0443 32.1838 32.7183C32.1838 31.3924 31.4092 30.631 30.3853 30.631C29.3613 30.631 28.5868 31.3924 28.5868 32.7183ZM37.2619 36.1578C35.8178 36.1578 34.8464 35.2126 34.8464 33.6636V29.4364H36.4348V33.2828C36.4348 34.123 36.8155 34.8057 37.787 34.8057C38.7453 34.8057 39.3361 34.0836 39.3361 33.0334V29.4364H40.9245V36.0003H39.3361V35.0157H39.2704C38.9291 35.6852 38.2858 36.1578 37.2619 36.1578ZM48.6903 38.6652C47.115 38.6652 45.8284 37.917 45.6315 36.7617L47.0493 36.4598C47.2462 37.0111 47.9026 37.405 48.7034 37.405C49.7536 37.405 50.5019 36.7617 50.5019 35.6327V34.8844H50.4363C50.095 35.4489 49.478 36.0003 48.3884 36.0003C46.6949 36.0003 45.474 34.6481 45.474 32.6658C45.474 30.6835 46.708 29.3051 48.4146 29.3051C49.4648 29.3051 50.095 29.8171 50.4363 30.3947H50.5019V29.4364H52.0904V35.5408C52.0904 37.5494 50.6595 38.6652 48.6903 38.6652ZM47.0624 32.6396C47.0624 33.913 47.837 34.6744 48.7953 34.6744C49.7536 34.6744 50.5151 33.8999 50.5151 32.6527C50.5151 31.4056 49.7536 30.631 48.7953 30.631C47.8632 30.631 47.0624 31.3399 47.0624 32.6396ZM56.5563 36.1447C54.5871 36.1447 53.1956 34.74 53.1956 32.7183C53.1956 30.6835 54.5871 29.2789 56.5563 29.2789C58.5255 29.2789 59.917 30.6835 59.917 32.7183C59.917 34.74 58.5255 36.1447 56.5563 36.1447ZM54.7578 32.7183C54.7578 34.0311 55.5323 34.8057 56.5563 34.8057C57.5803 34.8057 58.3548 34.0443 58.3548 32.7183C58.3548 31.3924 57.5803 30.631 56.5563 30.631C55.5323 30.631 54.7578 31.3924 54.7578 32.7183ZM63.5642 36.0003C62.1989 36.0003 61.4768 35.2651 61.4768 34.0049V30.6967H60.3347V29.4364H61.3193C61.4243 29.4364 61.4637 29.3708 61.4637 29.2789V27.7035L63.0522 27.546L63.0653 29.4364H65.0345L65.0476 30.6967H63.0653V33.8999C63.0653 34.3593 63.2622 34.6875 63.8005 34.6875H65.1395V36.0003H63.5642ZM69.8866 36.0003V29.4364H71.4357V30.5391H71.5013C71.7376 29.8302 72.289 29.397 73.116 29.397H74.0612V30.8017H73.011C72.0921 30.8017 71.4751 31.3005 71.4751 32.4952V35.9872L69.8866 36.0003ZM77.8676 36.1578C75.8984 36.1578 74.5462 34.8057 74.5462 32.7052C74.5462 30.5785 75.9378 29.292 77.7888 29.292C79.7054 29.292 80.9657 30.6442 80.9657 32.6921C80.9657 32.9284 80.9526 33.1647 80.9526 33.2172H76.1609C76.1872 34.1887 76.8436 34.8844 77.8544 34.8844C78.6552 34.8844 79.1935 34.4118 79.4166 33.8473L80.7951 34.228C80.4143 35.4489 79.246 36.1578 77.8676 36.1578ZM76.1741 32.1145H79.3379C79.2985 31.2874 78.734 30.5916 77.7625 30.5916C76.8042 30.5916 76.2134 31.3005 76.1741 32.1145ZM83.1771 36.0003L81.2998 29.4364H82.9277L84.0042 33.9392H84.0698L85.422 29.4364H87.0367L88.3888 33.9392H88.4545L89.5178 29.4364H91.1588L89.2815 36.0003H87.7193L86.2621 31.248H86.1965L84.7393 36.0003H83.1771ZM93.9308 36.1841C92.6312 36.1841 91.6466 35.4095 91.6466 34.1362C91.6466 32.7577 92.7493 32.272 93.9964 32.1801L95.4536 32.0751C95.8475 32.0488 96.005 31.8913 96.005 31.5237C96.005 30.9198 95.5193 30.4998 94.7185 30.4998C93.8783 30.4998 93.4582 30.9461 93.3138 31.4712L91.8304 31.2874C91.9616 30.1978 92.9856 29.2526 94.7185 29.2526C96.4382 29.2526 97.6197 30.1453 97.6197 31.655V36.0003H96.0313V35.0026H95.9656C95.795 35.5802 95.0467 36.1841 93.9308 36.1841ZM93.2744 34.0836C93.2744 34.6481 93.7208 35.0026 94.364 35.0026C95.1911 35.0026 95.9919 34.4118 95.9919 33.3354V33.0203C95.9394 33.0465 95.8343 33.0859 95.6374 33.0991L94.3772 33.2041C93.8258 33.2435 93.2744 33.4798 93.2744 34.0836ZM99.1221 36.0003V29.4364H100.671V30.5391H100.736C100.973 29.8302 101.524 29.397 102.351 29.397H103.296V30.8017H102.246C101.327 30.8017 100.71 31.3005 100.71 32.4952V35.9872L99.1221 36.0003ZM106.761 36.1316C105.055 36.1316 103.781 34.7269 103.781 32.7052C103.781 30.6835 105.041 29.3182 106.761 29.3182C107.838 29.3182 108.533 29.8696 108.809 30.421H108.875V26.8765H110.463V36.0003H108.875V35.0157H108.809C108.533 35.5671 107.838 36.1316 106.761 36.1316ZM105.356 32.7183C105.356 33.9917 106.118 34.8188 107.116 34.8188C108.1 34.8188 108.901 34.018 108.901 32.7183C108.901 31.4318 108.113 30.631 107.102 30.631C106.105 30.631 105.356 31.445 105.356 32.7183ZM114.966 36.1578C112.997 36.1578 111.644 34.8057 111.644 32.7052C111.644 30.5785 113.036 29.292 114.887 29.292C116.804 29.292 118.064 30.6442 118.064 32.6921C118.064 32.9284 118.051 33.1647 118.051 33.2172H113.259C113.285 34.1887 113.942 34.8844 114.953 34.8844C115.753 34.8844 116.292 34.4118 116.515 33.8473L117.893 34.228C117.512 35.4489 116.344 36.1578 114.966 36.1578ZM113.272 32.1145H116.436C116.397 31.2874 115.832 30.5916 114.861 30.5916C113.902 30.5916 113.312 31.3005 113.272 32.1145ZM121.77 36.1316C120.063 36.1316 118.79 34.7269 118.79 32.7052C118.79 30.6835 120.05 29.3182 121.77 29.3182C122.846 29.3182 123.542 29.8696 123.818 30.421H123.883V26.8765H125.472V36.0003H123.883V35.0157H123.818C123.542 35.5671 122.846 36.1316 121.77 36.1316ZM120.365 32.7183C120.365 33.9917 121.126 34.8188 122.124 34.8188C123.109 34.8188 123.909 34.018 123.909 32.7183C123.909 31.4318 123.122 30.631 122.111 30.631C121.113 30.631 120.365 31.445 120.365 32.7183ZM128.885 32.889H127.322L126.994 26.627H129.213L128.885 32.889ZM126.968 35.0814C126.968 34.6788 127.077 34.3987 127.296 34.2412C127.515 34.0749 127.782 33.9917 128.097 33.9917C128.403 33.9917 128.666 34.0749 128.885 34.2412C129.103 34.3987 129.213 34.6788 129.213 35.0814C129.213 35.4664 129.103 35.7465 128.885 35.9215C128.666 36.0878 128.403 36.171 128.097 36.171C127.782 36.171 127.515 36.0878 127.296 35.9215C127.077 35.7465 126.968 35.4664 126.968 35.0814Z" fill="#171C19"/>
<path d="M178.295 36.9999V29.6976H176V28.8607H176.365C177.013 28.8607 177.49 28.7168 177.796 28.4288C178.102 28.1319 178.277 27.7449 178.322 27.268H179.388V36.9999H178.295ZM181.147 36.9999V36.676C181.147 36.181 181.237 35.7401 181.417 35.3532C181.606 34.9572 181.849 34.5973 182.146 34.2734C182.443 33.9494 182.771 33.6525 183.131 33.3825C183.491 33.1035 183.851 32.8381 184.211 32.5861C184.58 32.3252 184.913 32.0642 185.21 31.8033C185.507 31.5333 185.745 31.2454 185.925 30.9394C186.114 30.6335 186.209 30.296 186.209 29.9271C186.209 29.5491 186.128 29.2252 185.966 28.9552C185.813 28.6763 185.588 28.4648 185.291 28.3208C185.003 28.1769 184.661 28.1049 184.265 28.1049C183.833 28.1049 183.46 28.1949 183.145 28.3748C182.83 28.5458 182.587 28.7888 182.416 29.1037C182.254 29.4097 182.182 29.7651 182.2 30.17L181.093 30.1835C181.093 29.5806 181.223 29.0542 181.484 28.6043C181.754 28.1544 182.132 27.8034 182.618 27.5515C183.104 27.2905 183.666 27.16 184.305 27.16C184.926 27.16 185.462 27.2725 185.912 27.4975C186.362 27.7224 186.708 28.0419 186.951 28.4558C187.194 28.8697 187.315 29.3512 187.315 29.9001C187.315 30.332 187.23 30.7234 187.059 31.0744C186.897 31.4163 186.672 31.7313 186.384 32.0192C186.105 32.3072 185.795 32.5771 185.453 32.8291C185.12 33.081 184.778 33.3285 184.427 33.5715C184.085 33.8144 183.765 34.0619 183.469 34.3138C183.172 34.5658 182.92 34.8313 182.713 35.1102C182.506 35.3892 182.375 35.6996 182.321 36.0416H187.356V36.9999H181.147ZM187.772 38.0932L192.037 27.16H193.09L188.851 38.0932H187.772ZM197.153 37.1214C196.622 37.1214 196.145 37.0179 195.722 36.8109C195.299 36.595 194.939 36.28 194.642 35.8661C194.345 35.4432 194.116 34.9212 193.954 34.3003C193.801 33.6794 193.724 32.9596 193.724 32.1407C193.724 31.0069 193.868 30.0755 194.156 29.3467C194.444 28.6088 194.844 28.0599 195.357 27.6999C195.87 27.34 196.469 27.16 197.153 27.16C197.693 27.16 198.169 27.268 198.583 27.484C199.006 27.6909 199.366 28.0059 199.663 28.4288C199.96 28.8427 200.185 29.3602 200.338 29.9811C200.5 30.602 200.581 31.3218 200.581 32.1407C200.581 33.2745 200.437 34.2104 200.149 34.9482C199.87 35.6771 199.47 36.2215 198.948 36.5815C198.435 36.9414 197.836 37.1214 197.153 37.1214ZM197.153 36.19C197.549 36.19 197.89 36.1045 198.178 35.9336C198.475 35.7536 198.714 35.4971 198.894 35.1642C199.083 34.8223 199.222 34.3993 199.312 33.8954C199.411 33.3825 199.461 32.7976 199.461 32.1407C199.461 31.4838 199.411 30.9034 199.312 30.3995C199.222 29.8956 199.083 29.4726 198.894 29.1307C198.714 28.7888 198.475 28.5323 198.178 28.3613C197.89 28.1904 197.549 28.1049 197.153 28.1049C196.757 28.1049 196.41 28.1904 196.113 28.3613C195.825 28.5323 195.587 28.7888 195.398 29.1307C195.218 29.4726 195.083 29.8956 194.993 30.3995C194.903 30.9034 194.858 31.4838 194.858 32.1407C194.858 32.7976 194.903 33.3825 194.993 33.8954C195.083 34.3993 195.218 34.8223 195.398 35.1642C195.587 35.4971 195.825 35.7536 196.113 35.9336C196.41 36.1045 196.757 36.19 197.153 36.19ZM205.801 37.1079C205.225 37.1079 204.717 37.0134 204.276 36.8244C203.844 36.6355 203.484 36.352 203.196 35.9741C202.908 35.5961 202.692 35.1327 202.548 34.5838C202.413 34.0349 202.345 33.405 202.345 32.6941C202.345 31.7223 202.417 30.8899 202.561 30.197C202.714 29.4951 202.939 28.9192 203.236 28.4693C203.542 28.0194 203.92 27.6864 204.37 27.4705C204.829 27.2545 205.364 27.1465 205.976 27.1465C206.408 27.1465 206.804 27.205 207.164 27.322C207.533 27.439 207.853 27.6055 208.122 27.8214C208.401 28.0374 208.626 28.2983 208.797 28.6043C208.968 28.9102 209.072 29.2522 209.108 29.6301H208.015C207.97 29.3602 207.889 29.1307 207.772 28.9417C207.655 28.7528 207.506 28.5953 207.326 28.4693C207.146 28.3433 206.939 28.2488 206.705 28.1859C206.471 28.1229 206.224 28.0914 205.963 28.0914C205.441 28.0914 205.014 28.1994 204.681 28.4153C204.357 28.6223 204.1 28.9192 203.911 29.3062C203.731 29.6931 203.601 30.1565 203.52 30.6964C203.448 31.2364 203.407 31.8393 203.398 32.5051H203.452C203.56 32.1722 203.736 31.8842 203.979 31.6413C204.222 31.3893 204.523 31.1959 204.883 31.0609C205.243 30.9169 205.648 30.8449 206.098 30.8449C206.71 30.8449 207.245 30.9709 207.704 31.2229C208.163 31.4748 208.518 31.8303 208.77 32.2892C209.031 32.7481 209.162 33.2835 209.162 33.8954C209.162 34.5433 209.018 35.1102 208.73 35.5961C208.451 36.0821 208.06 36.4555 207.556 36.7164C207.052 36.9774 206.467 37.1079 205.801 37.1079ZM205.841 36.1495C206.282 36.1495 206.665 36.0596 206.989 35.8796C207.322 35.6906 207.578 35.4252 207.758 35.0832C207.947 34.7413 208.042 34.3498 208.042 33.9089C208.042 33.45 207.952 33.0586 207.772 32.7346C207.592 32.4107 207.335 32.1587 207.002 31.9787C206.678 31.7988 206.296 31.7088 205.855 31.7088C205.387 31.7088 204.982 31.8123 204.64 32.0192C204.307 32.2172 204.051 32.4871 203.871 32.8291C203.691 33.162 203.601 33.5445 203.601 33.9764C203.601 34.4173 203.695 34.8043 203.884 35.1372C204.073 35.4612 204.334 35.7131 204.667 35.8931C205.009 36.0641 205.4 36.1495 205.841 36.1495ZM209.561 38.0932L213.826 27.16H214.879L210.64 38.0932H209.561ZM215.564 36.9999V36.676C215.564 36.181 215.654 35.7401 215.834 35.3532C216.022 34.9572 216.265 34.5973 216.562 34.2734C216.859 33.9494 217.188 33.6525 217.548 33.3825C217.908 33.1035 218.268 32.8381 218.628 32.5861C218.996 32.3252 219.329 32.0642 219.626 31.8033C219.923 31.5333 220.162 31.2454 220.342 30.9394C220.531 30.6335 220.625 30.296 220.625 29.9271C220.625 29.5491 220.544 29.2252 220.382 28.9552C220.229 28.6763 220.004 28.4648 219.707 28.3208C219.419 28.1769 219.077 28.1049 218.682 28.1049C218.25 28.1049 217.876 28.1949 217.561 28.3748C217.246 28.5458 217.003 28.7888 216.832 29.1037C216.67 29.4097 216.598 29.7651 216.616 30.17L215.51 30.1835C215.51 29.5806 215.64 29.0542 215.901 28.6043C216.171 28.1544 216.549 27.8034 217.035 27.5515C217.521 27.2905 218.083 27.16 218.722 27.16C219.343 27.16 219.878 27.2725 220.328 27.4975C220.778 27.7224 221.125 28.0419 221.368 28.4558C221.611 28.8697 221.732 29.3512 221.732 29.9001C221.732 30.332 221.647 30.7234 221.476 31.0744C221.314 31.4163 221.089 31.7313 220.801 32.0192C220.522 32.3072 220.211 32.5771 219.869 32.8291C219.536 33.081 219.194 33.3285 218.844 33.5715C218.502 33.8144 218.182 34.0619 217.885 34.3138C217.588 34.5658 217.336 34.8313 217.129 35.1102C216.922 35.3892 216.792 35.6996 216.738 36.0416H221.773V36.9999H215.564ZM226.291 37.1214C225.679 37.1214 225.139 37.0089 224.671 36.7839C224.212 36.55 223.848 36.2305 223.578 35.8256C223.317 35.4117 223.169 34.9347 223.133 34.3948H224.226C224.262 34.7458 224.37 35.0562 224.55 35.3262C224.73 35.5871 224.968 35.7941 225.265 35.9471C225.571 36.0911 225.922 36.163 226.318 36.163C226.804 36.163 227.213 36.0686 227.546 35.8796C227.879 35.6816 228.131 35.4117 228.302 35.0697C228.482 34.7278 228.572 34.3363 228.572 33.8954C228.572 33.4185 228.478 33.0136 228.289 32.6806C228.109 32.3477 227.852 32.0912 227.519 31.9112C227.195 31.7313 226.813 31.6413 226.372 31.6413C225.895 31.6413 225.477 31.7493 225.117 31.9652C224.766 32.1722 224.518 32.4467 224.374 32.7886H223.268L223.672 27.268H229.463V28.2398H224.617L224.334 31.7493L224.388 31.7763C224.595 31.4703 224.896 31.2229 225.292 31.0339C225.697 30.8359 226.143 30.7369 226.628 30.7369C227.087 30.7369 227.506 30.8134 227.884 30.9664C228.262 31.1104 228.586 31.3218 228.856 31.6008C229.126 31.8707 229.333 32.1992 229.476 32.5861C229.629 32.9641 229.706 33.387 229.706 33.8549C229.706 34.5028 229.562 35.0742 229.274 35.5691C228.995 36.0551 228.599 36.4375 228.086 36.7164C227.573 36.9864 226.975 37.1214 226.291 37.1214Z" fill="black" fill-opacity="0.6"/>
<g opacity="0.6">
<path d="M23.9413 58V54.0722L20.2969 48.1602H21.6197L23.2664 50.9272L24.4677 53.0328H24.5487L25.777 50.9272L27.4372 48.1602H28.7465L25.0886 54.0722V58H23.9413Z" fill="#171C19"/>
<path d="M31.7334 58.1215C31.2205 58.1215 30.7525 58.036 30.3296 57.8651C29.9157 57.6941 29.5557 57.4466 29.2498 57.1227C28.9528 56.7987 28.7189 56.4163 28.5479 55.9754C28.3859 55.5254 28.305 55.026 28.305 54.4771C28.305 53.7482 28.4444 53.1093 28.7234 52.5604C29.0023 52.0115 29.3983 51.5841 29.9112 51.2781C30.4331 50.9632 31.0405 50.8057 31.7334 50.8057C32.2463 50.8057 32.7097 50.8912 33.1237 51.0622C33.5466 51.2241 33.9065 51.4671 34.2035 51.7911C34.5004 52.115 34.7299 52.5019 34.8919 52.9519C35.0538 53.4018 35.1348 53.9057 35.1348 54.4636C35.1348 55.1835 34.9953 55.8179 34.7164 56.3668C34.4464 56.9157 34.055 57.3476 33.5421 57.6626C33.0292 57.9685 32.4263 58.1215 31.7334 58.1215ZM31.7334 57.1767C32.1923 57.1767 32.5927 57.0732 32.9347 56.8662C33.2766 56.6503 33.5421 56.3398 33.7311 55.9349C33.929 55.5209 34.028 55.0305 34.028 54.4636C34.028 54.0407 33.974 53.6627 33.866 53.3298C33.7581 52.9879 33.6051 52.6999 33.4071 52.4659C33.2091 52.223 32.9707 52.0385 32.6917 51.9125C32.4128 51.7866 32.0933 51.7236 31.7334 51.7236C31.2745 51.7236 30.8695 51.836 30.5186 52.061C30.1766 52.277 29.9067 52.5874 29.7087 52.9924C29.5198 53.3973 29.4253 53.8922 29.4253 54.4771C29.4253 54.891 29.4748 55.269 29.5737 55.6109C29.6817 55.9439 29.8347 56.2273 30.0327 56.4613C30.2396 56.6952 30.4871 56.8752 30.775 57.0012C31.063 57.1182 31.3824 57.1767 31.7334 57.1767Z" fill="#171C19"/>
<path d="M39.3129 58.1215C38.782 58.1215 38.3231 58.018 37.9361 57.8111C37.5492 57.5951 37.2523 57.2756 37.0453 56.8527C36.8473 56.4208 36.7483 55.8899 36.7483 55.26V50.9137H37.8417V54.99C37.8417 55.4579 37.9046 55.8584 38.0306 56.1913C38.1566 56.5153 38.3546 56.7627 38.6245 56.9337C38.9035 57.1047 39.2589 57.1902 39.6908 57.1902C40.1138 57.1902 40.4872 57.0867 40.8112 56.8797C41.1351 56.6727 41.3871 56.3803 41.567 56.0024C41.747 55.6244 41.837 55.188 41.837 54.6931V50.9137H42.9303V58H41.891L41.837 56.4883H41.756C41.576 56.9922 41.2656 57.3926 40.8247 57.6896C40.3837 57.9775 39.8798 58.1215 39.3129 58.1215Z" fill="#171C19"/>
<path d="M44.58 51.6696L44.3505 49.6449V48.1602H45.3224V49.6449L45.0929 51.6696H44.58Z" fill="#171C19"/>
<path d="M48.9076 58L46.343 50.9137H47.5173L48.8941 55.071L49.569 57.1362H49.623L50.2979 55.071L51.6746 50.9137H52.849L50.2844 58H48.9076Z" fill="#171C19"/>
<path d="M56.7714 58.1215C56.0965 58.1215 55.5161 57.973 55.0302 57.6761C54.5533 57.3791 54.1889 56.9562 53.9369 56.4073C53.6849 55.8584 53.559 55.2195 53.559 54.4906C53.559 53.7437 53.6849 53.0958 53.9369 52.5469C54.1889 51.989 54.5488 51.5616 55.0167 51.2646C55.4846 50.9587 56.056 50.8057 56.7309 50.8057C57.4508 50.8057 58.0447 50.9677 58.5126 51.2916C58.9806 51.6156 59.318 52.0655 59.525 52.6414C59.7409 53.2173 59.8219 53.8832 59.7679 54.6391H54.6253C54.6343 55.224 54.7243 55.7144 54.8952 56.1103C55.0752 56.4973 55.3227 56.7897 55.6376 56.9877C55.9616 57.1767 56.3395 57.2711 56.7714 57.2711C57.2753 57.2711 57.6893 57.1542 58.0132 56.9202C58.3372 56.6862 58.5531 56.3758 58.6611 55.9889H59.7139C59.633 56.4388 59.453 56.8257 59.174 57.1497C58.9041 57.4646 58.5621 57.7076 58.1482 57.8785C57.7343 58.0405 57.2753 58.1215 56.7714 58.1215ZM54.6388 54.0182L54.5173 53.8562H58.8231L58.7016 54.0452C58.7106 53.4783 58.6341 53.0239 58.4721 52.6819C58.3102 52.331 58.0762 52.0745 57.7703 51.9125C57.4733 51.7416 57.1269 51.6561 56.7309 51.6561C56.317 51.6561 55.9571 51.7461 55.6511 51.926C55.3452 52.106 55.1022 52.3715 54.9222 52.7224C54.7513 53.0643 54.6568 53.4963 54.6388 54.0182Z" fill="#171C19"/>
<path d="M63.002 60.2542V59.4173H63.5959C63.8929 59.4173 64.0998 59.3453 64.2168 59.2013C64.3428 59.0664 64.4058 58.8324 64.4058 58.4994V50.9137H65.4991V58.5804C65.4991 58.9224 65.4451 59.2193 65.3371 59.4713C65.2291 59.7232 65.0582 59.9167 64.8242 60.0517C64.5992 60.1867 64.2978 60.2542 63.9199 60.2542H63.002ZM64.9592 49.6989C64.7522 49.6989 64.5858 49.6449 64.4598 49.5369C64.3338 49.4199 64.2708 49.267 64.2708 49.078C64.2708 48.889 64.3338 48.7406 64.4598 48.6326C64.5858 48.5246 64.7522 48.4706 64.9592 48.4706C65.1572 48.4706 65.3191 48.5246 65.4451 48.6326C65.5711 48.7406 65.6341 48.889 65.6341 49.078C65.6341 49.267 65.5711 49.4199 65.4451 49.5369C65.3191 49.6449 65.1572 49.6989 64.9592 49.6989Z" fill="#171C19"/>
<path d="M69.9992 58.1215C69.4683 58.1215 69.0094 58.018 68.6225 57.8111C68.2355 57.5951 67.9386 57.2756 67.7316 56.8527C67.5336 56.4208 67.4347 55.8899 67.4347 55.26V50.9137H68.528V54.99C68.528 55.4579 68.591 55.8584 68.7169 56.1913C68.8429 56.5153 69.0409 56.7627 69.3109 56.9337C69.5898 57.1047 69.9452 57.1902 70.3772 57.1902C70.8001 57.1902 71.1735 57.0867 71.4975 56.8797C71.8214 56.6727 72.0734 56.3803 72.2534 56.0024C72.4333 55.6244 72.5233 55.188 72.5233 54.6931V50.9137H73.6166V58H72.5773L72.5233 56.4883H72.4423C72.2624 56.9922 71.9519 57.3926 71.511 57.6896C71.0701 57.9775 70.5661 58.1215 69.9992 58.1215Z" fill="#171C19"/>
<path d="M78.0788 58.135C77.6379 58.135 77.2419 58.081 76.891 57.973C76.5401 57.8651 76.2386 57.7166 75.9867 57.5276C75.7347 57.3296 75.5412 57.0957 75.4063 56.8257C75.2713 56.5468 75.1993 56.2408 75.1903 55.9079H76.2701C76.2881 56.2228 76.3736 56.4883 76.5266 56.7042C76.6885 56.9112 76.9045 57.0642 77.1745 57.1632C77.4534 57.2622 77.7639 57.3116 78.1058 57.3116C78.6547 57.3116 79.0731 57.2082 79.3611 57.0012C79.6581 56.7942 79.8065 56.5018 79.8065 56.1238C79.8065 55.8359 79.7435 55.6154 79.6176 55.4624C79.4916 55.3005 79.2981 55.1745 79.0372 55.0845C78.7762 54.9945 78.4343 54.918 78.0113 54.855C77.4264 54.7741 76.9405 54.6616 76.5536 54.5176C76.1666 54.3736 75.8742 54.1712 75.6762 53.9102C75.4782 53.6403 75.3793 53.2893 75.3793 52.8574C75.3793 52.4434 75.4917 52.0835 75.7167 51.7776C75.9417 51.4626 76.2566 51.2197 76.6615 51.0487C77.0665 50.8687 77.5389 50.7787 78.0788 50.7787C78.6277 50.7787 79.1001 50.8687 79.4961 51.0487C79.892 51.2197 80.2025 51.4671 80.4274 51.7911C80.6524 52.106 80.7694 52.4839 80.7784 52.9249H79.712C79.694 52.6099 79.6131 52.358 79.4691 52.169C79.3341 51.971 79.1451 51.8315 78.9022 51.7506C78.6682 51.6606 78.3893 51.6156 78.0653 51.6156C77.5614 51.6156 77.17 51.7191 76.891 51.926C76.6121 52.133 76.4726 52.4075 76.4726 52.7494C76.4726 53.0104 76.5401 53.2218 76.675 53.3838C76.81 53.5368 77.017 53.6582 77.2959 53.7482C77.5839 53.8292 77.9438 53.9012 78.3758 53.9642C78.9067 54.0362 79.3611 54.1442 79.739 54.2881C80.126 54.4321 80.4184 54.6436 80.6164 54.9225C80.8144 55.1925 80.9133 55.5614 80.9133 56.0294C80.9133 56.4793 80.7964 56.8617 80.5624 57.1767C80.3284 57.4826 79.9955 57.7211 79.5636 57.892C79.1406 58.054 78.6457 58.135 78.0788 58.135Z" fill="#171C19"/>
<path d="M84.6632 58C84.1683 58 83.7903 57.883 83.5294 57.6491C83.2774 57.4061 83.1514 57.0147 83.1514 56.4748V51.8181H81.7747V50.9137H83.1514V48.7946L84.2313 48.6461V50.9137H85.878V51.8181H84.2448V56.2993C84.2448 56.5693 84.3077 56.7672 84.4337 56.8932C84.5597 57.0102 84.7442 57.0687 84.9871 57.0687H85.905V58H84.6632Z" fill="#171C19"/>
<path d="M93.1653 58.1215C92.4904 58.1215 91.91 57.973 91.4241 57.6761C90.9472 57.3791 90.5827 56.9562 90.3308 56.4073C90.0788 55.8584 89.9528 55.2195 89.9528 54.4906C89.9528 53.7437 90.0788 53.0958 90.3308 52.5469C90.5827 51.989 90.9427 51.5616 91.4106 51.2646C91.8785 50.9587 92.4499 50.8057 93.1248 50.8057C93.8447 50.8057 94.4386 50.9677 94.9065 51.2916C95.3744 51.6156 95.7119 52.0655 95.9188 52.6414C96.1348 53.2173 96.2158 53.8832 96.1618 54.6391H91.0192C91.0282 55.224 91.1181 55.7144 91.2891 56.1103C91.4691 56.4973 91.7165 56.7897 92.0315 56.9877C92.3554 57.1767 92.7334 57.2711 93.1653 57.2711C93.6692 57.2711 94.0832 57.1542 94.4071 56.9202C94.731 56.6862 94.947 56.3758 95.055 55.9889H96.1078C96.0268 56.4388 95.8469 56.8257 95.5679 57.1497C95.298 57.4646 94.956 57.7076 94.5421 57.8785C94.1281 58.0405 93.6692 58.1215 93.1653 58.1215ZM91.0327 54.0182L90.9112 53.8562H95.217L95.0955 54.0452C95.1045 53.4783 95.028 53.0239 94.866 52.6819C94.704 52.331 94.4701 52.0745 94.1641 51.9125C93.8672 51.7416 93.5207 51.6561 93.1248 51.6561C92.7109 51.6561 92.3509 51.7461 92.045 51.926C91.739 52.106 91.4961 52.3715 91.3161 52.7224C91.1451 53.0643 91.0507 53.4963 91.0327 54.0182Z" fill="#171C19"/>
<path d="M100.332 58.1215C99.9003 58.1215 99.4998 58.036 99.1309 57.8651C98.771 57.6941 98.4605 57.4511 98.1995 57.1362C97.9386 56.8212 97.7361 56.4388 97.5921 55.9889C97.4572 55.5389 97.3897 55.026 97.3897 54.4501C97.3897 53.6852 97.5112 53.0329 97.7541 52.4929C98.0061 51.944 98.3525 51.5256 98.7934 51.2376C99.2344 50.9407 99.7473 50.7922 100.332 50.7922C100.737 50.7922 101.106 50.8597 101.439 50.9947C101.781 51.1207 102.069 51.3006 102.303 51.5346C102.537 51.7686 102.708 52.0475 102.816 52.3715H102.883L102.924 50.9137H103.963V58H102.924L102.883 56.5288H102.816C102.645 57.0057 102.339 57.3926 101.898 57.6896C101.466 57.9775 100.944 58.1215 100.332 58.1215ZM100.683 57.2037C101.151 57.2037 101.547 57.0957 101.871 56.8797C102.195 56.6548 102.442 56.3668 102.613 56.0159C102.784 55.6649 102.87 55.287 102.87 54.882V54.0182C102.87 53.6043 102.78 53.2218 102.6 52.8709C102.429 52.5109 102.181 52.2275 101.857 52.0205C101.542 51.8046 101.156 51.6966 100.697 51.6966C100.247 51.6966 99.8553 51.8091 99.5223 52.034C99.1984 52.25 98.9464 52.5649 98.7665 52.9789C98.5955 53.3838 98.51 53.8742 98.51 54.4501C98.51 55.017 98.5955 55.5074 98.7665 55.9214C98.9464 56.3353 99.1984 56.6548 99.5223 56.8797C99.8463 57.0957 100.233 57.2037 100.683 57.2037Z" fill="#171C19"/>
<path d="M106.02 58V50.9137H106.991L107.059 52.223H107.113C107.266 51.7731 107.536 51.4266 107.923 51.1837C108.31 50.9407 108.742 50.8192 109.218 50.8192C109.299 50.8192 109.376 50.8237 109.448 50.8327C109.52 50.8327 109.587 50.8372 109.65 50.8462V51.8855C109.587 51.8765 109.52 51.872 109.448 51.872C109.376 51.863 109.299 51.8585 109.218 51.8585C108.805 51.8585 108.445 51.935 108.139 52.088C107.833 52.241 107.59 52.4614 107.41 52.7494C107.239 53.0284 107.135 53.3703 107.099 53.7752V58H106.02Z" fill="#171C19"/>
<path d="M110.963 58V50.9137H112.002L112.042 52.385H112.123C112.339 51.863 112.672 51.4716 113.122 51.2107C113.572 50.9407 114.063 50.8057 114.593 50.8057C114.962 50.8057 115.3 50.8597 115.606 50.9677C115.921 51.0757 116.191 51.2511 116.416 51.4941C116.65 51.7371 116.83 52.052 116.956 52.4389C117.082 52.8169 117.145 53.2803 117.145 53.8292V58H116.051V54.0452C116.051 53.5143 115.984 53.0778 115.849 52.7359C115.723 52.394 115.525 52.142 115.255 51.98C114.994 51.8091 114.656 51.7236 114.242 51.7236C113.802 51.7236 113.415 51.8315 113.082 52.0475C112.749 52.2635 112.492 52.5559 112.312 52.9249C112.132 53.2848 112.042 53.6987 112.042 54.1667V58H110.963Z" fill="#171C19"/>
<path d="M121.888 58.1215C121.213 58.1215 120.632 57.973 120.146 57.6761C119.669 57.3791 119.305 56.9562 119.053 56.4073C118.801 55.8584 118.675 55.2195 118.675 54.4906C118.675 53.7437 118.801 53.0958 119.053 52.5469C119.305 51.989 119.665 51.5616 120.133 51.2646C120.601 50.9587 121.172 50.8057 121.847 50.8057C122.567 50.8057 123.161 50.9677 123.629 51.2916C124.097 51.6156 124.434 52.0655 124.641 52.6414C124.857 53.2173 124.938 53.8832 124.884 54.6391H119.741C119.75 55.224 119.84 55.7144 120.011 56.1103C120.191 56.4973 120.439 56.7897 120.754 56.9877C121.078 57.1767 121.456 57.2711 121.888 57.2711C122.392 57.2711 122.805 57.1542 123.129 56.9202C123.453 56.6862 123.669 56.3758 123.777 55.9889H124.83C124.749 56.4388 124.569 56.8257 124.29 57.1497C124.02 57.4646 123.678 57.7076 123.264 57.8785C122.85 58.0405 122.392 58.1215 121.888 58.1215ZM119.755 54.0182L119.633 53.8562H123.939L123.818 54.0452C123.827 53.4783 123.75 53.0239 123.588 52.6819C123.426 52.331 123.192 52.0745 122.886 51.9125C122.589 51.7416 122.243 51.6561 121.847 51.6561C121.433 51.6561 121.073 51.7461 120.767 51.926C120.461 52.106 120.218 52.3715 120.038 52.7224C119.867 53.0643 119.773 53.4963 119.755 54.0182Z" fill="#171C19"/>
<path d="M129.054 58.1215C128.623 58.1215 128.222 58.036 127.853 57.8651C127.493 57.6941 127.183 57.4511 126.922 57.1362C126.661 56.8212 126.458 56.4388 126.314 55.9889C126.179 55.5389 126.112 55.026 126.112 54.4501C126.112 53.6852 126.233 53.0329 126.476 52.4929C126.728 51.944 127.075 51.5256 127.516 51.2376C127.957 50.9407 128.47 50.7922 129.054 50.7922C129.459 50.7922 129.828 50.8597 130.161 50.9947C130.503 51.1207 130.791 51.3006 131.025 51.5346C131.259 51.7686 131.43 52.0475 131.538 52.3715H131.592V48.1602H132.685V58H131.646L131.606 56.5288H131.538C131.367 57.0057 131.061 57.3926 130.62 57.6896C130.188 57.9775 129.666 58.1215 129.054 58.1215ZM129.405 57.2037C129.873 57.2037 130.269 57.0957 130.593 56.8797C130.917 56.6548 131.165 56.3668 131.336 56.0159C131.507 55.6649 131.592 55.287 131.592 54.882V54.0182C131.592 53.6043 131.502 53.2218 131.322 52.8709C131.151 52.5109 130.904 52.2275 130.58 52.0205C130.265 51.8046 129.878 51.6966 129.419 51.6966C128.969 51.6966 128.578 51.8091 128.245 52.034C127.921 52.25 127.669 52.5649 127.489 52.9789C127.318 53.3838 127.232 53.8742 127.232 54.4501C127.232 55.017 127.318 55.5074 127.489 55.9214C127.669 56.3353 127.921 56.6548 128.245 56.8797C128.569 57.0957 128.956 57.2037 129.405 57.2037Z" fill="#171C19"/>
<path d="M139.473 58V50.6977H137.178V49.8609H137.543C138.191 49.8609 138.668 49.7169 138.974 49.4289C139.28 49.132 139.455 48.7451 139.5 48.2681H140.566V58H139.473Z" fill="#171C19"/>
<path d="M145.848 58.1215C145.317 58.1215 144.84 58.018 144.417 57.8111C143.994 57.5951 143.634 57.2801 143.337 56.8662C143.04 56.4433 142.811 55.9214 142.649 55.3005C142.496 54.6796 142.419 53.9597 142.419 53.1408C142.419 52.007 142.563 51.0757 142.851 50.3468C143.139 49.6089 143.54 49.06 144.053 48.7001C144.565 48.3401 145.164 48.1602 145.848 48.1602C146.388 48.1602 146.865 48.2681 147.278 48.4841C147.701 48.6911 148.061 49.006 148.358 49.4289C148.655 49.8429 148.88 50.3603 149.033 50.9812C149.195 51.6021 149.276 52.322 149.276 53.1408C149.276 54.2746 149.132 55.2105 148.844 55.9484C148.565 56.6772 148.165 57.2217 147.643 57.5816C147.13 57.9415 146.532 58.1215 145.848 58.1215ZM145.848 57.1902C146.244 57.1902 146.586 57.1047 146.874 56.9337C147.171 56.7537 147.409 56.4973 147.589 56.1643C147.778 55.8224 147.917 55.3995 148.007 54.8955C148.106 54.3826 148.156 53.7977 148.156 53.1408C148.156 52.4839 148.106 51.9035 148.007 51.3996C147.917 50.8957 147.778 50.4728 147.589 50.1308C147.409 49.7889 147.171 49.5324 146.874 49.3615C146.586 49.1905 146.244 49.105 145.848 49.105C145.452 49.105 145.105 49.1905 144.808 49.3615C144.52 49.5324 144.282 49.7889 144.093 50.1308C143.913 50.4728 143.778 50.8957 143.688 51.3996C143.598 51.9035 143.553 52.4839 143.553 53.1408C143.553 53.7977 143.598 54.3826 143.688 54.8955C143.778 55.3995 143.913 55.8224 144.093 56.1643C144.282 56.4973 144.52 56.7537 144.808 56.9337C145.105 57.1047 145.452 57.1902 145.848 57.1902Z" fill="#171C19"/>
<path d="M154.442 58.1215C153.911 58.1215 153.434 58.018 153.011 57.8111C152.588 57.5951 152.228 57.2801 151.931 56.8662C151.634 56.4433 151.405 55.9214 151.243 55.3005C151.09 54.6796 151.014 53.9597 151.014 53.1408C151.014 52.007 151.158 51.0757 151.445 50.3468C151.733 49.6089 152.134 49.06 152.647 48.7001C153.16 48.3401 153.758 48.1602 154.442 48.1602C154.982 48.1602 155.459 48.2681 155.873 48.4841C156.296 48.6911 156.656 49.006 156.953 49.4289C157.25 49.8429 157.474 50.3603 157.627 50.9812C157.789 51.6021 157.87 52.322 157.87 53.1408C157.87 54.2746 157.726 55.2105 157.439 55.9484C157.16 56.6772 156.759 57.2217 156.237 57.5816C155.724 57.9415 155.126 58.1215 154.442 58.1215ZM154.442 57.1902C154.838 57.1902 155.18 57.1047 155.468 56.9337C155.765 56.7537 156.003 56.4973 156.183 56.1643C156.372 55.8224 156.512 55.3995 156.602 54.8955C156.701 54.3826 156.75 53.7977 156.75 53.1408C156.75 52.4839 156.701 51.9035 156.602 51.3996C156.512 50.8957 156.372 50.4728 156.183 50.1308C156.003 49.7889 155.765 49.5324 155.468 49.3615C155.18 49.1905 154.838 49.105 154.442 49.105C154.046 49.105 153.7 49.1905 153.403 49.3615C153.115 49.5324 152.876 49.7889 152.687 50.1308C152.507 50.4728 152.372 50.8957 152.282 51.3996C152.192 51.9035 152.147 52.4839 152.147 53.1408C152.147 53.7977 152.192 54.3826 152.282 54.8955C152.372 55.3995 152.507 55.8224 152.687 56.1643C152.876 56.4973 153.115 56.7537 153.403 56.9337C153.7 57.1047 154.046 57.1902 154.442 57.1902Z" fill="#171C19"/>
<path d="M162.011 58L165.615 48.1602H167.235L170.825 58H169.624L166.897 50.3063L166.465 49.0645H166.384L165.966 50.3063L163.226 58H162.011ZM163.955 55.5839L164.13 54.6391H168.706L168.882 55.5839H163.955Z" fill="#171C19"/>
<path d="M172.19 58V48.1602H173.297V54.5311L173.931 53.8562L176.847 50.9137H178.224L175.457 53.6537L178.345 58H177.063L175.133 55.098L174.701 54.3961L173.297 55.7594V58H172.19Z" fill="#171C19"/>
<path d="M179.638 58V50.9137H180.731V58H179.638ZM180.205 49.6989C179.998 49.6989 179.831 49.6449 179.705 49.5369C179.579 49.4199 179.516 49.267 179.516 49.078C179.516 48.889 179.579 48.7406 179.705 48.6326C179.831 48.5246 179.998 48.4706 180.205 48.4706C180.403 48.4706 180.565 48.5246 180.691 48.6326C180.817 48.7406 180.879 48.889 180.879 49.078C180.879 49.267 180.817 49.4199 180.691 49.5369C180.565 49.6449 180.403 49.6989 180.205 49.6989Z" fill="#171C19"/>
<path d="M186.419 58.1215C186.014 58.1215 185.641 58.0585 185.299 57.9325C184.966 57.7976 184.682 57.6131 184.448 57.3791C184.223 57.1362 184.052 56.8572 183.935 56.5423H183.868L183.814 58H182.788V48.1602H183.881V52.385H183.935C184.097 51.908 184.399 51.5256 184.84 51.2376C185.281 50.9497 185.807 50.8057 186.419 50.8057C186.851 50.8057 187.247 50.8912 187.607 51.0622C187.967 51.2241 188.277 51.4626 188.538 51.7776C188.799 52.0925 188.997 52.4794 189.132 52.9384C189.276 53.3883 189.348 53.8967 189.348 54.4636C189.348 55.2285 189.226 55.8854 188.984 56.4343C188.741 56.9832 188.399 57.4016 187.958 57.6896C187.517 57.9775 187.004 58.1215 186.419 58.1215ZM186.041 57.2172C186.5 57.2172 186.891 57.1092 187.215 56.8932C187.539 56.6772 187.791 56.3623 187.971 55.9484C188.151 55.5344 188.241 55.0395 188.241 54.4636C188.241 54.0317 188.187 53.6492 188.079 53.3163C187.98 52.9744 187.836 52.6864 187.647 52.4524C187.467 52.2095 187.242 52.0295 186.972 51.9125C186.702 51.7866 186.401 51.7236 186.068 51.7236C185.6 51.7236 185.204 51.8315 184.88 52.0475C184.556 52.2545 184.309 52.5379 184.138 52.8979C183.967 53.2488 183.881 53.6268 183.881 54.0317V54.8955C183.881 55.3095 183.967 55.6919 184.138 56.0429C184.309 56.3938 184.556 56.6772 184.88 56.8932C185.204 57.1092 185.591 57.2172 186.041 57.2172Z" fill="#171C19"/>
<path d="M193.815 58.1215C193.383 58.1215 192.982 58.036 192.613 57.8651C192.254 57.6941 191.943 57.4511 191.682 57.1362C191.421 56.8212 191.219 56.4388 191.075 55.9889C190.94 55.5389 190.872 55.026 190.872 54.4501C190.872 53.6852 190.994 53.0329 191.237 52.4929C191.489 51.944 191.835 51.5256 192.276 51.2376C192.717 50.9407 193.23 50.7922 193.815 50.7922C194.22 50.7922 194.589 50.8597 194.922 50.9947C195.264 51.1207 195.551 51.3006 195.785 51.5346C196.019 51.7686 196.19 52.0475 196.298 52.3715H196.366L196.406 50.9137H197.446V58H196.406L196.366 56.5288H196.298C196.127 57.0057 195.821 57.3926 195.381 57.6896C194.949 57.9775 194.427 58.1215 193.815 58.1215ZM194.166 57.2037C194.634 57.2037 195.03 57.0957 195.354 56.8797C195.677 56.6548 195.925 56.3668 196.096 56.0159C196.267 55.6649 196.352 55.287 196.352 54.882V54.0182C196.352 53.6043 196.262 53.2218 196.082 52.8709C195.911 52.5109 195.664 52.2275 195.34 52.0205C195.025 51.8046 194.638 51.6966 194.179 51.6966C193.729 51.6966 193.338 51.8091 193.005 52.034C192.681 52.25 192.429 52.5649 192.249 52.9789C192.078 53.3838 191.993 53.8742 191.993 54.4501C191.993 55.017 192.078 55.5074 192.249 55.9214C192.429 56.3353 192.681 56.6548 193.005 56.8797C193.329 57.0957 193.716 57.2037 194.166 57.2037Z" fill="#171C19"/>
<path d="M199.61 58V48.1602H201.473L203.646 53.9777L204.469 56.5288H204.55L205.374 53.9777L207.547 48.1602H209.409V58H208.289V52.8709L208.33 49.213H208.235L207.047 52.5874L205.036 58H203.983L201.999 52.6414L200.798 49.213H200.69L200.744 52.8709V58H199.61Z" fill="#171C19"/>
<path d="M211.563 58V50.9137H212.656V58H211.563ZM212.13 49.6989C211.923 49.6989 211.757 49.6449 211.631 49.5369C211.505 49.4199 211.442 49.267 211.442 49.078C211.442 48.889 211.505 48.7406 211.631 48.6326C211.757 48.5246 211.923 48.4706 212.13 48.4706C212.328 48.4706 212.49 48.5246 212.616 48.6326C212.742 48.7406 212.805 48.889 212.805 49.078C212.805 49.267 212.742 49.4199 212.616 49.5369C212.49 49.6449 212.328 49.6989 212.13 49.6989Z" fill="#171C19"/>
<path d="M214.713 58V48.1602H215.807V58H214.713Z" fill="#171C19"/>
<path d="M220.577 58.1215C219.902 58.1215 219.322 57.973 218.836 57.6761C218.359 57.3791 217.994 56.9562 217.742 56.4073C217.49 55.8584 217.364 55.2195 217.364 54.4906C217.364 53.7437 217.49 53.0958 217.742 52.5469C217.994 51.989 218.354 51.5616 218.822 51.2646C219.29 50.9587 219.861 50.8057 220.536 50.8057C221.256 50.8057 221.85 50.9677 222.318 51.2916C222.786 51.6156 223.123 52.0655 223.33 52.6414C223.546 53.2173 223.627 53.8832 223.573 54.6391H218.431C218.44 55.224 218.53 55.7144 218.701 56.1103C218.881 56.4973 219.128 56.7897 219.443 56.9877C219.767 57.1767 220.145 57.2711 220.577 57.2711C221.081 57.2711 221.495 57.1542 221.819 56.9202C222.143 56.6862 222.359 56.3758 222.467 55.9889H223.519C223.438 56.4388 223.258 56.8257 222.979 57.1497C222.709 57.4646 222.368 57.7076 221.954 57.8785C221.54 58.0405 221.081 58.1215 220.577 58.1215ZM218.444 54.0182L218.323 53.8562H222.628L222.507 54.0452C222.516 53.4783 222.44 53.0239 222.278 52.6819C222.116 52.331 221.882 52.0745 221.576 51.9125C221.279 51.7416 220.932 51.6561 220.536 51.6561C220.122 51.6561 219.762 51.7461 219.457 51.926C219.151 52.106 218.908 52.3715 218.728 52.7224C218.557 53.0643 218.462 53.4963 218.444 54.0182Z" fill="#171C19"/>
<path d="M227.635 58.135C227.194 58.135 226.798 58.081 226.447 57.973C226.096 57.8651 225.795 57.7166 225.543 57.5276C225.291 57.3296 225.098 57.0957 224.963 56.8257C224.828 56.5468 224.756 56.2408 224.747 55.9079H225.826C225.844 56.2228 225.93 56.4883 226.083 56.7042C226.245 56.9112 226.461 57.0642 226.731 57.1632C227.01 57.2622 227.32 57.3116 227.662 57.3116C228.211 57.3116 228.629 57.2082 228.917 57.0012C229.214 56.7942 229.363 56.5018 229.363 56.1238C229.363 55.8359 229.3 55.6154 229.174 55.4624C229.048 55.3005 228.854 55.1745 228.593 55.0845C228.333 54.9945 227.991 54.918 227.568 54.855C226.983 54.7741 226.497 54.6616 226.11 54.5176C225.723 54.3736 225.43 54.1712 225.233 53.9102C225.035 53.6403 224.936 53.2893 224.936 52.8574C224.936 52.4434 225.048 52.0835 225.273 51.7776C225.498 51.4626 225.813 51.2197 226.218 51.0487C226.623 50.8687 227.095 50.7787 227.635 50.7787C228.184 50.7787 228.656 50.8687 229.052 51.0487C229.448 51.2197 229.759 51.4671 229.984 51.7911C230.209 52.106 230.326 52.4839 230.335 52.9249H229.268C229.25 52.6099 229.169 52.358 229.025 52.169C228.89 51.971 228.701 51.8315 228.458 51.7506C228.225 51.6606 227.946 51.6156 227.622 51.6156C227.118 51.6156 226.726 51.7191 226.447 51.926C226.168 52.133 226.029 52.4075 226.029 52.7494C226.029 53.0104 226.096 53.2218 226.231 53.3838C226.366 53.5368 226.573 53.6582 226.852 53.7482C227.14 53.8292 227.5 53.9012 227.932 53.9642C228.463 54.0362 228.917 54.1442 229.295 54.2881C229.682 54.4321 229.975 54.6436 230.173 54.9225C230.371 55.1925 230.47 55.5614 230.47 56.0294C230.47 56.4793 230.353 56.8617 230.119 57.1767C229.885 57.4826 229.552 57.7211 229.12 57.892C228.697 58.054 228.202 58.135 227.635 58.135Z" fill="#171C19"/>
</g>
<path d="M281.674 28.8467H255.368C248.104 28.8467 242.215 34.7355 242.215 41.9998C242.215 49.2641 248.104 55.153 255.368 55.153H281.674C288.939 55.153 294.828 49.2641 294.828 41.9998C294.828 34.7355 288.939 28.8467 281.674 28.8467Z" fill="#F0FDFF"/>
<path d="M269.499 39.1006C270.166 39.1006 270.757 39.253 271.269 39.5586C271.782 39.8645 272.186 40.3183 272.48 40.917C272.775 41.517 272.922 42.2665 272.922 43.1631V43.6201H267.359C267.393 44.0288 267.49 44.4063 267.653 44.7529C267.835 45.1042 268.085 45.3884 268.408 45.6064H268.407C268.727 45.8135 269.11 45.9179 269.557 45.918C269.901 45.918 270.181 45.8703 270.402 45.7773L270.494 45.7344C270.741 45.6013 270.933 45.4504 271.074 45.2822C271.218 45.1095 271.311 44.9641 271.357 44.8457L271.358 44.8438C271.387 44.7762 271.408 44.7253 271.423 44.6914C271.43 44.6747 271.436 44.6618 271.44 44.6533C271.441 44.6492 271.443 44.6457 271.443 44.6436C271.444 44.6425 271.444 44.6411 271.444 44.6406H271.445L271.458 44.6104H272.85L272.832 44.6729V44.6738L272.828 44.6895C272.825 44.7003 272.821 44.7167 272.815 44.7383C272.803 44.7819 272.784 44.8474 272.76 44.9346V44.9355C272.71 45.1045 272.621 45.3111 272.494 45.5547C272.366 45.8022 272.178 46.0531 271.934 46.3076V46.3086C271.686 46.5556 271.37 46.767 270.988 46.9434L270.987 46.9443C270.601 47.1127 270.123 47.1953 269.557 47.1953C268.921 47.1953 268.367 47.0831 267.894 46.8564L267.893 46.8555C267.488 46.6492 267.143 46.3828 266.859 46.0557L266.741 45.9111C266.447 45.5189 266.226 45.0868 266.079 44.6162C265.932 44.1368 265.86 43.6474 265.859 43.1484C265.859 42.6592 265.927 42.1745 266.064 41.6953L266.065 41.6943C266.212 41.2144 266.432 40.778 266.726 40.3857L266.727 40.3848C267.032 39.9913 267.411 39.6813 267.863 39.4551L268.041 39.3721C268.465 39.1909 268.951 39.1006 269.499 39.1006ZM252.924 36.1934L252.936 36.2275L256.071 45.2188L259.208 36.2275L259.22 36.1934H260.838L260.815 36.2598L257.006 47.0166L256.994 47.0498H255.136L255.124 47.0166L251.33 36.2598L251.307 36.1934H252.924ZM263.87 39.2461V47.0498H262.389V39.2461H263.87ZM275.409 39.2461L275.421 39.2812L277.205 44.9746L279.075 39.2803L279.087 39.2461H280.468L280.48 39.2803L282.335 44.9746L284.135 39.2812L284.146 39.2461H285.661L285.64 39.3115L283.14 47.0156L283.128 47.0498H281.572L281.562 47.0156L279.777 41.4785L277.993 47.0156L277.983 47.0498H276.412L276.401 47.0156L273.915 39.3115L273.895 39.2461H275.409ZM269.499 40.3779C268.901 40.3779 268.416 40.5725 268.038 40.959L268.037 40.96C267.67 41.327 267.451 41.8205 267.377 42.4443H271.467C271.442 41.97 271.339 41.5897 271.157 41.2998V41.2988C270.968 40.9861 270.727 40.7558 270.436 40.6055V40.6045C270.142 40.4533 269.83 40.3779 269.499 40.3779ZM263.123 35.9902C263.388 35.9903 263.613 36.0826 263.797 36.2666C263.982 36.4507 264.074 36.6766 264.074 36.9414C264.074 37.1971 263.981 37.4179 263.797 37.6016C263.613 37.7855 263.388 37.8779 263.123 37.8779C262.849 37.8779 262.618 37.7859 262.433 37.6016L262.432 37.6006C262.259 37.4168 262.171 37.1964 262.171 36.9414C262.171 36.6774 262.259 36.4518 262.432 36.2676L262.433 36.2666C262.618 36.0823 262.849 35.9902 263.123 35.9902Z" fill="#238D9D" stroke="#238D9D" stroke-width="0.1"/>
</g>
</g>
<defs>
<filter id="filter0_d_2290_15905" x="0.327797" y="0.480469" width="315.64" height="93.421" filterUnits="userSpaceOnUse" color-interpolation-filters="sRGB">
<feFlood flood-opacity="0" result="BackgroundImageFix"/>
<feColorMatrix in="SourceAlpha" type="matrix" values="0 0 0 0 0 0 0 0 0 0 0 0 0 0 0 0 0 0 127 0" result="hardAlpha"/>
<feOffset dy="6.22974"/>
<feGaussianBlur stdDeviation="2.07658"/>
<feComposite in2="hardAlpha" operator="out"/>
<feColorMatrix type="matrix" values="0 0 0 0 0 0 0 0 0 0 0 0 0 0 0 0 0 0 0.08 0"/>
<feBlend mode="normal" in2="BackgroundImageFix" result="effect1_dropShadow_2290_15905"/>
<feBlend mode="normal" in="SourceGraphic" in2="effect1_dropShadow_2290_15905" result="shape"/>
</filter>
<clipPath id="clip0_2290_15905">
<rect width="316" height="94" fill="white"/>
</clipPath>
</defs>
</svg>
