<svg width="823" height="255" viewBox="0 0 823 255" fill="none" xmlns="http://www.w3.org/2000/svg">
<g clip-path="url(#clip0_2290_15917)">
<mask id="mask0_2290_15917" style="mask-type:luminance" maskUnits="userSpaceOnUse" x="0" y="0" width="823" height="255">
<path d="M823 0H0V255H823V0Z" fill="white"/>
</mask>
<g mask="url(#mask0_2290_15917)">
<path d="M797.754 312.527C797.754 152.626 626.681 23 415.652 23C204.623 23 33.5508 152.626 33.5508 312.527" stroke="#DCDCDC" stroke-opacity="0.8"/>
<path d="M743.08 320.764C743.08 182.823 596.764 71 416.274 71C235.785 71 89.4688 182.823 89.4688 320.764" stroke="#DCDCDC" stroke-opacity="0.6"/>
<path d="M671.008 314.989C671.008 207.244 556.681 119.9 415.652 119.9C274.623 119.9 160.296 207.244 160.296 314.989" stroke="#DCDCDC"/>
<path d="M108.487 108.513L74.7687 118.543C70.5339 119.803 68.1221 124.257 69.3819 128.492L79.4125 162.21C80.6723 166.445 85.1267 168.857 89.3615 167.597L123.079 157.566C127.314 156.306 129.726 151.852 128.466 147.617L118.436 113.899C117.176 109.664 112.722 107.253 108.487 108.513Z" fill="#F06225"/>
<mask id="mask1_2290_15917" style="mask-type:luminance" maskUnits="userSpaceOnUse" x="81" y="120" width="37" height="36">
<path d="M108.871 120.078L81.278 128.286L89.4864 155.879L117.079 147.67L108.871 120.078Z" fill="white"/>
</mask>
<g mask="url(#mask1_2290_15917)">
<path d="M95.0742 124.182C102.694 121.916 110.708 126.255 112.975 133.874L115.848 143.532C116.174 144.63 116.051 145.812 115.506 146.819C114.961 147.826 114.038 148.576 112.94 148.902L103.972 151.57L102.172 145.517C101.761 144.136 101.42 142.681 101.794 141.29C102.062 140.293 102.541 139.366 103.199 138.571C103.857 137.775 104.678 137.131 105.607 136.681L105.859 136.56C105.957 136.49 106.03 136.392 106.069 136.278C106.108 136.165 106.111 136.042 106.077 135.927C106.043 135.811 105.973 135.71 105.878 135.636C105.784 135.562 105.668 135.52 105.548 135.515L105.271 135.551C103.775 135.743 102.257 135.459 100.931 134.741C99.6053 134.023 98.5383 132.907 97.8809 131.55L97.7596 131.298C97.6899 131.201 97.5914 131.127 97.4779 131.088C97.3643 131.049 97.2414 131.046 97.1263 131.08C97.0112 131.115 96.9097 131.184 96.8359 131.279C96.7622 131.374 96.72 131.489 96.7152 131.609L96.751 131.886C96.882 132.91 96.7913 133.95 96.4851 134.935C96.1788 135.921 95.6641 136.829 94.976 137.598C94.016 138.672 92.6104 139.182 91.2293 139.593L85.1934 141.388C83.3829 133.982 87.6863 126.38 95.0742 124.182Z" fill="white"/>
<path d="M85.5873 142.773L91.6398 140.972C93.0208 140.561 94.4765 140.22 95.8674 140.594C96.9547 140.887 97.9582 141.431 98.7978 142.181C99.8717 143.141 100.382 144.547 100.792 145.928L102.593 151.98L93.6252 154.648C92.5275 154.974 91.3451 154.852 90.338 154.306C89.3309 153.761 88.5816 152.838 88.2551 151.74L85.5873 142.773ZM109.281 121.458C109.39 121.824 109.349 122.218 109.167 122.553C108.985 122.889 108.678 123.139 108.312 123.248C107.946 123.357 107.552 123.316 107.216 123.134C106.88 122.952 106.631 122.644 106.522 122.279C106.413 121.913 106.454 121.518 106.636 121.183C106.817 120.847 107.125 120.597 107.491 120.488C107.857 120.38 108.251 120.421 108.587 120.602C108.922 120.784 109.172 121.092 109.281 121.458Z" fill="white"/>
</g>
<path d="M501.085 62.5523L475.89 52.8697C471.765 51.2848 467.137 53.3433 465.552 57.4676L455.87 82.6633C454.285 86.7876 456.343 91.4157 460.467 93.0006L485.663 102.683C489.787 104.268 494.416 102.21 496.001 98.0854L505.683 72.8897C507.268 68.7654 505.21 64.1373 501.085 62.5523Z" fill="#8046FD"/>
<mask id="mask2_2290_15917" style="mask-type:luminance" maskUnits="userSpaceOnUse" x="467" y="66" width="28" height="24">
<path d="M494.747 74.5091L472.8 66.0752L467.017 81.1243L488.963 89.5582L494.747 74.5091Z" fill="white"/>
</mask>
<g mask="url(#mask2_2290_15917)">
<path fill-rule="evenodd" clip-rule="evenodd" d="M471.587 70.9404C470.49 72.0969 469.76 73.5526 469.489 75.1236C469.217 76.6945 469.417 78.3102 470.063 79.766C470.708 81.2218 471.771 82.4526 473.116 83.3026C474.461 84.1527 476.027 84.5838 477.618 84.5415C479.209 84.4992 480.752 83.9852 482.053 83.0649C482.087 83.0404 482.122 83.0155 482.156 82.9905C482.18 82.9728 482.204 82.9549 482.228 82.937L480.878 86.4515L481.455 86.6733C482.94 87.244 484.562 87.3605 486.114 87.0082C487.666 86.6559 489.08 85.8506 490.177 84.694C491.274 83.5375 492.004 82.0817 492.275 80.5107C492.546 78.9397 492.346 77.3243 491.701 75.8685C491.055 74.4126 489.993 73.1818 488.648 72.3318C487.303 71.4817 485.736 71.0506 484.145 71.0929C482.555 71.1352 481.011 71.649 479.711 72.5694C479.652 72.6113 479.593 72.6539 479.535 72.6973L480.886 69.183L480.308 68.961C478.823 68.3904 477.202 68.2738 475.65 68.6262C474.097 68.9785 472.683 69.7838 471.587 70.9404ZM476.839 76.2635L479.276 69.923C478.186 69.6147 477.033 69.5831 475.921 69.8353C474.608 70.1334 473.411 70.8148 472.484 71.7934C471.556 72.772 470.938 74.0039 470.708 75.3332C470.479 76.6624 470.648 78.0295 471.194 79.2613C471.741 80.4932 472.639 81.5346 473.777 82.2538C474.915 82.9731 476.241 83.3378 477.587 83.302C478.879 83.2676 480.134 82.8658 481.206 82.1449C480.585 82.193 479.944 82.1069 479.325 81.8688C477.092 81.0108 475.979 78.5011 476.839 76.2635ZM482.488 85.7113L484.925 79.3707C485.785 77.1331 484.672 74.6235 482.439 73.7655C481.819 73.5273 481.178 73.4414 480.558 73.4894C481.63 72.7685 482.884 72.3667 484.176 72.3324C485.522 72.2966 486.848 72.6614 487.986 73.3806C489.124 74.0999 490.023 75.1413 490.569 76.3732C491.116 77.605 491.285 78.972 491.055 80.3013C490.826 81.6306 490.208 82.8623 489.28 83.8409C488.352 84.8195 487.156 85.501 485.842 85.7991C484.731 86.0513 483.578 86.0195 482.488 85.7113ZM479.712 80.6885C478.175 80.0628 477.406 78.3296 477.972 76.7655L479.065 77.1854C479.851 77.7134 480.268 78.6542 480.133 79.5934L479.712 80.6885ZM479.828 80.7328C481.388 81.2976 483.12 80.5252 483.747 78.9845L482.654 78.5647C481.717 78.4303 480.777 78.8497 480.248 79.638L479.828 80.7328ZM483.791 78.8688C484.357 77.3047 483.589 75.5716 482.051 74.9459L481.631 76.0407C481.495 76.98 481.912 77.9208 482.699 78.4489L483.791 78.8688ZM481.936 74.9015C480.375 74.3367 478.644 75.1091 478.017 76.6497L479.11 77.0696C480.047 77.2039 480.987 76.7848 481.515 75.9966L481.936 74.9015Z" fill="white"/>
</g>
<path d="M324.539 8.07657L290.445 1.51246C286.106 0.677152 281.912 3.51713 281.077 7.85573L274.512 41.9497C273.677 46.2883 276.517 50.4826 280.856 51.3179L314.95 57.882C319.288 58.7173 323.483 55.8773 324.318 51.5387L330.882 17.4448C331.717 13.1062 328.877 8.91188 324.539 8.07657Z" fill="#212326"/>
<mask id="mask3_2290_15917" style="mask-type:luminance" maskUnits="userSpaceOnUse" x="284" y="13" width="38" height="33">
<path d="M321.067 19.5141L289.16 13.3711L284.066 39.8302L315.973 45.9731L321.067 19.5141Z" fill="white"/>
</mask>
<g mask="url(#mask3_2290_15917)">
<path d="M303.139 16.3216L317.192 36.5452L315.447 45.6134L307.371 44.0585L308.489 38.2502L298.282 23.5614L295.671 23.0587L292.19 41.1358L284.114 39.581L289.112 13.6211L303.139 16.3216ZM310.634 27.1075L312.369 18.0986L320.445 19.6535L318.71 28.6624L310.634 27.1075Z" fill="white"/>
</g>
<path d="M645.811 51.2758L621.898 55.1391C617.536 55.8438 614.571 59.9509 615.276 64.3126L619.139 88.2257C619.844 92.5874 623.951 95.552 628.313 94.8473L652.226 90.984C656.588 90.2793 659.552 86.1722 658.847 81.8105L654.984 57.8974C654.279 53.5357 650.172 50.5711 645.811 51.2758Z" fill="#283841"/>
<path d="M644.713 68.1065C643.179 66.2335 640.178 66.7182 639.312 68.9791L638.025 72.3371L641.597 71.7599C643.718 71.4173 645.56 72.6486 646.257 74.3958L646.574 73.5696C647.089 72.2241 646.844 70.7086 645.931 69.5938L644.713 68.1065Z" fill="#BB6BD9"/>
<path d="M640.533 81.5497C641.69 80.0731 641.835 77.884 640.487 76.2384L638.189 73.4333L641.776 72.8539C644.176 72.4661 646.094 74.8073 645.228 77.0682L644.382 79.2746C643.965 80.3648 642.994 81.1517 641.837 81.3389L640.533 81.5497Z" fill="#EB5757"/>
<path d="M631.418 80.2167C633.288 80.4841 635.28 79.5112 636.045 77.5165L637.335 74.1484L639.622 76.9398C641.156 78.8131 640.073 81.6395 637.672 82.0268L635.328 82.4048C634.171 82.5914 633.002 82.1501 632.262 81.247L631.418 80.2167Z" fill="#F2994A"/>
<path d="M628.057 71.707L627.741 72.5332C627.225 73.8787 627.47 75.3942 628.383 76.5089L629.602 77.9963C631.136 79.8693 634.136 79.3846 635.003 77.1237L636.293 73.7554L632.713 74.3339C630.597 74.6758 628.757 73.4495 628.057 71.707Z" fill="#F2C94C"/>
<path d="M629.066 69.0765C629.006 69.241 628.961 69.4058 628.929 69.5698C628.961 69.4053 629.006 69.2401 629.066 69.0752V69.0765Z" fill="#F2C94C"/>
<path d="M633.782 64.542C632.625 66.0186 632.479 68.2085 633.827 69.8544L636.126 72.6603L632.537 73.2401C630.136 73.628 628.218 71.2867 629.085 69.0259L629.931 66.8176C630.349 65.7275 631.319 64.9406 632.476 64.7533L633.782 64.542Z" fill="#27AE60"/>
<path d="M636.983 71.9493L634.692 69.1529C633.158 67.2797 634.241 64.4535 636.642 64.0659L638.985 63.6878C640.142 63.5009 641.311 63.9422 642.051 64.8454L642.904 65.8869C641.033 65.6165 639.037 66.5892 638.272 68.5862L636.983 71.9493Z" fill="#2F80ED"/>
<path fill-rule="evenodd" clip-rule="evenodd" d="M638.808 62.5937C640.359 62.3433 641.925 62.9345 642.916 64.1445C644.211 65.7261 645.502 67.3116 646.798 68.8933C647.962 70.3148 648.274 72.2475 647.617 73.9633C646.888 75.8658 646.153 77.766 645.424 79.6685C644.864 81.129 643.564 82.1832 642.014 82.4339C639.843 82.7849 637.676 83.1495 635.505 83.4996C633.955 83.7497 632.389 83.1585 631.398 81.9487C630.105 80.3696 628.813 78.7893 627.519 77.2102C626.355 75.7887 626.043 73.856 626.7 72.1401C627.43 70.2348 628.16 68.3295 628.89 66.4242C629.45 64.9638 630.749 63.9098 632.3 63.6588C634.47 63.3078 636.638 62.9441 638.808 62.5937ZM633.783 64.5419L632.477 64.7531C631.444 64.9202 630.56 65.565 630.085 66.4768C630.028 66.5866 629.976 66.7002 629.931 66.8174L629.085 69.0257C629.079 69.042 629.073 69.0584 629.067 69.0748C628.263 71.2764 630.081 73.5352 632.399 73.2593L636.115 72.6588L636.113 72.6467L636.115 72.6464L633.828 69.8542C632.48 68.2083 632.625 66.0185 633.783 64.5419ZM637.336 74.1489C637.965 74.9168 638.592 75.6859 639.223 76.4524L639.622 76.9403C641.157 78.8136 640.073 81.6401 637.672 82.0274L635.329 82.4053C634.171 82.592 633.003 82.1507 632.263 81.2476L631.419 80.2172C633.211 80.4735 635.115 79.5904 635.944 77.7602C635.98 77.6811 636.013 77.5996 636.045 77.517L637.336 74.1489ZM636.285 73.7571L635.317 76.2838C635.21 76.5629 635.111 76.8446 635.004 77.1238C634.137 79.3847 631.136 79.8695 629.602 77.9965L628.384 76.5091C627.471 75.3944 627.226 73.8788 627.742 72.5333L628.058 71.7072C628.408 72.5784 629.043 73.3206 629.855 73.8023C630.625 74.2595 631.556 74.4819 632.553 74.3572C632.607 74.3505 632.66 74.3428 632.714 74.3341L636.285 73.7571ZM638.189 73.4342L641.776 72.8547C644.176 72.4669 646.094 74.8082 645.228 77.069L644.382 79.2754C643.965 80.3656 642.994 81.1525 641.837 81.3397L640.533 81.5505C641.69 80.0739 641.835 77.8848 640.487 76.2392L638.189 73.4342ZM636.983 71.9496L634.693 69.1532C633.158 67.28 634.241 64.4538 636.642 64.0662L638.985 63.6881C640.142 63.5012 641.311 63.9425 642.051 64.8457L642.904 65.8872C641.033 65.6168 639.037 66.5896 638.272 68.5865L636.983 71.9496ZM639.313 68.9797C640.18 66.7189 643.18 66.2341 644.715 68.107L645.933 69.5944C646.846 70.7091 647.091 72.2247 646.575 73.5703L646.259 74.3964C645.561 72.6492 643.72 71.418 641.599 71.7605L638.027 72.3377L639.313 68.9797Z" fill="white"/>
<path d="M632.477 64.7522L633.783 64.541C632.625 66.0177 632.48 68.2075 633.828 69.8534L636.115 72.6457L636.113 72.6459L636.115 72.6581L634.914 72.8521L633.005 70.5208C631.57 68.7687 631.495 66.5258 632.389 64.7676C632.418 64.7621 632.448 64.757 632.477 64.7522Z" fill="black" fill-opacity="0.22"/>
<path d="M628.059 71.707C628.409 72.5783 629.043 73.3205 629.855 73.8022C630.626 74.2593 631.556 74.4818 632.554 74.357C632.607 74.3503 632.661 74.3427 632.715 74.334L636.286 73.757L635.849 74.8962L632.883 75.3754C630.648 75.7365 628.666 74.6947 627.58 73.062C627.622 72.8837 627.676 72.707 627.742 72.5331L628.059 71.707Z" fill="black" fill-opacity="0.22"/>
<path d="M631.418 80.2167C633.21 80.4729 635.115 79.5898 635.943 77.7596C635.979 77.6804 636.013 77.599 636.045 77.5164L637.335 74.1484C637.543 74.4018 637.75 74.6554 637.958 74.9089C638.008 74.9703 638.058 75.0316 638.108 75.0928L637.036 77.8907C636.223 80.0126 634.297 81.2025 632.313 81.3075C632.296 81.2876 632.279 81.2674 632.262 81.247L631.418 80.2167Z" fill="black" fill-opacity="0.22"/>
<path d="M641.926 81.3235C641.896 81.3292 641.867 81.3345 641.837 81.3393L640.533 81.5501C641.69 80.0735 641.835 77.8843 640.487 76.2388L638.189 73.4338L639.399 73.2383L641.31 75.5716C642.745 77.3233 642.82 79.5656 641.926 81.3235Z" fill="black" fill-opacity="0.22"/>
<path d="M646.736 73.0388C646.695 73.2179 646.64 73.3955 646.573 73.5702L646.257 74.3964C645.56 72.6491 643.718 71.4179 641.597 71.7604L638.025 72.3376L638.461 71.1984L641.429 70.719C643.667 70.3575 645.651 71.4023 646.736 73.0388Z" fill="black" fill-opacity="0.22"/>
<path d="M642.009 64.7949C642.024 64.8116 642.038 64.8284 642.052 64.8454L642.905 65.8869C641.034 65.6164 639.037 66.5892 638.272 68.5862L636.984 71.9493L636.21 71.0056L637.281 68.2121C638.095 66.0881 640.024 64.8979 642.009 64.7949Z" fill="black" fill-opacity="0.22"/>
<path d="M695.489 162.165L672.915 165.485C668.544 166.128 665.521 170.193 666.164 174.564L669.485 197.139C670.128 201.51 674.192 204.533 678.564 203.89L701.138 200.569C705.509 199.926 708.532 195.861 707.889 191.49L704.568 168.916C703.926 164.544 699.861 161.522 695.489 162.165Z" fill="#3064E8"/>
<mask id="mask4_2290_15917" style="mask-type:luminance" maskUnits="userSpaceOnUse" x="673" y="170" width="28" height="25">
<path d="M697.439 170.46L673.436 173.99L676.525 194.993L700.528 191.462L697.439 170.46Z" fill="white"/>
</mask>
<g mask="url(#mask4_2290_15917)">
<path fill-rule="evenodd" clip-rule="evenodd" d="M691.086 189.787C691.874 189.671 692.632 189.401 693.315 188.992C693.999 188.584 694.595 188.045 695.071 187.405C695.546 186.766 695.891 186.04 696.085 185.267C696.28 184.495 696.32 183.692 696.204 182.904C695.853 180.517 694.568 178.367 692.632 176.927C690.695 175.487 688.266 174.876 685.879 175.227C683.492 175.578 681.342 176.863 679.902 178.799C678.462 180.735 677.851 183.164 678.202 185.552C678.318 186.34 678.588 187.097 678.997 187.781C679.405 188.464 679.945 189.061 680.584 189.536C681.223 190.011 681.949 190.356 682.722 190.551C683.494 190.745 684.297 190.786 685.085 190.67L691.086 189.787ZM686.232 177.627C684.482 177.884 682.905 178.827 681.849 180.247C680.793 181.667 680.345 183.448 680.602 185.199C680.672 185.671 680.834 186.126 681.079 186.536C681.324 186.946 681.648 187.304 682.031 187.589C682.415 187.874 682.851 188.081 683.314 188.198C683.778 188.315 684.259 188.339 684.732 188.269L690.733 187.387C691.206 187.317 691.66 187.155 692.07 186.91C692.481 186.665 692.839 186.341 693.124 185.958C693.409 185.574 693.616 185.138 693.732 184.675C693.849 184.211 693.873 183.73 693.804 183.257C693.546 181.506 692.604 179.929 691.184 178.874C689.764 177.818 687.983 177.369 686.232 177.627Z" fill="white"/>
<path fill-rule="evenodd" clip-rule="evenodd" d="M684.326 193.846C683.302 193.997 682.253 193.913 681.24 193.6C680.227 193.287 679.27 192.751 678.423 192.021C677.575 191.292 676.855 190.384 676.302 189.35C675.749 188.316 675.376 187.175 675.202 185.993C674.734 182.81 675.549 179.571 677.469 176.99C679.388 174.408 682.255 172.694 685.438 172.226C688.621 171.758 691.859 172.574 694.441 174.493C697.023 176.413 698.736 179.279 699.204 182.462C699.378 183.644 699.349 184.845 699.117 185.994C698.886 187.144 698.457 188.221 697.856 189.163C697.254 190.105 696.492 190.895 695.612 191.487C694.732 192.078 693.752 192.46 692.727 192.611L684.326 193.846ZM679.415 178.437C680.951 176.372 683.244 175.001 685.791 174.627C688.337 174.252 690.928 174.904 692.993 176.44C695.059 177.976 696.43 180.269 696.804 182.815C696.938 183.726 696.914 184.645 696.739 185.516C696.564 186.386 696.243 187.18 695.811 187.858C695.379 188.535 694.847 189.078 694.258 189.473C693.672 189.868 693.032 190.114 692.374 190.21L683.973 191.446C683.316 191.543 682.633 191.491 681.957 191.282C681.28 191.073 680.614 190.706 680.005 190.183C679.396 189.658 678.86 188.99 678.442 188.207C678.023 187.423 677.736 186.551 677.602 185.64C677.227 183.093 677.88 180.503 679.415 178.437Z" fill="white"/>
<path d="M690.645 186.787L687.642 187.228C687.44 187.258 687.237 187.267 687.035 187.256C686.645 187.234 686.26 187.137 685.903 186.967C685.361 186.71 684.908 186.298 684.6 185.783C684.5 185.616 684.417 185.441 684.352 185.26C684.215 184.883 684.154 184.48 684.174 184.075C684.204 183.476 684.412 182.899 684.769 182.418C685.127 181.937 685.62 181.572 686.185 181.371C686.203 181.365 686.22 181.359 686.238 181.353C686.409 181.295 686.585 181.253 686.762 181.227C687.154 181.17 687.555 181.189 687.943 181.287C688.525 181.433 689.05 181.749 689.453 182.194C689.855 182.639 690.116 183.193 690.203 183.786L687.803 184.139C687.786 184.021 687.733 183.91 687.653 183.821C687.572 183.732 687.467 183.669 687.351 183.639C687.235 183.61 687.112 183.616 686.999 183.656C686.886 183.697 686.788 183.769 686.716 183.866C686.645 183.962 686.603 184.077 686.597 184.197C686.591 184.317 686.621 184.436 686.682 184.539C686.744 184.642 686.835 184.724 686.943 184.776C687.051 184.827 687.173 184.845 687.291 184.828L690.292 184.386C690.37 184.375 690.446 184.348 690.515 184.307C690.583 184.266 690.643 184.212 690.69 184.148C690.738 184.084 690.772 184.012 690.792 183.934C690.811 183.857 690.815 183.777 690.803 183.698C690.663 182.743 690.149 181.883 689.374 181.307C688.6 180.731 687.628 180.487 686.673 180.627C686.57 180.642 686.467 180.662 686.366 180.686C686.118 180.745 685.878 180.829 685.649 180.937C685.424 181.043 685.211 181.172 685.013 181.321C684.785 181.493 684.577 181.691 684.394 181.914C684.356 181.96 684.319 182.008 684.283 182.056C684.031 182.395 683.842 182.772 683.722 183.168C683.661 183.366 683.618 183.569 683.592 183.775C683.563 184.01 683.556 184.249 683.573 184.488C683.58 184.578 683.589 184.668 683.603 184.757C683.672 185.228 683.833 185.682 684.079 186.095C684.449 186.712 684.993 187.207 685.643 187.515C685.647 187.517 685.65 187.519 685.654 187.521L684.644 187.669C684.25 187.727 683.848 187.707 683.462 187.61C683.076 187.512 682.713 187.34 682.393 187.102C682.074 186.865 681.804 186.567 681.6 186.225C681.395 185.883 681.26 185.504 681.202 185.11C680.968 183.519 681.376 181.899 682.336 180.609C683.296 179.318 684.729 178.461 686.32 178.227C687.912 177.993 689.531 178.401 690.822 179.36C692.113 180.32 692.97 181.753 693.204 183.345C693.262 183.739 693.241 184.141 693.144 184.527C693.047 184.913 692.875 185.276 692.637 185.596C692.399 185.915 692.101 186.185 691.759 186.389C691.417 186.594 691.039 186.729 690.645 186.787Z" fill="white"/>
</g>
<path d="M268.295 126.883L242.71 144.281C239.057 146.765 238.109 151.741 240.593 155.395L257.991 180.979C260.476 184.633 265.452 185.581 269.105 183.096L294.69 165.698C298.343 163.214 299.291 158.238 296.807 154.585L279.409 129C276.924 125.346 271.949 124.399 268.295 126.883Z" fill="#25CAAC"/>
<mask id="mask5_2290_15917" style="mask-type:luminance" maskUnits="userSpaceOnUse" x="248" y="134" width="42" height="42">
<path d="M273.802 134.669L248.329 151.99L264.001 175.037L289.473 157.715L273.802 134.669Z" fill="white"/>
</mask>
<g mask="url(#mask5_2290_15917)">
<path d="M263.662 167.042C265.039 167.059 266.553 166.029 267.044 164.742C267.535 163.455 266.817 162.399 265.44 162.382C264.063 162.366 262.548 163.396 262.057 164.683C261.566 165.969 262.285 167.026 263.662 167.042Z" fill="white"/>
<path d="M267.34 151.601C269.406 151.626 271.678 150.081 272.414 148.151C273.151 146.221 272.073 144.636 270.008 144.612C267.942 144.587 265.67 146.132 264.933 148.062C264.197 149.992 265.274 151.577 267.34 151.601Z" fill="white"/>
<path d="M265.202 159.525C266.923 159.546 268.816 158.258 269.43 156.65C270.044 155.041 269.146 153.721 267.425 153.701C265.703 153.68 263.81 154.967 263.196 156.576C262.583 158.184 263.481 159.505 265.202 159.525Z" fill="white"/>
<path d="M257.292 164.041C258.325 164.053 259.461 163.281 259.829 162.316C260.198 161.351 259.659 160.559 258.626 160.546C257.593 160.534 256.457 161.306 256.089 162.271C255.721 163.237 256.26 164.029 257.292 164.041Z" fill="white"/>
<path d="M258.784 150.087C260.506 150.108 262.399 148.82 263.012 147.212C263.626 145.604 262.728 144.283 261.007 144.263C259.285 144.242 257.392 145.53 256.779 147.138C256.165 148.746 257.063 150.067 258.784 150.087Z" fill="white"/>
<path d="M257.244 157.604C258.621 157.621 260.136 156.591 260.627 155.304C261.118 154.017 260.399 152.961 259.022 152.945C257.645 152.928 256.131 153.958 255.639 155.245C255.148 156.532 255.867 157.588 257.244 157.604Z" fill="white"/>
<path d="M271.62 168.963C273.341 168.983 275.234 167.696 275.848 166.088C276.462 164.479 275.564 163.159 273.843 163.138C272.121 163.118 270.228 164.405 269.614 166.014C269 167.622 269.898 168.943 271.62 168.963Z" fill="white"/>
<path d="M276.716 152.127C278.782 152.151 281.054 150.606 281.79 148.676C282.527 146.746 281.449 145.162 279.384 145.137C277.318 145.112 275.046 146.657 274.31 148.587C273.573 150.517 274.651 152.102 276.716 152.127Z" fill="white"/>
<path d="M273.758 161.039C275.824 161.064 278.095 159.519 278.832 157.589C279.568 155.659 278.491 154.074 276.425 154.05C274.36 154.025 272.088 155.57 271.351 157.5C270.615 159.43 271.692 161.015 273.758 161.039Z" fill="white"/>
</g>
<path d="M457.526 180.796L429.146 185.29C424.782 185.981 421.804 190.079 422.495 194.443L426.989 222.823C427.68 227.187 431.777 230.164 436.141 229.473L464.522 224.98C468.885 224.289 471.863 220.191 471.172 215.827L466.679 187.447C465.988 183.083 461.89 180.106 457.526 180.796Z" fill="white"/>
<mask id="mask6_2290_15917" style="mask-type:luminance" maskUnits="userSpaceOnUse" x="429" y="187" width="36" height="36">
<path d="M459.616 187.541L429.24 192.351L434.049 222.727L464.426 217.917L459.616 187.541Z" fill="white"/>
</mask>
<g mask="url(#mask6_2290_15917)">
<path d="M462.021 202.729C463.349 211.117 457.626 218.993 449.238 220.321C440.85 221.65 432.973 215.926 431.645 207.538C430.317 199.15 436.04 191.273 444.428 189.945C452.817 188.617 460.693 194.341 462.021 202.729Z" fill="#1D2633"/>
<path d="M458.729 207.225C459.242 207.144 459.686 207.585 459.568 208.09C458.399 213.12 454.291 217.186 448.877 218.043C443.463 218.9 438.3 216.302 435.634 211.88C435.366 211.435 435.652 210.879 436.165 210.798L458.729 207.225Z" fill="#EDEBDE"/>
<path d="M458.032 198.387C458.3 198.832 458.014 199.388 457.501 199.469L434.937 203.042C434.424 203.123 433.98 202.682 434.098 202.176C435.267 197.147 439.375 193.081 444.789 192.223C450.203 191.366 455.366 193.965 458.032 198.387Z" fill="#EDEBDE"/>
<path d="M457.991 202.257C458.844 202.122 459.35 202.652 459.459 203.342L459.664 204.637L458.771 204.778L458.591 203.637C458.541 203.325 458.386 203.085 458.059 203.137C457.732 203.188 457.663 203.464 457.713 203.776L457.893 204.917L457 205.059L456.82 203.918C456.77 203.605 456.62 203.364 456.293 203.416C455.966 203.468 455.892 203.744 455.942 204.057L456.122 205.198L455.229 205.339L455.024 204.044C454.915 203.355 455.233 202.694 456.086 202.559C456.552 202.485 456.919 202.615 457.12 202.894C457.236 202.565 457.564 202.325 457.991 202.257Z" fill="#EDEBDE"/>
<path d="M453.499 204.799C453.787 204.754 453.869 204.471 453.82 204.159L453.644 203.047L454.537 202.906L454.73 204.126C454.846 204.856 454.515 205.528 453.637 205.667C452.759 205.806 452.236 205.269 452.121 204.54L451.928 203.319L452.82 203.178L452.996 204.289C453.046 204.602 453.212 204.845 453.499 204.799Z" fill="#EDEBDE"/>
<path d="M451.02 206.087C450.459 206.176 450.066 206.039 449.793 205.696L450.381 205.232C450.495 205.377 450.642 205.435 450.865 205.399C451.049 205.37 451.123 205.292 451.11 205.213C451.062 204.91 449.801 205.425 449.649 204.463C449.575 203.997 449.912 203.557 450.587 203.45C451.177 203.357 451.545 203.593 451.733 203.848L451.146 204.317C451.068 204.177 450.886 204.115 450.717 204.141C450.588 204.162 450.527 204.227 450.539 204.302C450.588 204.609 451.852 204.119 452 205.052C452.083 205.573 451.625 205.991 451.02 206.087Z" fill="#EDEBDE"/>
<path d="M448.068 207.642L447.175 207.784L446.797 205.398C446.677 204.639 447.161 203.998 447.954 203.872C448.728 203.749 449.412 204.246 449.526 204.966C449.651 205.759 449.209 206.368 448.42 206.493C448.237 206.522 448.044 206.497 447.877 206.437L448.068 207.642ZM448.238 205.663C448.521 205.618 448.674 205.37 448.634 205.112C448.592 204.849 448.37 204.666 448.087 204.71C447.804 204.755 447.649 204.998 447.691 205.261C447.732 205.519 447.955 205.708 448.238 205.663Z" fill="#EDEBDE"/>
<path d="M445.666 204.042C445.373 204.088 445.091 203.884 445.045 203.591C444.999 203.299 445.203 203.017 445.496 202.971C445.789 202.924 446.07 203.129 446.117 203.422C446.163 203.714 445.958 203.996 445.666 204.042ZM445.261 204.376L446.154 204.234L446.547 206.715L445.654 206.856L445.261 204.376Z" fill="#EDEBDE"/>
<path d="M443.952 207.201C443.178 207.323 442.494 206.821 442.379 206.097C442.265 205.378 442.761 204.689 443.535 204.567C444.309 204.444 444.994 204.946 445.107 205.665C445.222 206.389 444.726 207.078 443.952 207.201ZM443.819 206.362C444.102 206.318 444.256 206.069 444.215 205.812C444.174 205.549 443.951 205.36 443.668 205.405C443.385 205.45 443.231 205.698 443.273 205.961C443.314 206.219 443.537 206.407 443.819 206.362Z" fill="#EDEBDE"/>
<path d="M441.083 208.825C440.467 208.922 439.978 208.72 439.673 208.27L440.349 207.756C440.455 207.912 440.631 208.062 440.939 208.014C441.261 207.963 441.442 207.725 441.411 207.364C441.308 207.487 441.132 207.596 440.849 207.641C440.16 207.75 439.52 207.308 439.402 206.563C439.288 205.844 439.786 205.165 440.56 205.043C441.354 204.917 442.011 205.377 442.132 206.136L442.287 207.119C442.428 208.012 441.901 208.695 441.083 208.825ZM440.821 206.786C441.089 206.744 441.263 206.528 441.22 206.255C441.177 205.988 440.946 205.841 440.678 205.884C440.415 205.925 440.235 206.137 440.277 206.405C440.32 206.677 440.558 206.828 440.821 206.786Z" fill="#EDEBDE"/>
<path d="M438.097 208.128C437.323 208.25 436.639 207.748 436.524 207.024C436.41 206.305 436.906 205.616 437.68 205.494C438.454 205.371 439.139 205.873 439.253 206.592C439.367 207.316 438.871 208.005 438.097 208.128ZM437.965 207.289C438.247 207.245 438.401 206.996 438.36 206.739C438.319 206.476 438.096 206.287 437.813 206.332C437.53 206.377 437.376 206.625 437.418 206.888C437.459 207.146 437.682 207.334 437.965 207.289Z" fill="#EDEBDE"/>
<path d="M434.565 205.179L434.962 207.684L436.44 207.45L436.574 208.294L434.971 208.547C434.406 208.637 434.13 208.375 434.056 207.904L433.647 205.325L434.565 205.179Z" fill="#EDEBDE"/>
<path d="M442.543 192.785C443.261 192.536 444.012 192.347 444.789 192.223C445.566 192.1 446.339 192.049 447.099 192.063L448.497 200.895L443.941 201.616L442.543 192.785Z" fill="#AC2828"/>
<path d="M449.726 208.651L445.169 209.372C445.473 211.355 445.423 213.376 445.021 215.342L444.478 217.994C445.893 218.253 447.376 218.281 448.877 218.043C450.379 217.806 451.78 217.321 453.045 216.637L451.71 214.283C450.721 212.537 450.049 210.63 449.726 208.651Z" fill="#AC2828"/>
<path d="M447.099 192.063C448.794 192.096 450.43 192.458 451.933 193.097L453.054 200.173L448.497 200.895L447.099 192.063Z" fill="#306A9F"/>
<path d="M453.045 216.638C455.002 215.582 456.636 214.049 457.817 212.219L457.571 212.112C455.839 211.36 454.604 209.787 454.282 207.93L449.726 208.652C450.049 210.631 450.721 212.538 451.71 214.284L453.045 216.638Z" fill="#306A9F"/>
<path d="M438.264 195.261C439.497 194.189 440.941 193.339 442.543 192.785L443.941 201.616L439.384 202.338L438.264 195.261Z" fill="#DEB038"/>
<path d="M440.612 210.094L445.169 209.372C445.471 211.346 445.423 213.359 445.026 215.317L444.478 217.994C442.291 217.593 440.264 216.641 438.575 215.265L438.776 215.087C440.191 213.836 440.879 211.959 440.612 210.094Z" fill="#DEB038"/>
</g>
<path d="M435.715 256.035C471.238 256.035 500.035 227.237 500.035 191.715C500.035 156.192 471.238 127.395 435.715 127.395C400.192 127.395 371.395 156.192 371.395 191.715C371.395 227.237 400.192 256.035 435.715 256.035Z" fill="#238D9D"/>
<path d="M425.239 189.777C437.871 183.736 447.757 173.483 453.432 160.668C449.771 156.824 445.011 154.078 439.885 152.43L437.139 151.515C436.956 151.881 436.773 152.43 436.773 152.796C432.379 165.245 423.408 175.314 411.325 180.989C402.904 185.017 396.68 192.34 393.75 201.128L392.835 203.874C393.201 204.057 393.75 204.24 394.116 204.24C397.595 205.521 401.073 207.169 404.369 209.183C408.945 200.945 416.268 193.988 425.239 189.777Z" fill="white"/>
<path d="M467.966 172.954C461.193 183.207 451.856 191.445 440.322 196.937C430.986 201.331 423.846 209.569 420.55 219.455L419.635 222.568C423.113 225.68 427.324 228.06 431.901 229.524L434.647 230.44C434.83 230.074 435.013 229.524 435.013 229.158C439.407 216.709 448.378 206.64 460.46 200.965C468.882 196.937 475.289 189.614 478.036 180.827L478.951 178.081C475.106 176.982 471.445 175.151 467.966 172.954Z" fill="white"/>
<path d="M823 98H0V255H823V98Z" fill="url(#paint0_linear_2290_15917)"/>
</g>
</g>
<defs>
<linearGradient id="paint0_linear_2290_15917" x1="411.5" y1="98" x2="411.5" y2="255" gradientUnits="userSpaceOnUse">
<stop stop-color="#FCFCFC" stop-opacity="0"/>
<stop offset="1" stop-color="#FCFCFC"/>
</linearGradient>
<clipPath id="clip0_2290_15917">
<rect width="823" height="255" fill="white"/>
</clipPath>
</defs>
</svg>
