<svg width="329" height="120" viewBox="0 0 329 120" fill="none" xmlns="http://www.w3.org/2000/svg">
<g clip-path="url(#clip0_380_12402)">
<g clip-path="url(#paint0_diamond_380_12402_clip_path)" data-figma-skip-parse="true"><g transform="matrix(0.1875 0.1745 -0.499231 0.20081 119.5 -43)"><rect x="0" y="0" width="995.004" height="414.989" fill="url(#paint0_diamond_380_12402)" opacity="1" shape-rendering="crispEdges"/><rect x="0" y="0" width="995.004" height="414.989" transform="scale(1 -1)" fill="url(#paint0_diamond_380_12402)" opacity="1" shape-rendering="crispEdges"/><rect x="0" y="0" width="995.004" height="414.989" transform="scale(-1 1)" fill="url(#paint0_diamond_380_12402)" opacity="1" shape-rendering="crispEdges"/><rect x="0" y="0" width="995.004" height="414.989" transform="scale(-1)" fill="url(#paint0_diamond_380_12402)" opacity="1" shape-rendering="crispEdges"/></g></g><rect width="329" height="120" rx="16" data-figma-gradient-fill="{&#34;type&#34;:&#34;GRADIENT_DIAMOND&#34;,&#34;stops&#34;:[{&#34;color&#34;:{&#34;r&#34;:0.36862745881080627,&#34;g&#34;:1.0,&#34;b&#34;:0.76078432798385620,&#34;a&#34;:1.0},&#34;position&#34;:0.0},{&#34;color&#34;:{&#34;r&#34;:0.17647059261798859,&#34;g&#34;:0.85098040103912354,&#34;b&#34;:0.59607845544815063,&#34;a&#34;:1.0},&#34;position&#34;:0.16031187772750854},{&#34;color&#34;:{&#34;r&#34;:0.13725490868091583,&#34;g&#34;:0.59607845544815063,&#34;b&#34;:0.33333334326744080,&#34;a&#34;:1.0},&#34;position&#34;:0.27563071250915527},{&#34;color&#34;:{&#34;r&#34;:0.087999999523162842,&#34;g&#34;:0.40000000596046448,&#34;b&#34;:0.22133333981037140,&#34;a&#34;:1.0},&#34;position&#34;:0.4531250},{&#34;color&#34;:{&#34;r&#34;:0.043999999761581421,&#34;g&#34;:0.20000000298023224,&#34;b&#34;:0.11066666245460510,&#34;a&#34;:1.0},&#34;position&#34;:0.718750},{&#34;color&#34;:{&#34;r&#34;:0.0,&#34;g&#34;:0.0,&#34;b&#34;:0.0,&#34;a&#34;:1.0},&#34;position&#34;:1.0}],&#34;stopsVar&#34;:[{&#34;color&#34;:{&#34;r&#34;:0.36862745881080627,&#34;g&#34;:1.0,&#34;b&#34;:0.76078432798385620,&#34;a&#34;:1.0},&#34;position&#34;:0.0},{&#34;color&#34;:{&#34;r&#34;:0.17647059261798859,&#34;g&#34;:0.85098040103912354,&#34;b&#34;:0.59607845544815063,&#34;a&#34;:1.0},&#34;position&#34;:0.16031187772750854},{&#34;color&#34;:{&#34;r&#34;:0.13725490868091583,&#34;g&#34;:0.59607845544815063,&#34;b&#34;:0.33333334326744080,&#34;a&#34;:1.0},&#34;position&#34;:0.27563071250915527},{&#34;color&#34;:{&#34;r&#34;:0.087999999523162842,&#34;g&#34;:0.40000000596046448,&#34;b&#34;:0.22133333981037140,&#34;a&#34;:1.0},&#34;position&#34;:0.4531250},{&#34;color&#34;:{&#34;r&#34;:0.043999999761581421,&#34;g&#34;:0.20000000298023224,&#34;b&#34;:0.11066666245460510,&#34;a&#34;:1.0},&#34;position&#34;:0.718750},{&#34;color&#34;:{&#34;r&#34;:0.0,&#34;g&#34;:0.0,&#34;b&#34;:0.0,&#34;a&#34;:1.0},&#34;position&#34;:1.0}],&#34;transform&#34;:{&#34;m00&#34;:375.0,&#34;m01&#34;:-998.46209716796875,&#34;m02&#34;:431.23104858398438,&#34;m10&#34;:349.0,&#34;m11&#34;:401.62030029296875,&#34;m12&#34;:-418.31015014648438},&#34;opacity&#34;:1.0,&#34;blendMode&#34;:&#34;NORMAL&#34;,&#34;visible&#34;:true}"/>
<mask id="path-2-inside-1_380_12402" fill="white">
<path d="M58.962 15.1452C44.9456 11.4771 33.0049 12.1403 23.962 16.3034L22.1534 13.653L14.7159 22.7604C13.4464 24.0553 12.2936 25.4653 11.2647 26.986L11.0831 27.2087V27.2604C4.81207 36.745 3.2631 50.4232 7.79207 66.9265C18.4341 105.705 58.5972 145.394 97.4991 155.575L100.835 156.448C139.737 166.629 162.647 143.445 152.005 104.667C141.363 65.8882 101.199 26.199 62.297 16.0183L58.962 15.1452Z"/>
</mask>
<path d="M58.962 15.1452C44.9456 11.4771 33.0049 12.1403 23.962 16.3034L22.1534 13.653L14.7159 22.7604C13.4464 24.0553 12.2936 25.4653 11.2647 26.986L11.0831 27.2087V27.2604C4.81207 36.745 3.2631 50.4232 7.79207 66.9265C18.4341 105.705 58.5972 145.394 97.4991 155.575L100.835 156.448C139.737 166.629 162.647 143.445 152.005 104.667C141.363 65.8882 101.199 26.199 62.297 16.0183L58.962 15.1452Z" fill="url(#paint1_linear_380_12402)"/>
<path d="M58.962 15.1452L59.2265 14.1346L59.2266 14.1346L58.962 15.1452ZM23.962 16.3034L24.3989 17.2524L23.5968 17.6216L23.0991 16.8923L23.962 16.3034ZM22.1534 13.653L21.3442 12.9922L22.2284 11.9095L23.0163 13.0642L22.1534 13.653ZM14.7159 22.7604L15.5251 23.4212L15.4951 23.458L15.4619 23.4918L14.7159 22.7604ZM11.2647 26.986L12.13 27.5714L12.1038 27.6102L12.0742 27.6464L11.2647 26.986ZM11.0831 27.2087H10.0384V26.8366L10.2736 26.5483L11.0831 27.2087ZM11.0831 27.2604H12.1278V27.5746L11.9545 27.8366L11.0831 27.2604ZM7.79207 66.9265L6.78463 67.2029L6.78463 67.2029L7.79207 66.9265ZM97.4991 155.575L97.7636 154.564L97.7636 154.564L97.4991 155.575ZM100.835 156.448L100.571 157.459L100.571 157.459L100.835 156.448ZM152.005 104.667L153.012 104.39L153.012 104.39L152.005 104.667ZM62.297 16.0183L62.0325 17.0289L62.0324 17.0289L62.297 16.0183ZM58.962 15.1452L58.6975 16.1559C44.8401 12.5294 33.1609 13.2186 24.3989 17.2524L23.962 16.3034L23.5251 15.3545C32.8489 11.062 45.051 10.4248 59.2265 14.1346L58.962 15.1452ZM23.962 16.3034L23.0991 16.8923L21.2905 14.2419L22.1534 13.653L23.0163 13.0642L24.8249 15.7146L23.962 16.3034ZM22.1534 13.653L22.9626 14.3138L15.5251 23.4212L14.7159 22.7604L13.9067 22.0997L21.3442 12.9922L22.1534 13.653ZM14.7159 22.7604L15.4619 23.4918C14.2366 24.7415 13.1237 26.1027 12.13 27.5714L11.2647 26.986L10.3995 26.4006C11.4635 24.828 12.6561 23.3691 13.9699 22.0291L14.7159 22.7604ZM11.2647 26.986L12.0742 27.6464L11.8926 27.8691L11.0831 27.2087L10.2736 26.5483L10.4552 26.3257L11.2647 26.986ZM11.0831 27.2087H12.1278V27.2604H11.0831H10.0384V27.2087H11.0831ZM11.0831 27.2604L11.9545 27.8366C5.90248 36.99 4.32085 50.33 8.79952 66.65L7.79207 66.9265L6.78463 67.2029C2.20535 50.5164 3.72166 36.5 10.2117 26.6843L11.0831 27.2604ZM7.79207 66.9265L8.79952 66.65C14.0606 85.8207 26.6446 105.284 42.7825 121.232C58.9204 137.179 78.5318 149.531 97.7636 154.564L97.4991 155.575L97.2346 156.586C77.5646 151.438 57.6435 138.855 41.3138 122.718C24.9842 106.581 12.1656 86.8105 6.78463 67.2029L7.79207 66.9265ZM97.4991 155.575L97.7636 154.564L101.1 155.437L100.835 156.448L100.571 157.459L97.2346 156.586L97.4991 155.575ZM100.835 156.448L101.1 155.437C120.338 160.472 135.351 157.194 144.256 148.183C153.161 139.171 156.26 124.121 150.998 104.943L152.005 104.667L153.012 104.39C158.392 123.991 155.357 139.922 145.742 149.651C136.127 159.381 120.234 162.605 100.571 157.459L100.835 156.448ZM152.005 104.667L150.998 104.943C145.736 85.7724 133.152 66.3089 117.014 50.3614C100.876 34.4139 81.2644 22.0619 62.0325 17.0289L62.297 16.0183L62.5614 15.0076C82.2316 20.1553 102.153 32.7383 118.483 48.8752C134.813 65.0122 147.631 84.7826 153.012 104.39L152.005 104.667ZM62.297 16.0183L62.0324 17.0289L58.6974 16.1558L58.962 15.1452L59.2266 14.1346L62.5615 15.0076L62.297 16.0183Z" fill="url(#paint2_linear_380_12402)" mask="url(#path-2-inside-1_380_12402)"/>
<rect x="-0.367093" y="0.371478" width="144.577" height="148.025" rx="72.2883" transform="matrix(0.264645 0.964346 -0.967421 -0.253175 140.801 27.6965)" fill="url(#paint3_linear_380_12402)" stroke="url(#paint4_linear_380_12402)" stroke-width="1.04469"/>
<rect x="-0.297777" y="0.301334" width="146.151" height="149.205" rx="73.0754" transform="matrix(0.264645 0.964346 -0.967421 -0.253175 142.669 24.198)" fill="url(#paint5_radial_380_12402)"/>
<rect x="-0.297777" y="0.301334" width="146.151" height="149.205" rx="73.0754" transform="matrix(0.264645 0.964346 -0.967421 -0.253175 142.669 24.198)" stroke="url(#paint6_linear_380_12402)" stroke-width="0.847432"/>
<rect x="-0.297777" y="0.301334" width="146.151" height="149.205" rx="73.0754" transform="matrix(0.264645 0.964346 -0.967421 -0.253175 142.669 24.198)" stroke="url(#paint7_linear_380_12402)" stroke-width="0.847432"/>
<path d="M79.5783 45.7972L79.5829 45.7997C84.2076 47.7914 88.846 50.5537 92.9355 53.9774C92.0456 63.0874 86.9745 69.6057 78.4156 72.4774C72.2645 74.4702 68.2688 78.819 66.8786 84.5674C63.6266 82.5785 60.3428 80.8353 57.163 79.3616L57.094 79.3291L57.0286 79.3175C56.8746 79.2903 56.6156 79.1903 56.3593 79.0712L56.2992 77.3215C56.0783 70.8958 59.0052 66.0938 64.7181 64.1768C73.1317 61.4474 77.5884 54.7579 77.474 45.4984L77.4738 45.4465L77.451 45.3872C77.3951 45.2414 77.3695 45.0275 77.371 44.8283L79.5783 45.7972Z" fill="url(#paint8_linear_380_12402)" stroke="#238D9D" stroke-width="0.736897"/>
<path d="M109.449 66.2979C112.781 68.3792 116.158 70.2315 119.487 71.6165L119.547 73.3338L119.547 73.3398C119.918 79.7835 116.845 84.5605 111.129 86.4786C102.715 89.208 98.2572 95.8972 98.3718 105.157L98.3729 105.209L98.3957 105.268C98.4516 105.414 98.4753 105.627 98.4738 105.827L96.2674 104.858L96.2629 104.856L95.4754 104.509C91.6238 102.777 87.8169 100.499 84.3283 97.8306L84.164 95.7208C83.923 88.7089 87.117 83.4312 93.1033 81.2246L93.6912 81.0206L93.6918 81.0198C101.588 78.3923 106.867 73.3136 109.449 66.2979Z" fill="url(#paint9_linear_380_12402)" stroke="#238D9D" stroke-width="0.736897"/>
</g>
<defs>
<clipPath id="paint0_diamond_380_12402_clip_path"><rect width="329" height="120" rx="16"/></clipPath><linearGradient id="paint0_diamond_380_12402" x1="0" y1="0" x2="500" y2="500" gradientUnits="userSpaceOnUse">
<stop stop-color="#5EFFC2"/>
<stop offset="0.160312" stop-color="#2DD998"/>
<stop offset="0.275631" stop-color="#239855"/>
<stop offset="0.453125" stop-color="#166638"/>
<stop offset="0.71875" stop-color="#0B331C"/>
<stop offset="1"/>
</linearGradient>
<linearGradient id="paint1_linear_380_12402" x1="113.547" y1="169.545" x2="-25.4006" y2="17.0423" gradientUnits="userSpaceOnUse">
<stop offset="0.0298615"/>
<stop offset="0.0689637" stop-color="#05633B"/>
<stop offset="0.117297" stop-color="#074F30"/>
<stop offset="0.357888" stop-color="#238D9D"/>
<stop offset="0.532047" stop-color="#05633B"/>
<stop offset="0.557944" stop-color="#36DE9D"/>
<stop offset="0.585383" stop-color="#05633B"/>
<stop offset="0.625647" stop-color="#074F30"/>
<stop offset="0.677455" stop-color="#084026"/>
<stop offset="0.724833" stop-color="#238D9D"/>
<stop offset="0.765276" stop-color="#5EFFC2"/>
<stop offset="0.81218" stop-color="#2DD998"/>
<stop offset="0.831945" stop-color="#BEFFE6"/>
<stop offset="0.839783" stop-color="white"/>
</linearGradient>
<linearGradient id="paint2_linear_380_12402" x1="113.257" y1="158.716" x2="13.2227" y2="29.3901" gradientUnits="userSpaceOnUse">
<stop stop-color="#061D0F"/>
<stop offset="0.490385" stop-color="#8CC2AC" stop-opacity="0.5"/>
<stop offset="1" stop-color="#BEFFE6"/>
</linearGradient>
<linearGradient id="paint3_linear_380_12402" x1="127.049" y1="54.2748" x2="36.2408" y2="155.341" gradientUnits="userSpaceOnUse">
<stop offset="0.0298615"/>
<stop offset="0.0689637" stop-color="#051F0F"/>
<stop offset="0.117297" stop-color="#04371D"/>
<stop offset="0.532047" stop-color="#065935"/>
<stop offset="0.557944" stop-color="#068050"/>
<stop offset="0.585383" stop-color="#09915C"/>
<stop offset="0.625647" stop-color="#065935"/>
<stop offset="0.677455" stop-color="#04371D"/>
<stop offset="0.724833" stop-color="#065935"/>
<stop offset="0.765276" stop-color="#24A65C"/>
<stop offset="0.81218" stop-color="#229C56"/>
<stop offset="0.878837" stop-color="#59CA9F"/>
<stop offset="0.914219" stop-color="#B2DEC4"/>
<stop offset="0.932061" stop-color="white"/>
</linearGradient>
<linearGradient id="paint4_linear_380_12402" x1="145.621" y1="74.5347" x2="0" y2="74.5347" gradientUnits="userSpaceOnUse">
<stop stop-color="#000702"/>
<stop offset="0.456731" stop-color="#BEFFE6"/>
<stop offset="1" stop-color="#BEFFE6" stop-opacity="0"/>
</linearGradient>
<radialGradient id="paint5_radial_380_12402" cx="0" cy="0" r="1" gradientUnits="userSpaceOnUse" gradientTransform="translate(-2.25366 106.822) rotate(-59.0121) scale(158.968 534.136)">
<stop stop-color="white"/>
<stop offset="0.134042" stop-color="#BEFFE6"/>
<stop offset="0.331547" stop-color="#8EFFD4"/>
<stop offset="0.518827" stop-color="#2DD998"/>
<stop offset="0.716546" stop-color="#238D9D"/>
<stop offset="0.887916" stop-color="#0E4023"/>
<stop offset="1"/>
</radialGradient>
<linearGradient id="paint6_linear_380_12402" x1="8.76852" y1="104.137" x2="127.667" y2="20.4429" gradientUnits="userSpaceOnUse">
<stop offset="0.774055" stop-color="#BEFFE6" stop-opacity="0"/>
<stop offset="1" stop-color="#BEFFE6"/>
</linearGradient>
<linearGradient id="paint7_linear_380_12402" x1="-14.163" y1="68.5285" x2="69.3871" y2="12.2903" gradientUnits="userSpaceOnUse">
<stop stop-color="#BEFFE6"/>
<stop offset="1" stop-color="white" stop-opacity="0"/>
</linearGradient>
<linearGradient id="paint8_linear_380_12402" x1="54.9378" y1="18.6184" x2="44.9638" y2="81.852" gradientUnits="userSpaceOnUse">
<stop offset="0.564255" stop-color="white"/>
<stop offset="1" stop-color="white" stop-opacity="0"/>
</linearGradient>
<linearGradient id="paint9_linear_380_12402" x1="83.2703" y1="39.4594" x2="73.3472" y2="102.508" gradientUnits="userSpaceOnUse">
<stop stop-color="white" stop-opacity="0"/>
<stop offset="1" stop-color="white"/>
</linearGradient>
<clipPath id="clip0_380_12402">
<rect width="329" height="120" rx="16" fill="white"/>
</clipPath>
</defs>
</svg>
