<svg width="120" height="40" viewBox="0 0 120 40" fill="none" xmlns="http://www.w3.org/2000/svg">
  <!-- Miles coin mark -->
  <circle cx="20" cy="20" r="18" fill="#238D9D"/>
  <circle cx="20" cy="20" r="14" fill="#1A7A8A"/>
  <!-- A-shape path from brand -->
  <path d="M15 23C18.5 21.2 21.5 18.2 23 14.8C22 13.7 20.6 12.9 19.1 12.4L18.4 12.2C18.3 12.3 18.3 12.5 18.3 12.6C17.1 15.8 14.7 18.4 11.5 20C9.3 21.1 7.6 23.1 6.8 25.5L6.5 26.3C6.6 26.4 6.7 26.4 6.8 26.4C7.7 26.8 8.6 27.2 9.4 27.7C10.6 25.6 12.6 24.1 15 23Z" fill="white"/>
  <path d="M27.5 17.2C25.6 20 23.1 21.9 20.1 23.3C17.6 24.5 15.7 26.6 14.8 29.2L14.5 30.1C15.4 30.9 16.5 31.5 17.7 31.9L18.4 32.1C18.5 32 18.5 31.9 18.5 31.8C19.7 28.5 22.1 25.9 25.3 24.4C27.5 23.3 29.2 21.2 30 18.8L30.3 18C29.3 17.7 28.4 17.5 27.5 17.2Z" fill="white"/>
  <!-- Wordmark -->
  <text x="46" y="26" font-family="system-ui, -apple-system, sans-serif" font-weight="700" font-size="15" fill="#238D9D" letter-spacing="-0.3">AkibaMiles</text>
</svg>
