<svg width="30" height="33" viewBox="0 0 30 33" fill="none" xmlns="http://www.w3.org/2000/svg">
<path d="M4.03165 32.2222C3.02594 32.2222 2.16529 31.8644 1.44971 31.1488C0.732911 30.432 0.374512 29.5707 0.374512 28.565V12.1079C0.374512 11.5288 0.50434 10.9803 0.763997 10.4622C1.02244 9.94407 1.38023 9.51741 1.83737 9.18217L12.8088 0.953597C13.144 0.709787 13.4945 0.52693 13.8602 0.405025C14.2259 0.28312 14.6069 0.222168 15.0031 0.222168C15.3993 0.222168 15.7802 0.28312 16.1459 0.405025C16.5117 0.52693 16.8621 0.709787 17.1974 0.953597L28.1688 9.18217C28.6259 9.51741 28.9843 9.94407 29.244 10.4622C29.5024 10.9803 29.6317 11.5288 29.6317 12.1079V28.565C29.6317 29.5707 29.2739 30.432 28.5583 31.1488C27.8415 31.8644 26.9802 32.2222 25.9745 32.2222H18.6602V19.4222H11.3459V32.2222H4.03165Z" fill="white"/>
</svg>