<svg width="25" height="24" viewBox="0 0 25 24" fill="none" xmlns="http://www.w3.org/2000/svg">
<path opacity="0.2" d="M21.25 18.75C21.4489 18.75 21.6397 18.671 21.7803 18.5303C21.921 18.3897 22 18.1989 22 18V15C21.2044 15 20.4413 14.6839 19.8787 14.1213C19.3161 13.5587 19 12.7956 19 12C19 11.2044 19.3161 10.4413 19.8787 9.87868C20.4413 9.31607 21.2044 9 22 9V6C22 5.80109 21.921 5.61032 21.7803 5.46967C21.6397 5.32902 21.4489 5.25 21.25 5.25H9.25V18.75H21.25Z" fill="white"/>
<path d="M9.25 5.25V18.75" stroke="white" stroke-width="1.5" stroke-linecap="round" stroke-linejoin="round"/>
<path d="M2.5 15C3.29565 15 4.05871 14.6839 4.62132 14.1213C5.18393 13.5587 5.5 12.7956 5.5 12C5.5 11.2044 5.18393 10.4413 4.62132 9.87868C4.05871 9.31607 3.29565 9 2.5 9V6C2.5 5.80109 2.57902 5.61032 2.71967 5.46967C2.86032 5.32902 3.05109 5.25 3.25 5.25H21.25C21.4489 5.25 21.6397 5.32902 21.7803 5.46967C21.921 5.61032 22 5.80109 22 6V9C21.2044 9 20.4413 9.31607 19.8787 9.87868C19.3161 10.4413 19 11.2044 19 12C19 12.7956 19.3161 13.5587 19.8787 14.1213C20.4413 14.6839 21.2044 15 22 15V18C22 18.1989 21.921 18.3897 21.7803 18.5303C21.6397 18.671 21.4489 18.75 21.25 18.75H3.25C3.05109 18.75 2.86032 18.671 2.71967 18.5303C2.57902 18.3897 2.5 18.1989 2.5 18V15Z" stroke="white" stroke-width="1.5" stroke-linecap="round" stroke-linejoin="round"/>
</svg>