<svg width="32" height="32" viewBox="0 0 32 32" fill="none" xmlns="http://www.w3.org/2000/svg">
  <circle cx="16" cy="16" r="16" fill="#238D9D"/>
  <circle cx="16" cy="16" r="12" fill="#1A7A8A"/>
  <path d="M13.4 15.5C16.5 14 19 11.5 20.4 8.3C19.5 7.3 18.3 6.6 17 6.2L16.4 6C16.3 6.1 16.3 6.2 16.3 6.3C15.2 9.4 12.9 11.9 9.9 13.3C7.8 14.3 6.3 16.2 5.6 18.3L5.3 19.1C5.4 19.2 5.6 19.2 5.7 19.2C6.5 19.4 7.4 19.8 8.2 20.3C9.3 18.3 11.2 16.6 13.4 15.5Z" fill="white"/>
  <path d="M24 11.3C22.3 13.9 20 15.9 17.1 17.3C14.8 18.4 13.1 20.4 12.2 23L12 23.7C12.9 24.4 13.9 25 15.1 25.4L15.7 25.6C15.8 25.5 15.8 25.4 15.8 25.3C16.9 22.2 19.1 19.7 22.2 18.3C24.3 17.3 25.8 15.5 26.5 13.3L26.8 12.6C25.8 12.3 24.9 11.8 24 11.3Z" fill="white"/>
</svg>
