<svg width="329" height="120" viewBox="0 0 329 120" fill="none" xmlns="http://www.w3.org/2000/svg">
<g clip-path="url(#clip0_380_12336)">
<g clip-path="url(#paint0_diamond_380_12336_clip_path)" data-figma-skip-parse="true"><g transform="matrix(0.1875 0.1745 -0.499231 0.20081 119.5 -43)"><rect x="0" y="0" width="995.004" height="414.989" fill="url(#paint0_diamond_380_12336)" opacity="1" shape-rendering="crispEdges"/><rect x="0" y="0" width="995.004" height="414.989" transform="scale(1 -1)" fill="url(#paint0_diamond_380_12336)" opacity="1" shape-rendering="crispEdges"/><rect x="0" y="0" width="995.004" height="414.989" transform="scale(-1 1)" fill="url(#paint0_diamond_380_12336)" opacity="1" shape-rendering="crispEdges"/><rect x="0" y="0" width="995.004" height="414.989" transform="scale(-1)" fill="url(#paint0_diamond_380_12336)" opacity="1" shape-rendering="crispEdges"/></g></g><rect width="329" height="120" rx="16" data-figma-gradient-fill="{&#34;type&#34;:&#34;GRADIENT_DIAMOND&#34;,&#34;stops&#34;:[{&#34;color&#34;:{&#34;r&#34;:0.36862745881080627,&#34;g&#34;:1.0,&#34;b&#34;:0.76078432798385620,&#34;a&#34;:1.0},&#34;position&#34;:0.0},{&#34;color&#34;:{&#34;r&#34;:0.17647059261798859,&#34;g&#34;:0.85098040103912354,&#34;b&#34;:0.59607845544815063,&#34;a&#34;:1.0},&#34;position&#34;:0.16031187772750854},{&#34;color&#34;:{&#34;r&#34;:0.13725490868091583,&#34;g&#34;:0.59607845544815063,&#34;b&#34;:0.33333334326744080,&#34;a&#34;:1.0},&#34;position&#34;:0.27563071250915527},{&#34;color&#34;:{&#34;r&#34;:0.087999999523162842,&#34;g&#34;:0.40000000596046448,&#34;b&#34;:0.22133333981037140,&#34;a&#34;:1.0},&#34;position&#34;:0.4531250},{&#34;color&#34;:{&#34;r&#34;:0.043999999761581421,&#34;g&#34;:0.20000000298023224,&#34;b&#34;:0.11066666245460510,&#34;a&#34;:1.0},&#34;position&#34;:0.718750},{&#34;color&#34;:{&#34;r&#34;:0.0,&#34;g&#34;:0.0,&#34;b&#34;:0.0,&#34;a&#34;:1.0},&#34;position&#34;:1.0}],&#34;stopsVar&#34;:[{&#34;color&#34;:{&#34;r&#34;:0.36862745881080627,&#34;g&#34;:1.0,&#34;b&#34;:0.76078432798385620,&#34;a&#34;:1.0},&#34;position&#34;:0.0},{&#34;color&#34;:{&#34;r&#34;:0.17647059261798859,&#34;g&#34;:0.85098040103912354,&#34;b&#34;:0.59607845544815063,&#34;a&#34;:1.0},&#34;position&#34;:0.16031187772750854},{&#34;color&#34;:{&#34;r&#34;:0.13725490868091583,&#34;g&#34;:0.59607845544815063,&#34;b&#34;:0.33333334326744080,&#34;a&#34;:1.0},&#34;position&#34;:0.27563071250915527},{&#34;color&#34;:{&#34;r&#34;:0.087999999523162842,&#34;g&#34;:0.40000000596046448,&#34;b&#34;:0.22133333981037140,&#34;a&#34;:1.0},&#34;position&#34;:0.4531250},{&#34;color&#34;:{&#34;r&#34;:0.043999999761581421,&#34;g&#34;:0.20000000298023224,&#34;b&#34;:0.11066666245460510,&#34;a&#34;:1.0},&#34;position&#34;:0.718750},{&#34;color&#34;:{&#34;r&#34;:0.0,&#34;g&#34;:0.0,&#34;b&#34;:0.0,&#34;a&#34;:1.0},&#34;position&#34;:1.0}],&#34;transform&#34;:{&#34;m00&#34;:375.0,&#34;m01&#34;:-998.46209716796875,&#34;m02&#34;:431.23104858398438,&#34;m10&#34;:349.0,&#34;m11&#34;:401.62030029296875,&#34;m12&#34;:-418.31015014648438},&#34;opacity&#34;:1.0,&#34;blendMode&#34;:&#34;NORMAL&#34;,&#34;visible&#34;:true}"/>
<mask id="path-2-inside-1_380_12336" fill="white">
<path d="M60.7746 15.8C47.1364 12.2309 35.5186 12.8767 26.72 16.9279L24.9592 14.3478L17.7102 23.2248C16.4848 24.4764 15.3718 25.8386 14.3772 27.3068L14.1887 27.5373V27.59C8.08848 36.8181 6.58231 50.1259 10.9885 66.1818C21.343 103.912 60.4212 142.528 98.2717 152.434L101.517 153.283C139.368 163.189 161.658 140.632 151.304 102.902C140.949 65.1713 101.871 26.5551 64.0207 16.6496L60.7746 15.8Z"/>
</mask>
<path d="M60.7746 15.8C47.1364 12.2309 35.5186 12.8767 26.72 16.9279L24.9592 14.3478L17.7102 23.2248C16.4848 24.4764 15.3718 25.8386 14.3772 27.3068L14.1887 27.5373V27.59C8.08848 36.8181 6.58231 50.1259 10.9885 66.1818C21.343 103.912 60.4212 142.528 98.2717 152.434L101.517 153.283C139.368 163.189 161.658 140.632 151.304 102.902C140.949 65.1713 101.871 26.5551 64.0207 16.6496L60.7746 15.8Z" fill="url(#paint1_linear_380_12336)"/>
<path d="M60.7746 15.8L61.032 14.8166L61.032 14.8166L60.7746 15.8ZM26.72 16.9279L27.1451 17.8512L26.3647 18.2105L25.8804 17.5009L26.72 16.9279ZM24.9592 14.3478L24.1719 13.7049L25.0322 12.6515L25.7988 13.7748L24.9592 14.3478ZM17.7102 23.2248L18.4975 23.8677L18.4685 23.9031L18.4365 23.9358L17.7102 23.2248ZM14.3772 27.3068L15.2187 27.8769L15.193 27.9148L15.164 27.9503L14.3772 27.3068ZM14.1887 27.5373H13.1722V27.1746L13.4019 26.8938L14.1887 27.5373ZM14.1887 27.59H15.2052V27.8956L15.0366 28.1505L14.1887 27.59ZM10.9885 66.1818L10.0083 66.4508L10.0083 66.4508L10.9885 66.1818ZM98.2717 152.434L98.5291 151.45L98.5292 151.45L98.2717 152.434ZM101.517 153.283L101.259 154.267L101.259 154.267L101.517 153.283ZM151.304 102.902L152.284 102.633L152.284 102.633L151.304 102.902ZM64.0207 16.6496L63.7634 17.6329L63.7634 17.6329L64.0207 16.6496ZM60.7746 15.8L60.5173 16.7833C47.0338 13.2547 35.6704 13.9258 27.1451 17.8512L26.72 16.9279L26.2948 16.0046C35.3668 11.8276 47.239 11.207 61.032 14.8166L60.7746 15.8ZM26.72 16.9279L25.8804 17.5009L24.1196 14.9208L24.9592 14.3478L25.7988 13.7748L27.5595 16.3549L26.72 16.9279ZM24.9592 14.3478L25.7465 14.9907L18.4975 23.8677L17.7102 23.2248L16.9229 22.5818L24.1719 13.7049L24.9592 14.3478ZM17.7102 23.2248L18.4365 23.9358C17.254 25.1437 16.1794 26.4587 15.2187 27.8769L14.3772 27.3068L13.5356 26.7367C14.5641 25.2185 15.7157 23.809 16.9839 22.5137L17.7102 23.2248ZM14.3772 27.3068L15.164 27.9503L14.9755 28.1807L14.1887 27.5373L13.4019 26.8938L13.5903 26.6633L14.3772 27.3068ZM14.1887 27.5373H15.2052V27.59H14.1887H13.1722V27.5373H14.1887ZM14.1887 27.59L15.0366 28.1505C9.14942 37.0564 7.61146 50.0353 11.9687 65.9128L10.9885 66.1818L10.0083 66.4508C5.55316 50.2166 7.02754 36.5798 13.3408 27.0295L14.1887 27.59ZM10.9885 66.1818L11.9687 65.9128C17.0877 84.5654 29.3316 103.503 45.0335 119.019C60.7355 134.535 79.817 146.553 98.5291 151.45L98.2717 152.434L98.0144 153.417C78.8759 148.409 59.4931 136.166 43.6046 120.465C27.7162 104.764 15.2439 85.5285 10.0083 66.4508L10.9885 66.1818ZM98.2717 152.434L98.5292 151.45L101.774 152.3L101.517 153.283L101.259 154.267L98.0143 153.417L98.2717 152.434ZM101.517 153.283L101.774 152.3C120.493 157.199 135.1 154.009 143.764 145.241C152.429 136.474 155.444 121.83 150.324 103.171L151.304 102.902L152.284 102.633C157.518 121.704 154.565 137.204 145.21 146.67C135.855 156.137 120.392 159.274 101.259 154.267L101.517 153.283ZM151.304 102.902L150.324 103.171C145.205 84.5179 132.961 65.5806 117.259 50.0643C101.557 34.5479 82.4755 22.5299 63.7634 17.6329L64.0207 16.6496L64.2781 15.6662C83.4165 20.6748 102.799 32.9176 118.688 48.6183C134.576 64.3189 147.049 83.5549 152.284 102.633L151.304 102.902ZM64.0207 16.6496L63.7634 17.6329L60.5173 16.7833L60.7746 15.8L61.032 14.8166L64.2781 15.6662L64.0207 16.6496Z" fill="url(#paint2_linear_380_12336)" mask="url(#path-2-inside-1_380_12336)"/>
<rect x="-0.357171" y="0.361438" width="140.669" height="144.024" rx="70.3346" transform="matrix(0.264645 0.964346 -0.967421 -0.253175 140.402 28.0122)" fill="url(#paint3_linear_380_12336)" stroke="url(#paint4_linear_380_12336)" stroke-width="1.01646"/>
<rect x="-0.289729" y="0.29319" width="142.201" height="145.172" rx="71.1004" transform="matrix(0.264645 0.964346 -0.967421 -0.253175 142.219 24.6097)" fill="url(#paint5_radial_380_12336)"/>
<rect x="-0.289729" y="0.29319" width="142.201" height="145.172" rx="71.1004" transform="matrix(0.264645 0.964346 -0.967421 -0.253175 142.219 24.6097)" stroke="url(#paint6_linear_380_12336)" stroke-width="0.824528"/>
<rect x="-0.289729" y="0.29319" width="142.201" height="145.172" rx="71.1004" transform="matrix(0.264645 0.964346 -0.967421 -0.253175 142.219 24.6097)" stroke="url(#paint7_linear_380_12336)" stroke-width="0.824528"/>
<mask id="mask0_380_12336" style="mask-type:luminance" maskUnits="userSpaceOnUse" x="30" y="21" width="121" height="100">
<path d="M118.383 37.0591L30.2979 21.5273L62.3516 105.03L150.436 120.562L118.383 37.0591Z" fill="white"/>
</mask>
<g mask="url(#mask0_380_12336)">
<path d="M78.2223 59.8903C73.3724 61.6419 71.6211 66.8012 74.1783 73.463C77.8234 82.9583 88.9859 92.1584 99.0004 93.9242C106.027 95.1631 110.757 92.4613 111.551 87.3652L117.267 88.3732C117.119 96.1311 110.91 100.627 100.896 98.8611C87.9959 96.5865 73.6648 84.7733 68.9705 72.5448C65.3261 63.0508 68.5544 56.0969 76.1421 54.4712L78.2223 59.8903ZM103.871 74.3884L104.251 74.4103C107.442 74.5924 109.039 73.3123 108.097 70.8598C107.587 69.5293 106.577 68.4913 105.292 67.6451C104.035 66.8181 102.503 66.1641 100.888 65.552L100.41 65.3708L103.871 74.3884ZM91.8932 51.6377C90.2759 51.4961 89.0749 51.6933 88.3986 52.2557C87.7137 52.8255 87.585 53.7565 88.065 55.007C88.5896 56.3734 89.5784 57.4551 90.8538 58.3292C92.1013 59.1841 93.6136 59.8347 95.2191 60.4002L95.6798 60.563L92.2662 51.6703L91.8932 51.6377ZM97.2585 64.6757L96.9513 64.574C94.2442 63.6763 91.4989 62.6403 89.1321 61.0524C86.8018 59.4889 84.8054 57.3676 83.5968 54.2191C82.0335 50.1466 84.2502 47.4475 90.3204 47.8746L90.6201 47.896L89.4813 44.9293L93.0002 45.5498L94.1474 48.5383L94.4902 48.6115C96.8373 49.1143 99.4253 50.003 101.939 51.1405L103.569 55.3853C100.866 53.9857 98.1389 52.9156 95.759 52.3185L95.3634 52.2198L98.8763 61.3715L99.1835 61.4732C101.894 62.3721 104.658 63.388 107.039 64.9459C109.381 66.4786 111.38 68.5532 112.567 71.6462C114.245 76.0176 111.713 78.6621 105.851 78.2717L105.554 78.2524L106.73 81.3176L103.211 80.6971L102.028 77.6156L101.691 77.5373C98.4678 76.7908 94.8394 75.2636 91.1049 73.2644L89.3613 68.7223C93.6393 71.1206 97.2292 72.8078 100.357 73.7229L100.779 73.8465L97.2585 64.6757Z" fill="url(#paint8_linear_380_12336)" stroke="#36DC9D" stroke-width="0.716981"/>
</g>
</g>
<defs>
<clipPath id="paint0_diamond_380_12336_clip_path"><rect width="329" height="120" rx="16"/></clipPath><linearGradient id="paint0_diamond_380_12336" x1="0" y1="0" x2="500" y2="500" gradientUnits="userSpaceOnUse">
<stop stop-color="#5EFFC2"/>
<stop offset="0.160312" stop-color="#2DD998"/>
<stop offset="0.275631" stop-color="#239855"/>
<stop offset="0.453125" stop-color="#166638"/>
<stop offset="0.71875" stop-color="#0B331C"/>
<stop offset="1"/>
</linearGradient>
<linearGradient id="paint1_linear_380_12336" x1="113.885" y1="166.026" x2="-21.3062" y2="17.6451" gradientUnits="userSpaceOnUse">
<stop offset="0.0298615"/>
<stop offset="0.0689637" stop-color="#05633B"/>
<stop offset="0.117297" stop-color="#074F30"/>
<stop offset="0.357888" stop-color="#238D9D"/>
<stop offset="0.532047" stop-color="#05633B"/>
<stop offset="0.557944" stop-color="#36DE9D"/>
<stop offset="0.585383" stop-color="#05633B"/>
<stop offset="0.625647" stop-color="#074F30"/>
<stop offset="0.677455" stop-color="#084026"/>
<stop offset="0.724833" stop-color="#238D9D"/>
<stop offset="0.765276" stop-color="#5EFFC2"/>
<stop offset="0.81218" stop-color="#2DD998"/>
<stop offset="0.831945" stop-color="#BEFFE6"/>
<stop offset="0.839783" stop-color="white"/>
</linearGradient>
<linearGradient id="paint2_linear_380_12336" x1="113.603" y1="155.49" x2="16.2731" y2="29.6594" gradientUnits="userSpaceOnUse">
<stop stop-color="#061D0F"/>
<stop offset="0.490385" stop-color="#8CC2AC" stop-opacity="0.5"/>
<stop offset="1" stop-color="#BEFFE6"/>
</linearGradient>
<linearGradient id="paint3_linear_380_12336" x1="123.615" y1="52.8079" x2="35.2613" y2="151.143" gradientUnits="userSpaceOnUse">
<stop offset="0.0298615"/>
<stop offset="0.0689637" stop-color="#051F0F"/>
<stop offset="0.117297" stop-color="#04371D"/>
<stop offset="0.532047" stop-color="#065935"/>
<stop offset="0.557944" stop-color="#068050"/>
<stop offset="0.585383" stop-color="#09915C"/>
<stop offset="0.625647" stop-color="#065935"/>
<stop offset="0.677455" stop-color="#04371D"/>
<stop offset="0.724833" stop-color="#065935"/>
<stop offset="0.765276" stop-color="#24A65C"/>
<stop offset="0.81218" stop-color="#229C56"/>
<stop offset="0.878837" stop-color="#59CA9F"/>
<stop offset="0.914219" stop-color="#B2DEC4"/>
<stop offset="0.932061" stop-color="white"/>
</linearGradient>
<linearGradient id="paint4_linear_380_12336" x1="141.686" y1="72.5203" x2="0" y2="72.5203" gradientUnits="userSpaceOnUse">
<stop stop-color="#000702"/>
<stop offset="0.456731" stop-color="#BEFFE6"/>
<stop offset="1" stop-color="#BEFFE6" stop-opacity="0"/>
</linearGradient>
<radialGradient id="paint5_radial_380_12336" cx="0" cy="0" r="1" gradientUnits="userSpaceOnUse" gradientTransform="translate(-2.19275 103.935) rotate(-59.0121) scale(154.671 519.7)">
<stop stop-color="white"/>
<stop offset="0.134042" stop-color="#BEFFE6"/>
<stop offset="0.331547" stop-color="#8EFFD4"/>
<stop offset="0.518827" stop-color="#2DD998"/>
<stop offset="0.716546" stop-color="#238D9D"/>
<stop offset="0.887916" stop-color="#0E4023"/>
<stop offset="1"/>
</radialGradient>
<linearGradient id="paint6_linear_380_12336" x1="8.53153" y1="101.322" x2="124.216" y2="19.8904" gradientUnits="userSpaceOnUse">
<stop offset="0.774055" stop-color="#BEFFE6" stop-opacity="0"/>
<stop offset="1" stop-color="#BEFFE6"/>
</linearGradient>
<linearGradient id="paint7_linear_380_12336" x1="-13.7802" y1="66.6763" x2="67.5118" y2="11.9581" gradientUnits="userSpaceOnUse">
<stop stop-color="#BEFFE6"/>
<stop offset="1" stop-color="white" stop-opacity="0"/>
</linearGradient>
<linearGradient id="paint8_linear_380_12336" x1="51.2265" y1="31.9929" x2="78.9506" y2="191.689" gradientUnits="userSpaceOnUse">
<stop offset="0.0985916" stop-color="white"/>
<stop offset="1" stop-color="#FCFBFF" stop-opacity="0"/>
</linearGradient>
<clipPath id="clip0_380_12336">
<rect width="329" height="120" rx="16" fill="white"/>
</clipPath>
</defs>
</svg>
