<svg width="358" height="223" viewBox="0 0 358 223" fill="none" xmlns="http://www.w3.org/2000/svg">
<path d="M41.2297 48.6836C57.3023 40.9968 69.8809 27.9523 77.1019 11.6468C72.4432 6.7551 66.3868 3.2611 59.8646 1.1647L56.3705 0C56.1376 0.4659 55.9047 1.1647 55.9047 1.6306C50.3142 17.4702 38.9004 30.2817 23.5266 37.5027C12.8115 42.6273 4.8917 51.9448 1.1647 63.1257L0 66.6198C0.4659 66.8527 1.1647 67.0856 1.6306 67.0856C6.0564 68.7161 10.4821 70.8126 14.675 73.3749C20.4984 62.8928 29.8158 54.0412 41.2297 48.6836Z" fill="#107180"/>
<path d="M95.5947 27.2793C86.9761 40.3237 75.0963 50.8059 60.4214 57.794C48.5416 63.3844 39.4571 73.8666 35.2642 86.4451L34.0996 90.405C38.5254 94.3649 43.8829 97.3932 49.7063 99.2566L53.2003 100.421C53.4333 99.9554 53.6662 99.2566 53.6662 98.7907C59.2567 82.9511 70.6705 70.1396 86.0443 62.9186C96.7594 57.794 104.912 48.4765 108.406 37.2956L109.571 33.8015C104.679 32.4039 100.021 30.0745 95.5947 27.2793Z" fill="#107180"/>
<path d="M41.2297 170.929C57.3023 163.242 69.8809 150.197 77.1019 133.892C72.4432 129 66.3868 125.506 59.8646 123.41L56.3705 122.245C56.1376 122.711 55.9047 123.41 55.9047 123.876C50.3142 139.715 38.9004 152.527 23.5266 159.748C12.8115 164.872 4.8917 174.19 1.1647 185.371L0 188.865C0.4659 189.098 1.1647 189.331 1.6306 189.331C6.0564 190.961 10.4821 193.058 14.675 195.62C20.4984 185.138 29.8158 176.286 41.2297 170.929Z" fill="#107180"/>
<path d="M95.5947 149.524C86.9761 162.569 75.0963 173.051 60.4214 180.039C48.5416 185.63 39.4571 196.112 35.2642 208.69L34.0996 212.65C38.5254 216.61 43.8829 219.638 49.7063 221.502L53.2003 222.666C53.4333 222.201 53.6662 221.502 53.6662 221.036C59.2567 205.196 70.6705 192.385 86.0443 185.164C96.7594 180.039 104.912 170.722 108.406 159.541L109.571 156.047C104.679 154.649 100.021 152.32 95.5947 149.524Z" fill="#107180"/>
<path d="M289.472 48.6836C305.545 40.9968 318.124 27.9523 325.345 11.6468C320.686 6.7551 314.629 3.2611 308.107 1.1647L304.613 0C304.38 0.4659 304.147 1.1647 304.147 1.6306C298.557 17.4702 287.143 30.2817 271.769 37.5027C261.054 42.6273 253.134 51.9448 249.407 63.1257L248.243 66.6198C248.709 66.8527 249.407 67.0856 249.873 67.0856C254.299 68.7161 258.725 70.8126 262.918 73.3749C268.741 62.8928 278.058 54.0412 289.472 48.6836Z" fill="#107180"/>
<path d="M343.837 27.2793C335.218 40.3237 323.339 50.8059 308.664 57.794C296.784 63.3844 287.699 73.8666 283.506 86.4451L282.342 90.405C286.768 94.3649 292.125 97.3932 297.949 99.2566L301.443 100.421C301.675 99.9554 301.908 99.2566 301.908 98.7907C307.499 82.9511 318.913 70.1396 334.287 62.9186C345.002 57.794 353.154 48.4765 356.648 37.2956L357.813 33.8015C352.921 32.4039 348.263 30.0745 343.837 27.2793Z" fill="#107180"/>
<path d="M289.472 170.929C305.545 163.242 318.124 150.197 325.345 133.892C320.686 129 314.629 125.506 308.107 123.41L304.613 122.245C304.38 122.711 304.147 123.41 304.147 123.876C298.557 139.715 287.143 152.527 271.769 159.748C261.054 164.872 253.134 174.19 249.407 185.371L248.243 188.865C248.709 189.098 249.407 189.331 249.873 189.331C254.299 190.961 258.725 193.058 262.918 195.62C268.741 185.138 278.058 176.286 289.472 170.929Z" fill="#107180"/>
<path d="M343.837 149.524C335.218 162.569 323.339 173.051 308.664 180.039C296.784 185.63 287.699 196.112 283.506 208.69L282.342 212.65C286.768 216.61 292.125 219.638 297.949 221.502L301.443 222.666C301.675 222.201 301.908 221.502 301.908 221.036C307.499 205.196 318.913 192.385 334.287 185.164C345.002 180.039 353.154 170.722 356.648 159.541L357.813 156.047C352.921 154.649 348.263 152.32 343.837 149.524Z" fill="#107180"/>
</svg>
