<svg width="327" height="56" viewBox="0 0 327 56" fill="none" xmlns="http://www.w3.org/2000/svg">
<path d="M32.996 74.0958C55.2148 63.5018 72.6035 45.5239 82.5859 23.0516C76.1456 16.31 67.7733 11.4945 58.757 8.60516L53.9268 7C53.6048 7.64207 53.2828 8.6052 53.2828 9.24727C45.5545 31.0775 29.776 48.7343 8.52319 58.6863C-6.28934 65.749 -17.2378 78.5903 -22.3899 93.9999L-24 98.8154C-23.356 99.1364 -22.3899 99.4574 -21.7459 99.4574C-15.6277 101.705 -9.50947 104.594 -3.71326 108.125C4.33703 93.6789 17.2175 81.4796 32.996 74.0958Z" fill="#24A65C" fill-opacity="0.1"/>
<path d="M108.15 44.5964C96.236 62.5743 79.8135 77.0208 59.5267 86.6518C43.1041 94.3566 30.5457 108.803 24.7495 126.139L23.1394 131.596C29.2576 137.054 36.6639 141.227 44.7142 143.796L49.5443 145.401C49.8664 144.759 50.1884 143.796 50.1884 143.154C57.9166 121.323 73.6952 103.667 94.948 93.7145C109.761 86.6518 121.031 73.8105 125.861 58.4009L127.471 53.5854C120.709 51.6592 114.269 48.4488 108.15 44.5964Z" fill="#24A65C" fill-opacity="0.1"/>
<path d="M237.996 29.0958C260.215 18.5018 277.604 0.523941 287.586 -21.9484C281.146 -28.69 272.773 -33.5055 263.757 -36.3948L258.927 -38C258.605 -37.3579 258.283 -36.3948 258.283 -35.7527C250.555 -13.9225 234.776 3.73429 213.523 13.6863C198.711 20.749 187.762 33.5903 182.61 48.9999L181 53.8154C181.644 54.1364 182.61 54.4574 183.254 54.4574C189.372 56.7046 195.491 59.594 201.287 63.1253C209.337 48.6789 222.217 36.4796 237.996 29.0958Z" fill="#24A65C" fill-opacity="0.1"/>
<path d="M313.149 -0.403564C301.234 17.5743 284.812 32.0208 264.525 41.6518C248.102 49.3566 235.544 63.8031 229.748 81.1389L228.138 86.5964C234.256 92.0539 241.662 96.2274 249.712 98.7957L254.543 100.401C254.865 99.7588 255.187 98.7956 255.187 98.1536C262.915 76.3233 278.694 58.6665 299.946 48.7145C314.759 41.6518 326.029 28.8105 330.859 13.4009L332.469 8.58541C325.707 6.65922 319.267 3.44883 313.149 -0.403564Z" fill="#24A65C" fill-opacity="0.1"/>
</svg>
