<svg width="327" height="217" viewBox="0 0 327 217" fill="none" xmlns="http://www.w3.org/2000/svg">
<path d="M15.2297 42.6836C31.3023 34.9967 43.8809 21.9523 51.1019 5.64681C46.4432 0.755149 40.3868 -2.73889 33.8646 -4.83532L30.3705 -6C30.1376 -5.53413 29.9047 -4.83529 29.9047 -4.36942C24.3142 11.4702 12.9004 24.2817 -2.47343 31.5027C-13.1885 36.6273 -21.1083 45.9448 -24.8353 57.1257L-26 60.6198C-25.5341 60.8527 -24.8353 61.0856 -24.3694 61.0856C-19.9436 62.7161 -15.5179 64.8126 -11.325 67.3749C-5.50161 56.8928 3.81582 48.0412 15.2297 42.6836Z" fill="#24A65C"/>
<path d="M69.5947 21.2795C60.9761 34.324 49.0964 44.8061 34.4214 51.7942C22.5417 57.3847 13.4571 67.8668 9.26429 80.4454L8.09961 84.4053C12.5254 88.3652 17.8829 91.3934 23.7063 93.2569L27.2004 94.4216C27.4333 93.9557 27.6662 93.2569 27.6662 92.791C33.2567 76.9513 44.6706 64.1398 60.0444 56.9188C70.7594 51.7942 78.9122 42.4768 82.4062 31.2958L83.5709 27.8018C78.6793 26.4042 74.0205 24.0748 69.5947 21.2795Z" fill="#24A65C"/>
<path d="M15.2297 164.929C31.3023 157.242 43.8809 144.197 51.1019 127.892C46.4432 123 40.3868 119.506 33.8646 117.41L30.3705 116.245C30.1376 116.711 29.9047 117.41 29.9047 117.875C24.3142 133.715 12.9004 146.527 -2.47343 153.748C-13.1885 158.872 -21.1083 168.19 -24.8353 179.371L-26 182.865C-25.5341 183.098 -24.8353 183.33 -24.3694 183.33C-19.9436 184.961 -15.5179 187.057 -11.325 189.62C-5.50161 179.138 3.81582 170.286 15.2297 164.929Z" fill="#24A65C"/>
<path d="M69.5947 143.524C60.9761 156.569 49.0964 167.051 34.4214 174.039C22.5417 179.63 13.4571 190.112 9.26429 202.69L8.09961 206.65C12.5254 210.61 17.8829 213.638 23.7063 215.502L27.2004 216.666C27.4333 216.201 27.6662 215.502 27.6662 215.036C33.2567 199.196 44.6706 186.385 60.0444 179.164C70.7594 174.039 78.9122 164.722 82.4062 153.541L83.5709 150.047C78.6793 148.649 74.0205 146.32 69.5947 143.524Z" fill="#24A65C"/>
<path d="M263.472 42.6836C279.544 34.9967 292.123 21.9523 299.344 5.64681C294.685 0.755149 288.629 -2.73889 282.107 -4.83532L278.613 -6C278.38 -5.53413 278.147 -4.83529 278.147 -4.36942C272.556 11.4702 261.143 24.2817 245.769 31.5027C235.054 36.6273 227.134 45.9448 223.407 57.1257L222.242 60.6198C222.708 60.8527 223.407 61.0856 223.873 61.0856C228.299 62.7161 232.724 64.8126 236.917 67.3749C242.741 56.8928 252.058 48.0412 263.472 42.6836Z" fill="#24A65C"/>
<path d="M317.837 21.2795C309.218 34.324 297.339 44.8061 282.664 51.7942C270.784 57.3847 261.699 67.8668 257.506 80.4454L256.342 84.4053C260.768 88.3652 266.125 91.3934 271.949 93.2569L275.443 94.4216C275.675 93.9557 275.908 93.2569 275.908 92.791C281.499 76.9513 292.913 64.1398 308.287 56.9188C319.002 51.7942 327.154 42.4768 330.648 31.2958L331.813 27.8018C326.921 26.4042 322.263 24.0748 317.837 21.2795Z" fill="#24A65C"/>
<path d="M263.472 164.929C279.544 157.242 292.123 144.197 299.344 127.892C294.685 123 288.629 119.506 282.107 117.41L278.613 116.245C278.38 116.711 278.147 117.41 278.147 117.875C272.556 133.715 261.143 146.527 245.769 153.748C235.054 158.872 227.134 168.19 223.407 179.371L222.242 182.865C222.708 183.098 223.407 183.33 223.873 183.33C228.299 184.961 232.724 187.057 236.917 189.62C242.741 179.138 252.058 170.286 263.472 164.929Z" fill="#24A65C"/>
<path d="M317.837 143.524C309.218 156.569 297.339 167.051 282.664 174.039C270.784 179.63 261.699 190.112 257.506 202.69L256.342 206.65C260.768 210.61 266.125 213.638 271.949 215.502L275.443 216.666C275.675 216.201 275.908 215.502 275.908 215.036C281.499 199.196 292.913 186.385 308.287 179.164C319.002 174.039 327.154 164.722 330.648 153.541L331.813 150.047C326.921 148.649 322.263 146.32 317.837 143.524Z" fill="#24A65C"/>
</svg>