<svg width="42" height="44" viewBox="0 0 42 44" fill="none" xmlns="http://www.w3.org/2000/svg">
<g style="mix-blend-mode:luminosity" opacity="0.3">
<path d="M1.66932 13.9947L6.15069 12.1841L6.15069 7.35071L10.984 7.35071L12.7946 2.86944L17.4497 4.75024L21 1.19995L24.5502 4.7502L29.2053 2.86944L31.0158 7.35071L35.8492 7.35071V12.1841L40.3305 13.9947L38.4498 18.6497L42 22.2L38.4497 25.7502L40.3305 30.4054L35.8492 32.216V37.0492H31.0159L29.2053 41.5306L24.5501 39.6498L21 43.2L17.4498 39.6498L12.7946 41.5306L10.9839 37.0492H6.15069L6.15069 32.216L1.66934 30.4054L3.55019 25.7501L0 22.2L3.55012 18.6498L1.66932 13.9947Z" fill="black"/>
<path d="M6.75098 30.6113L6.375 30.46L2.4502 28.874L4.10645 24.7754L4.25488 24.4072L3.97461 24.126L0.847656 21L3.97461 17.874L4.25488 17.5938L4.10645 17.2256L2.44922 13.126L6.375 11.54L6.75098 11.3887V6.75098H11.3887L11.54 6.37598L13.126 2.44922L17.2246 4.10645L17.5928 4.25488L17.874 3.97461L21 0.847656L24.126 3.97461L24.4072 4.25488L24.7754 4.10645L28.873 2.44922L30.46 6.37598L30.6113 6.75098H35.249V11.3887L35.624 11.54L39.5498 13.126L37.8936 17.2246L37.7451 17.5928L38.0254 17.874L41.1514 21L38.0254 24.126L37.7451 24.4072L37.8936 24.7754L39.5488 28.874L35.624 30.46L35.249 30.6113V35.249H30.6113L30.46 35.624L28.873 39.5498L24.7744 37.8936L24.4062 37.7451L21 41.1514L17.5938 37.7451L17.2246 37.8936L13.125 39.5488L11.54 35.624L11.3887 35.249H6.75098V30.6113Z" fill="url(#paint0_linear_210_22182)" stroke="white" stroke-width="1.2"/>
<path d="M14.6655 20.3008H12.9546C12.9233 20.0794 12.8595 19.8828 12.7632 19.7109C12.6668 19.5365 12.5431 19.388 12.3921 19.2656C12.241 19.1432 12.0666 19.0495 11.8687 18.9844C11.6733 18.9193 11.4611 18.8867 11.2319 18.8867C10.8179 18.8867 10.4572 18.9896 10.1499 19.1953C9.84261 19.3984 9.60433 19.6953 9.43506 20.0859C9.26579 20.474 9.18115 20.9453 9.18115 21.5C9.18115 22.0703 9.26579 22.5495 9.43506 22.9375C9.60693 23.3255 9.84652 23.6185 10.1538 23.8164C10.4611 24.0143 10.8166 24.1133 11.2202 24.1133C11.4468 24.1133 11.6564 24.0833 11.8491 24.0234C12.0444 23.9635 12.2176 23.8763 12.3687 23.7617C12.5197 23.6445 12.6447 23.5026 12.7437 23.3359C12.8452 23.1693 12.9155 22.9792 12.9546 22.7656L14.6655 22.7734C14.6213 23.1406 14.5106 23.4948 14.3335 23.8359C14.159 24.1745 13.9233 24.4779 13.6265 24.7461C13.3322 25.0117 12.9806 25.2227 12.5718 25.3789C12.1655 25.5326 11.7059 25.6094 11.1929 25.6094C10.4793 25.6094 9.84131 25.4479 9.27881 25.125C8.71891 24.8021 8.2762 24.3346 7.95068 23.7227C7.62777 23.1107 7.46631 22.3698 7.46631 21.5C7.46631 20.6276 7.63037 19.8854 7.9585 19.2734C8.28662 18.6615 8.73193 18.1953 9.29443 17.875C9.85693 17.5521 10.4897 17.3906 11.1929 17.3906C11.6564 17.3906 12.0861 17.4557 12.4819 17.5859C12.8804 17.7161 13.2332 17.9062 13.5405 18.1562C13.8478 18.4036 14.0978 18.707 14.2905 19.0664C14.4858 19.4258 14.6108 19.8372 14.6655 20.3008ZM15.8784 25.5V17.5H21.269V18.8945H17.5698V20.8008H20.9917V22.1953H17.5698V24.1055H21.2847V25.5H15.8784ZM22.6138 25.5V17.5H24.3052V24.1055H27.7349V25.5H22.6138ZM28.8081 25.5V24.2812L31.6558 21.6445C31.8979 21.4102 32.1011 21.1992 32.2651 21.0117C32.4318 20.8242 32.5581 20.6406 32.644 20.4609C32.73 20.2786 32.7729 20.082 32.7729 19.8711C32.7729 19.6367 32.7196 19.4349 32.6128 19.2656C32.506 19.0937 32.3602 18.9622 32.1753 18.8711C31.9904 18.7773 31.7808 18.7305 31.5464 18.7305C31.3016 18.7305 31.0881 18.7799 30.9058 18.8789C30.7235 18.9779 30.5828 19.1198 30.4839 19.3047C30.3849 19.4896 30.3354 19.7096 30.3354 19.9648H28.73C28.73 19.4414 28.8485 18.987 29.0854 18.6016C29.3224 18.2161 29.6545 17.918 30.0815 17.707C30.5086 17.4961 31.0008 17.3906 31.5581 17.3906C32.131 17.3906 32.6297 17.4922 33.0542 17.6953C33.4813 17.8958 33.8133 18.1745 34.0503 18.5312C34.2873 18.888 34.4058 19.2969 34.4058 19.7578C34.4058 20.0599 34.3459 20.3581 34.2261 20.6523C34.1089 20.9466 33.8993 21.2734 33.5972 21.6328C33.2951 21.9896 32.8693 22.418 32.3198 22.918L31.1519 24.0625V24.1172H34.5112V25.5H28.8081Z" fill="black"/>
</g>
<defs>
<linearGradient id="paint0_linear_210_22182" x1="2.20566e-08" y1="30.3" x2="42.6248" y2="29.0415" gradientUnits="userSpaceOnUse">
<stop stop-color="#FCFF52"/>
<stop offset="1" stop-color="#E2E622"/>
</linearGradient>
</defs>
</svg>
