<svg width="329" height="120" viewBox="0 0 329 120" fill="none" xmlns="http://www.w3.org/2000/svg">
<g clip-path="url(#clip0_380_12303)">
<g clip-path="url(#paint0_diamond_380_12303_clip_path)" data-figma-skip-parse="true"><g transform="matrix(0.0171355 0.214464 -0.577327 0.0750145 164.5 -30)"><rect x="0" y="0" width="796.084" height="304.403" fill="url(#paint0_diamond_380_12303)" opacity="1" shape-rendering="crispEdges"/><rect x="0" y="0" width="796.084" height="304.403" transform="scale(1 -1)" fill="url(#paint0_diamond_380_12303)" opacity="1" shape-rendering="crispEdges"/><rect x="0" y="0" width="796.084" height="304.403" transform="scale(-1 1)" fill="url(#paint0_diamond_380_12303)" opacity="1" shape-rendering="crispEdges"/><rect x="0" y="0" width="796.084" height="304.403" transform="scale(-1)" fill="url(#paint0_diamond_380_12303)" opacity="1" shape-rendering="crispEdges"/></g></g><rect width="329" height="120" rx="16" data-figma-gradient-fill="{&#34;type&#34;:&#34;GRADIENT_DIAMOND&#34;,&#34;stops&#34;:[{&#34;color&#34;:{&#34;r&#34;:0.77647060155868530,&#34;g&#34;:0.72156864404678345,&#34;b&#34;:0.96470588445663452,&#34;a&#34;:1.0},&#34;position&#34;:0.0},{&#34;color&#34;:{&#34;r&#34;:0.43921568989753723,&#34;g&#34;:0.29019609093666077,&#34;b&#34;:0.90588235855102539,&#34;a&#34;:1.0},&#34;position&#34;:0.16031187772750854},{&#34;color&#34;:{&#34;r&#34;:0.24705882370471954,&#34;g&#34;:0.14509804546833038,&#34;b&#34;:0.61568629741668701,&#34;a&#34;:1.0},&#34;position&#34;:0.27563071250915527},{&#34;color&#34;:{&#34;r&#34;:0.13333334028720856,&#34;g&#34;:0.082352943718433380,&#34;b&#34;:0.36078432202339172,&#34;a&#34;:1.0},&#34;position&#34;:0.4531250},{&#34;color&#34;:{&#34;r&#34;:0.0,&#34;g&#34;:0.0,&#34;b&#34;:0.0,&#34;a&#34;:1.0},&#34;position&#34;:0.718750},{&#34;color&#34;:{&#34;r&#34;:0.0,&#34;g&#34;:0.0,&#34;b&#34;:0.0,&#34;a&#34;:1.0},&#34;position&#34;:1.0}],&#34;stopsVar&#34;:[],&#34;transform&#34;:{&#34;m00&#34;:34.270904541015625,&#34;m01&#34;:-1154.6534423828125,&#34;m02&#34;:724.69122314453125,&#34;m10&#34;:428.92855834960938,&#34;m11&#34;:150.02906799316406,&#34;m12&#34;:-319.47882080078125},&#34;opacity&#34;:1.0,&#34;blendMode&#34;:&#34;NORMAL&#34;,&#34;visible&#34;:true}"/>
<path d="M59.2258 18.5165C45.4978 14.9239 33.8174 15.6025 24.9983 19.7255L23.6916 17.8398L19.5178 22.9999C8.02053 31.6229 3.68104 47.9133 9.43968 68.8974C19.794 106.627 58.8717 145.243 96.7219 155.148L99.968 155.998C137.818 165.903 160.108 143.347 149.754 105.617C139.4 67.8871 100.322 29.2707 62.4719 19.3652L59.2258 18.5165Z" fill="url(#paint1_linear_380_12303)"/>
<path d="M60.7717 15.8011C47.1332 12.2319 35.5147 12.8775 26.7161 16.929L24.9553 14.3489L17.6975 23.2356C16.4815 24.4789 15.3765 25.8316 14.3879 27.2884L14.1848 27.5374V27.594C8.08612 36.8219 6.58 50.1279 10.9856 66.1819C21.3398 103.912 60.4176 142.528 98.2678 152.434L101.514 153.283C139.364 163.189 161.654 140.633 151.3 102.903C140.946 65.1726 101.868 26.5562 64.0178 16.6507L60.7717 15.8011Z" fill="url(#paint2_linear_380_12303)"/>
<rect width="141.684" height="145.039" rx="70.8421" transform="matrix(0.264645 0.964346 -0.967421 -0.253175 140.313 27.2148)" fill="url(#paint3_linear_380_12303)"/>
<rect x="-0.289726" y="0.293187" width="142.199" height="145.171" rx="71.0997" transform="matrix(0.264645 0.964346 -0.967421 -0.253175 142.218 24.6087)" fill="url(#paint4_radial_380_12303)"/>
<rect x="-0.289726" y="0.293187" width="142.199" height="145.171" rx="71.0997" transform="matrix(0.264645 0.964346 -0.967421 -0.253175 142.218 24.6087)" stroke="url(#paint5_linear_380_12303)" stroke-width="0.82452"/>
<rect x="-0.289726" y="0.293187" width="142.199" height="145.171" rx="71.0997" transform="matrix(0.264645 0.964346 -0.967421 -0.253175 142.218 24.6087)" stroke="url(#paint6_linear_380_12303)" stroke-width="0.82452"/>
<g clip-path="url(#clip1_380_12303)">
<mask id="mask0_380_12303" style="mask-type:luminance" maskUnits="userSpaceOnUse" x="36" y="24" width="118" height="97">
<path d="M122.674 39.1998L36.6436 24.0303L67.9497 105.586L153.98 120.755L122.674 39.1998Z" fill="white"/>
</mask>
<g mask="url(#mask0_380_12303)">
<path d="M85.5706 45.3627L90.4852 58.1657L90.8687 57.7004L99.078 47.7444L108.537 49.4122L101.408 58.0611L101.28 58.2162L101.521 58.4703L124.967 83.1811L119.925 82.292L99.787 60.8735L99.4156 60.4782L99.2165 60.7185L97.8587 62.3669L97.7296 62.5235L97.9735 62.7781L115.989 81.5979L110.949 80.7093L96.236 65.1773L95.865 64.7855L95.667 65.0243L93.9942 67.0549L93.9278 67.1341L98.2814 78.4757L91.5907 77.2959L78.8798 44.183L85.5706 45.3627Z" fill="url(#paint7_linear_380_12303)" stroke="#624BE1" stroke-width="0.716974"/>
<path d="M78.7734 60.635C74.0371 62.3478 72.3276 67.388 74.8257 73.8957C78.3873 83.1739 89.2934 92.163 99.0789 93.8886C105.943 95.0989 110.565 92.4609 111.342 87.4838L116.909 88.4654C116.759 96.0338 110.697 100.418 100.924 98.695C88.3297 96.4742 74.3385 84.9408 69.7554 73.0017C66.1989 63.7366 69.3464 56.9491 76.7477 55.358L78.7734 60.635Z" fill="url(#paint8_linear_380_12303)" stroke="#624BE1" stroke-width="0.716974"/>
</g>
</g>
</g>
<defs>
<clipPath id="paint0_diamond_380_12303_clip_path"><rect width="329" height="120" rx="16"/></clipPath><linearGradient id="paint0_diamond_380_12303" x1="0" y1="0" x2="500" y2="500" gradientUnits="userSpaceOnUse">
<stop stop-color="#C6B8F6"/>
<stop offset="0.160312" stop-color="#704AE7"/>
<stop offset="0.275631" stop-color="#3F259D"/>
<stop offset="0.453125" stop-color="#22155C"/>
<stop offset="0.71875"/>
<stop offset="1"/>
</linearGradient>
<linearGradient id="paint1_linear_380_12303" x1="97.3995" y1="153.612" x2="-22.4669" y2="21.1365" gradientUnits="userSpaceOnUse">
<stop offset="0.0298615"/>
<stop offset="0.0689637" stop-color="#000B72"/>
<stop offset="0.117297" stop-color="#232D85"/>
<stop offset="0.357888" stop-color="#8A6CFF"/>
<stop offset="0.532047" stop-color="#424592"/>
<stop offset="0.557944" stop-color="#9695DF"/>
<stop offset="0.585383" stop-color="#464493"/>
<stop offset="0.625647" stop-color="#352980"/>
<stop offset="0.677455" stop-color="#181757"/>
<stop offset="0.724833" stop-color="#4536A5"/>
<stop offset="0.765276" stop-color="#9B93F3"/>
<stop offset="0.81218" stop-color="#8A6CFF"/>
<stop offset="0.831945" stop-color="#C3B4FF"/>
<stop offset="0.839783" stop-color="white"/>
</linearGradient>
<linearGradient id="paint2_linear_380_12303" x1="113.882" y1="166.026" x2="-21.309" y2="17.6465" gradientUnits="userSpaceOnUse">
<stop offset="0.0298615"/>
<stop offset="0.0689637" stop-color="#000B72"/>
<stop offset="0.117297" stop-color="#232D85"/>
<stop offset="0.357888" stop-color="#8A6CFF"/>
<stop offset="0.532047" stop-color="#424592"/>
<stop offset="0.557944" stop-color="#9695DF"/>
<stop offset="0.585383" stop-color="#464493"/>
<stop offset="0.625647" stop-color="#352980"/>
<stop offset="0.677455" stop-color="#181757"/>
<stop offset="0.724833" stop-color="#4536A5"/>
<stop offset="0.765276" stop-color="#9B93F3"/>
<stop offset="0.81218" stop-color="#8A6CFF"/>
<stop offset="0.831945" stop-color="#C3B4FF"/>
<stop offset="0.839783" stop-color="white"/>
</linearGradient>
<linearGradient id="paint3_linear_380_12303" x1="123.614" y1="52.8074" x2="35.261" y2="151.141" gradientUnits="userSpaceOnUse">
<stop offset="0.0298615"/>
<stop offset="0.0689637" stop-color="#000B72"/>
<stop offset="0.117297" stop-color="#232D85"/>
<stop offset="0.532047" stop-color="#424592"/>
<stop offset="0.557944" stop-color="#7776AC"/>
<stop offset="0.585383" stop-color="#464493"/>
<stop offset="0.625647" stop-color="#352980"/>
<stop offset="0.677455" stop-color="#181757"/>
<stop offset="0.724833" stop-color="#4536A5"/>
<stop offset="0.765276" stop-color="#9B93F3"/>
<stop offset="0.81218" stop-color="#8A6CFF"/>
<stop offset="0.878837" stop-color="#BEBBFF"/>
<stop offset="0.914219" stop-color="#D3D4FF"/>
<stop offset="0.932061" stop-color="white"/>
</linearGradient>
<radialGradient id="paint4_radial_380_12303" cx="0" cy="0" r="1" gradientUnits="userSpaceOnUse" gradientTransform="translate(-2.19273 103.934) rotate(-59.0121) scale(154.67 519.695)">
<stop stop-color="white"/>
<stop offset="0.134042" stop-color="#C8CAFF"/>
<stop offset="0.331547" stop-color="#9B84FF"/>
<stop offset="0.518827" stop-color="#6E5AD5"/>
<stop offset="0.716546" stop-color="#221B8F"/>
<stop offset="0.887916" stop-color="#060954"/>
<stop offset="1"/>
</radialGradient>
<linearGradient id="paint5_linear_380_12303" x1="115.503" y1="65.7579" x2="145.195" y2="47.7986" gradientUnits="userSpaceOnUse">
<stop stop-color="#5B53BE" stop-opacity="0"/>
<stop offset="1" stop-color="#CCC8FF"/>
</linearGradient>
<linearGradient id="paint6_linear_380_12303" x1="5.90249" y1="35.1744" x2="51.0939" y2="54.6721" gradientUnits="userSpaceOnUse">
<stop stop-color="white"/>
<stop offset="0.398028" stop-color="#CCC8FF"/>
<stop offset="1" stop-color="#5B53BE" stop-opacity="0"/>
</linearGradient>
<linearGradient id="paint7_linear_380_12303" x1="95.5864" y1="46.8168" x2="85.846" y2="101.642" gradientUnits="userSpaceOnUse">
<stop stop-color="#FCFBFF"/>
<stop offset="1" stop-color="white" stop-opacity="0"/>
</linearGradient>
<linearGradient id="paint8_linear_380_12303" x1="83.9811" y1="56.1864" x2="74.1753" y2="117.248" gradientUnits="userSpaceOnUse">
<stop stop-color="#FCFBFF"/>
<stop offset="1" stop-color="white" stop-opacity="0"/>
</linearGradient>
<clipPath id="clip0_380_12303">
<rect width="329" height="120" rx="16" fill="white"/>
</clipPath>
<clipPath id="clip1_380_12303">
<rect width="87.3575" height="87.5322" fill="white" transform="matrix(0.984808 0.173648 0.358368 0.93358 36.6035 23.9238)"/>
</clipPath>
</defs>
</svg>
