<svg width="24" height="58" viewBox="0 0 24 58" fill="none" xmlns="http://www.w3.org/2000/svg">
<path d="M21 12C21 16.9706 16.9706 21 12 21C7.02944 21 3 16.9706 3 12C3 7.02944 7.02944 3 12 3C16.9706 3 21 7.02944 21 12Z" fill="#808080" fill-opacity="0.1"/>
<path d="M15.7123 9.34835C16.0052 9.05546 16.0052 8.58058 15.7123 8.28769C15.4194 7.9948 14.9445 7.9948 14.6517 8.28769L15.182 8.81802L15.7123 9.34835ZM8.28769 14.6517C7.9948 14.9445 7.9948 15.4194 8.28769 15.7123C8.58058 16.0052 9.05546 16.0052 9.34835 15.7123L8.81802 15.182L8.28769 14.6517ZM14.6517 15.7123C14.9445 16.0052 15.4194 16.0052 15.7123 15.7123C16.0052 15.4194 16.0052 14.9445 15.7123 14.6517L15.182 15.182L14.6517 15.7123ZM9.34835 8.28769C9.05546 7.9948 8.58058 7.9948 8.28769 8.28769C7.9948 8.58058 7.9948 9.05546 8.28769 9.34835L8.81802 8.81802L9.34835 8.28769ZM21 12H20.25C20.25 16.5563 16.5563 20.25 12 20.25V21V21.75C17.3848 21.75 21.75 17.3848 21.75 12H21ZM12 21V20.25C7.44365 20.25 3.75 16.5563 3.75 12H3H2.25C2.25 17.3848 6.61522 21.75 12 21.75V21ZM3 12H3.75C3.75 7.44365 7.44365 3.75 12 3.75V3V2.25C6.61522 2.25 2.25 6.61522 2.25 12H3ZM12 3V3.75C16.5563 3.75 20.25 7.44365 20.25 12H21H21.75C21.75 6.61522 17.3848 2.25 12 2.25V3ZM15.182 8.81802L14.6517 8.28769L11.4697 11.4697L12 12L12.5303 12.5303L15.7123 9.34835L15.182 8.81802ZM12 12L11.4697 11.4697L8.28769 14.6517L8.81802 15.182L9.34835 15.7123L12.5303 12.5303L12 12ZM15.182 15.182L15.7123 14.6517L12.5303 11.4697L12 12L11.4697 12.5303L14.6517 15.7123L15.182 15.182ZM12 12L12.5303 11.4697L9.34835 8.28769L8.81802 8.81802L8.28769 9.34835L11.4697 12.5303L12 12Z" fill="#808080"/>
</svg>
