<svg width="24" height="24" viewBox="0 0 24 24" fill="none" xmlns="http://www.w3.org/2000/svg">
<path opacity="0.2" d="M19.4869 11.5481L21.06 9.57932C20.8478 8.7817 20.5304 8.01591 20.116 7.30213L17.6128 7.02088C17.4129 6.79559 17.1997 6.5824 16.9744 6.38244L16.6931 3.87838C15.9786 3.46647 15.2125 3.15122 14.415 2.94088L12.4463 4.51307C12.1453 4.49525 11.8435 4.49525 11.5425 4.51307L9.57377 2.93994C8.77875 3.15275 8.01551 3.47021 7.30408 3.884L7.02283 6.38713C6.79755 6.58709 6.58436 6.80028 6.38439 7.02557L3.88033 7.30682C3.46842 8.02137 3.15317 8.78744 2.94283 9.58494L4.51502 11.5537C4.49721 11.8547 4.49721 12.1565 4.51502 12.4574L2.94189 14.4262C3.15408 15.2238 3.47156 15.9896 3.88596 16.7034L6.38908 16.9846C6.58904 17.2099 6.80223 17.4231 7.02752 17.6231L7.30877 20.1271C8.02333 20.539 8.78939 20.8543 9.58689 21.0646L11.5556 19.4924C11.8566 19.5103 12.1584 19.5103 12.4594 19.4924L14.4281 21.0656C15.2258 20.8534 15.9916 20.5359 16.7053 20.1215L16.9866 17.6184C17.2119 17.4184 17.4251 17.2052 17.625 16.9799L20.1291 16.6987C20.541 15.9841 20.8562 15.2181 21.0666 14.4206L19.4944 12.4518C19.5097 12.1507 19.5072 11.8489 19.4869 11.5481ZM12 15.7499C11.2583 15.7499 10.5333 15.53 9.91663 15.118C9.29995 14.7059 8.8193 14.1202 8.53547 13.435C8.25164 12.7498 8.17738 11.9958 8.32207 11.2684C8.46677 10.5409 8.82392 9.87274 9.34837 9.34829C9.87282 8.82384 10.541 8.46669 11.2684 8.322C11.9959 8.1773 12.7499 8.25156 13.4351 8.53539C14.1203 8.81922 14.706 9.29987 15.118 9.91655C15.5301 10.5332 15.75 11.2583 15.75 11.9999C15.75 12.9945 15.3549 13.9483 14.6517 14.6516C13.9484 15.3549 12.9946 15.7499 12 15.7499Z" fill="#219653"/>
<path d="M12 15.75C14.0711 15.75 15.75 14.0711 15.75 12C15.75 9.92893 14.0711 8.25 12 8.25C9.92893 8.25 8.25 9.92893 8.25 12C8.25 14.0711 9.92893 15.75 12 15.75Z" stroke="#219653" stroke-width="1.5" stroke-linecap="round" stroke-linejoin="round"/>
<path d="M3.884 16.6959C3.4696 15.9821 3.15212 15.2163 2.93994 14.4187L4.51307 12.4499C4.49525 12.149 4.49525 11.8472 4.51307 11.5462L2.94088 9.57744C3.1527 8.7797 3.46953 8.01363 3.88307 7.29932L6.38713 7.01807C6.58709 6.79278 6.80028 6.57959 7.02557 6.37963L7.30682 3.8765C8.0201 3.46494 8.78492 3.14999 9.58119 2.93994L11.5499 4.51307C11.8509 4.49525 12.1527 4.49525 12.4537 4.51307L14.4224 2.94088C15.2202 3.1527 15.9863 3.46953 16.7006 3.88307L16.9818 6.38713C17.2071 6.58709 17.4203 6.80028 17.6203 7.02557L20.1234 7.30682C20.5378 8.0206 20.8553 8.78639 21.0674 9.584L19.4943 11.5528C19.5121 11.8537 19.5121 12.1555 19.4943 12.4565L21.0665 14.4253C20.8562 15.2228 20.5409 15.9888 20.129 16.7034L17.6249 16.9846C17.425 17.2099 17.2118 17.4231 16.9865 17.6231L16.7053 20.1262C15.9915 20.5406 15.2257 20.8581 14.4281 21.0703L12.4593 19.4971C12.1583 19.5149 11.8566 19.5149 11.5556 19.4971L9.58682 21.0693C8.78931 20.859 8.02325 20.5437 7.30869 20.1318L7.02744 17.6278C6.80215 17.4278 6.58897 17.2146 6.389 16.9893L3.884 16.6959Z" stroke="#219653" stroke-width="1.5" stroke-linecap="round" stroke-linejoin="round"/>
</svg>