<svg width="32" height="32" viewBox="0 0 32 32" fill="none" xmlns="http://www.w3.org/2000/svg">
<circle cx="16" cy="16" r="16" fill="white"/>
<path d="M13.394 15.518C16.5363 14.0152 18.9955 11.4649 20.4073 8.27704C19.4964 7.32068 18.3124 6.63757 17.0372 6.2277L16.3541 6C16.3086 6.09108 16.263 6.22771 16.263 6.31879C15.1701 9.41557 12.9386 11.9203 9.93288 13.3321C7.838 14.334 6.28961 16.1556 5.56096 18.3416L5.33325 19.0247C5.42433 19.0702 5.56096 19.1157 5.65204 19.1157C6.51731 19.4345 7.38259 19.8444 8.20232 20.3454C9.34084 18.296 11.1625 16.5655 13.394 15.518Z" fill="#219653"/>
<path d="M24.0228 11.3333C22.3378 13.8835 20.0152 15.9329 17.1461 17.2991C14.8235 18.3921 13.0474 20.4414 12.2277 22.9006L12 23.6748C12.8653 24.449 13.9127 25.041 15.0512 25.4054L15.7343 25.6331C15.7799 25.542 15.8254 25.4054 15.8254 25.3143C16.9184 22.2175 19.1499 19.7128 22.1556 18.301C24.2505 17.2991 25.8444 15.4775 26.5275 13.2915L26.7552 12.6084C25.7989 12.3352 24.888 11.8797 24.0228 11.3333Z" fill="#219653"/>
</svg>
