<svg width="310" height="230" viewBox="0 0 310 230" fill="none" xmlns="http://www.w3.org/2000/svg">
<path opacity="0.2" d="M45.7488 165.697C22.148 124.421 146.395 20.1732 203.347 53.675C294.891 107.525 274.742 164.408 244.573 187.066C206.041 216.005 181.368 199.325 141.667 188.62C97.8735 176.812 68.3073 205.15 45.7488 165.697Z" fill="#1E4536"/>
<path opacity="0.2" d="M116.559 150.158C115.013 145.761 114.242 141.129 114.281 136.468C114.451 114.352 132.739 96.3654 154.887 96.5626C161.285 96.6297 167.576 98.2211 173.236 101.205C178.897 104.189 183.764 108.48 187.435 113.721C191.106 118.962 193.475 125.003 194.345 131.342C195.215 137.682 194.561 144.137 192.437 150.173C192.226 150.781 191.83 151.308 191.305 151.68C190.781 152.052 190.153 152.251 189.51 152.25H119.486C118.842 152.247 118.214 152.045 117.69 151.67C117.165 151.295 116.77 150.767 116.559 150.158Z" fill="white"/>
<path d="M151.406 139.875L188.531 102.75" stroke="white" stroke-width="6.1875" stroke-linecap="round" stroke-linejoin="round"/>
<path d="M126.826 139.875C126.713 138.848 126.656 137.815 126.656 136.782C126.66 132.363 127.715 128.008 129.733 124.077C131.751 120.146 134.675 116.751 138.264 114.173C141.853 111.595 146.003 109.907 150.373 109.249C154.742 108.591 159.206 108.981 163.395 110.388" stroke="white" stroke-width="6.1875" stroke-linecap="round" stroke-linejoin="round"/>
<path d="M190.318 118.466C192.798 123.334 194.265 128.654 194.63 134.105C194.994 139.555 194.248 145.023 192.437 150.177C192.226 150.785 191.83 151.311 191.305 151.684C190.781 152.056 190.153 152.255 189.51 152.254H119.486C118.842 152.251 118.214 152.048 117.69 151.674C117.165 151.299 116.77 150.771 116.559 150.162C115.012 145.764 114.241 141.13 114.281 136.468C114.451 114.352 132.739 96.3654 154.887 96.5626C161.129 96.6127 167.273 98.1197 172.83 100.964" stroke="white" stroke-width="6.1875" stroke-linecap="round" stroke-linejoin="round"/>
</svg>
