<svg width="473" height="402" viewBox="0 0 473 402" fill="none" xmlns="http://www.w3.org/2000/svg">
<path opacity="0.2" d="M125.946 255.884C102.345 214.608 226.592 110.361 283.544 143.862C375.088 197.712 354.94 254.595 324.77 277.253C286.238 306.192 261.565 289.512 221.864 278.807C178.07 266.999 148.504 295.337 125.946 255.884Z" fill="#59CA9F"/>
<path d="M222.386 262.375C248.619 262.375 269.886 227.817 269.886 185.188C269.886 142.558 248.619 108 222.386 108C196.152 108 174.886 142.558 174.886 185.188C174.886 227.817 196.152 262.375 222.386 262.375Z" fill="#238D9D"/>
<path d="M214.648 182.862C223.977 175.612 231.278 163.309 235.469 147.93C232.765 143.317 229.25 140.021 225.464 138.044L223.436 136.945C223.301 137.385 223.166 138.044 223.166 138.483C219.921 153.423 213.296 165.506 204.373 172.317C198.154 177.15 193.557 185.938 191.394 196.484L190.718 199.78C190.988 199.999 191.394 200.219 191.664 200.219C194.233 201.757 196.802 203.734 199.235 206.151C202.615 196.264 208.023 187.915 214.648 182.862Z" fill="white"/>
<path d="M246.202 162.675C241.2 174.978 234.305 184.864 225.787 191.455C218.892 196.727 213.619 206.614 211.186 218.478L210.51 222.212C213.079 225.947 216.188 228.803 219.568 230.561L221.596 231.66C221.731 231.22 221.866 230.561 221.866 230.122C225.111 215.182 231.736 203.099 240.659 196.288C246.878 191.455 251.61 182.667 253.638 172.122L254.314 168.826C251.475 167.508 248.771 165.311 246.202 162.675Z" fill="white"/>
<path d="M222.385 256.438C245.339 256.438 263.947 224.537 263.947 185.188C263.947 145.837 245.339 113.938 222.385 113.938C199.43 113.938 180.822 145.837 180.822 185.188C180.822 224.537 199.43 256.438 222.385 256.438Z" stroke="#238D9D" stroke-width="11.875" stroke-linecap="round" stroke-linejoin="round"/>
<path d="M222.386 113.938H258.01C280.966 113.938 299.573 145.852 299.573 185.188C299.573 224.523 280.966 256.438 258.01 256.438H222.386" stroke="#238D9D" stroke-width="11.875" stroke-linecap="round" stroke-linejoin="round"/>
<path d="M253.364 137.688H288.989" stroke="#238D9D" stroke-width="11.875" stroke-linecap="round" stroke-linejoin="round"/>
<path d="M263.947 185.188H299.572" stroke="#238D9D" stroke-width="11.875" stroke-linecap="round" stroke-linejoin="round"/>
<path d="M253.364 232.688H288.989" stroke="#238D9D" stroke-width="11.875" stroke-linecap="round" stroke-linejoin="round"/>
</svg>
