<svg width="239" height="215" viewBox="0 0 239 215" fill="none" xmlns="http://www.w3.org/2000/svg">
<path opacity="0.2" d="M9.74884 165.697C-13.852 124.421 110.395 20.1732 167.347 53.675C258.891 107.525 238.743 164.408 208.573 187.066C170.041 216.005 145.368 199.325 105.667 188.62C61.8736 176.812 32.3073 205.15 9.74884 165.697Z" fill="#59CA9F"/>
<ellipse cx="106.188" cy="95" rx="47.5" ry="77.1875" fill="#219653"/>
<path d="M98.4511 92.6749C107.78 85.4248 115.081 73.1217 119.272 57.7428C116.568 53.1291 113.053 49.8336 109.267 47.8563L107.239 46.7578C107.104 47.1972 106.969 47.8563 106.969 48.2957C103.724 63.2353 97.0991 75.3187 88.176 82.1293C81.9568 86.9627 77.36 95.7507 75.1968 106.296L74.5208 109.592C74.7912 109.811 75.1968 110.031 75.4672 110.031C78.036 111.569 80.6048 113.546 83.0384 115.963C86.4184 106.076 91.8263 97.7279 98.4511 92.6749Z" fill="white"/>
<path d="M130.005 72.4871C125.003 84.7902 118.108 94.6767 109.59 101.268C102.695 106.54 97.4221 116.427 94.9885 128.291L94.3125 132.025C96.8813 135.76 99.9909 138.616 103.371 140.374L105.399 141.473C105.534 141.033 105.669 140.374 105.669 139.935C108.914 124.995 115.539 112.912 124.462 106.101C130.681 101.268 135.413 92.4797 137.441 81.9341L138.117 78.6387C135.278 77.3205 132.574 75.1234 130.005 72.4871Z" fill="white"/>
<path d="M106.188 166.25C129.142 166.25 147.75 134.35 147.75 95C147.75 55.6497 129.142 23.75 106.188 23.75C83.2332 23.75 64.625 55.6497 64.625 95C64.625 134.35 83.2332 166.25 106.188 166.25Z" stroke="#219653" stroke-width="11.875" stroke-linecap="round" stroke-linejoin="round"/>
<path d="M106.188 23.75H141.812C164.768 23.75 183.375 55.6641 183.375 95C183.375 134.336 164.768 166.25 141.812 166.25H106.188" stroke="#219653" stroke-width="11.875" stroke-linecap="round" stroke-linejoin="round"/>
<path d="M137.167 47.5H172.792" stroke="#219653" stroke-width="11.875" stroke-linecap="round" stroke-linejoin="round"/>
<path d="M147.75 95H183.375" stroke="#219653" stroke-width="11.875" stroke-linecap="round" stroke-linejoin="round"/>
<path d="M137.167 142.5H172.792" stroke="#219653" stroke-width="11.875" stroke-linecap="round" stroke-linejoin="round"/>
</svg>
