<svg width="311" height="133" viewBox="0 0 311 133" fill="none" xmlns="http://www.w3.org/2000/svg">
<g clip-path="url(#clip0_382_12300)">
<path d="M19.2297 13.6836C35.3023 5.99675 47.8809 -7.04766 55.1019 -23.3532C50.4432 -28.2449 44.3868 -31.7389 37.8646 -33.8353L34.3705 -35C34.1376 -34.5341 33.9047 -33.8353 33.9047 -33.3694C28.3142 -17.5298 16.9004 -4.71828 1.52657 2.50274C-9.1885 7.62733 -17.1083 16.9448 -20.8353 28.1257L-22 31.6198C-21.5341 31.8527 -20.8353 32.0856 -20.3694 32.0856C-15.9436 33.7161 -11.5179 35.8126 -7.32501 38.3749C-1.50161 27.8928 7.81582 19.0412 19.2297 13.6836Z" fill="#107180"/>
<path d="M73.5947 -7.7207C64.9761 5.32372 53.0963 15.8059 38.4214 22.794C26.5416 28.3844 17.4571 38.8666 13.2642 51.4451L12.0996 55.405C16.5254 59.3649 21.8829 62.3932 27.7063 64.2566L31.2003 65.4213C31.4333 64.9554 31.6662 64.2566 31.6662 63.7907C37.2567 47.9511 48.6705 35.1396 64.0443 27.9186C74.7594 22.794 82.9121 13.4765 86.4062 2.2956L87.5709 -1.19845C82.6792 -2.59606 78.0205 -4.92547 73.5947 -7.7207Z" fill="#107180"/>
<path d="M19.2297 135.929C35.3023 128.242 47.8809 115.197 55.1019 98.8919C50.4432 94.0003 44.3868 90.5062 37.8646 88.4098L34.3705 87.2451C34.1376 87.711 33.9047 88.4098 33.9047 88.8757C28.3142 104.715 16.9004 117.527 1.52657 124.748C-9.1885 129.872 -17.1083 139.19 -20.8353 150.371L-22 153.865C-21.5341 154.098 -20.8353 154.331 -20.3694 154.331C-15.9436 155.961 -11.5179 158.058 -7.32501 160.62C-1.50161 150.138 7.81582 141.286 19.2297 135.929Z" fill="#107180"/>
<path d="M73.5947 114.524C64.9761 127.569 53.0963 138.051 38.4214 145.039C26.5416 150.63 17.4571 161.112 13.2642 173.69L12.0996 177.65C16.5254 181.61 21.8829 184.638 27.7063 186.502L31.2003 187.666C31.4333 187.201 31.6662 186.502 31.6662 186.036C37.2567 170.196 48.6705 157.385 64.0443 150.164C74.7594 145.039 82.9121 135.722 86.4062 124.541L87.5709 121.047C82.6792 119.649 78.0205 117.32 73.5947 114.524Z" fill="#107180"/>
<path d="M267.472 13.6836C283.545 5.99675 296.124 -7.04766 303.345 -23.3532C298.686 -28.2449 292.629 -31.7389 286.107 -33.8353L282.613 -35C282.38 -34.5341 282.147 -33.8353 282.147 -33.3694C276.557 -17.5298 265.143 -4.71828 249.769 2.50274C239.054 7.62733 231.134 16.9448 227.407 28.1257L226.243 31.6198C226.709 31.8527 227.407 32.0856 227.873 32.0856C232.299 33.7161 236.725 35.8126 240.918 38.3749C246.741 27.8928 256.058 19.0412 267.472 13.6836Z" fill="#107180"/>
<path d="M321.837 -7.7207C313.218 5.32372 301.339 15.8059 286.664 22.794C274.784 28.3844 265.699 38.8666 261.506 51.4451L260.342 55.405C264.768 59.3649 270.125 62.3932 275.949 64.2566L279.443 65.4213C279.675 64.9554 279.908 64.2566 279.908 63.7907C285.499 47.9511 296.913 35.1396 312.287 27.9186C323.002 22.794 331.154 13.4765 334.648 2.2956L335.813 -1.19845C330.921 -2.59606 326.263 -4.92547 321.837 -7.7207Z" fill="#107180"/>
<path d="M267.472 135.929C283.545 128.242 296.124 115.197 303.345 98.8919C298.686 94.0003 292.629 90.5062 286.107 88.4098L282.613 87.2451C282.38 87.711 282.147 88.4098 282.147 88.8757C276.557 104.715 265.143 117.527 249.769 124.748C239.054 129.872 231.134 139.19 227.407 150.371L226.243 153.865C226.709 154.098 227.407 154.331 227.873 154.331C232.299 155.961 236.725 158.058 240.918 160.62C246.741 150.138 256.058 141.286 267.472 135.929Z" fill="#107180"/>
<path d="M321.837 114.524C313.218 127.569 301.339 138.051 286.664 145.039C274.784 150.63 265.699 161.112 261.506 173.69L260.342 177.65C264.768 181.61 270.125 184.638 275.949 186.502L279.443 187.666C279.675 187.201 279.908 186.502 279.908 186.036C285.499 170.196 296.913 157.385 312.287 150.164C323.002 145.039 331.154 135.722 334.648 124.541L335.813 121.047C330.921 119.649 326.263 117.32 321.837 114.524Z" fill="#107180"/>
</g>
<defs>
<clipPath id="clip0_382_12300">
<rect width="311" height="133" fill="white"/>
</clipPath>
</defs>
</svg>
