<svg width="328" height="120" viewBox="0 0 328 120" fill="none" xmlns="http://www.w3.org/2000/svg">
<path d="M19.2297 -0.316357C35.3023 -8.00325 47.8809 -21.0477 55.1019 -37.3532C50.4432 -42.2449 44.3868 -45.7389 37.8646 -47.8353L34.3705 -49C34.1376 -48.5341 33.9047 -47.8353 33.9047 -47.3694C28.3142 -31.5298 16.9004 -18.7183 1.52657 -11.4973C-9.1885 -6.37267 -17.1083 2.94478 -20.8353 14.1257L-22 17.6198C-21.5341 17.8527 -20.8353 18.0856 -20.3694 18.0856C-15.9436 19.7161 -11.5179 21.8126 -7.32501 24.3749C-1.50161 13.8928 7.81582 5.04118 19.2297 -0.316357Z" fill="#24A65C"/>
<path d="M73.5947 -21.7207C64.9761 -8.67628 53.0964 1.80587 38.4214 8.79395C26.5417 14.3844 17.4571 24.8666 13.2643 37.4451L12.0996 41.405C16.5254 45.3649 21.8829 48.3932 27.7063 50.2566L31.2004 51.4213C31.4333 50.9554 31.6662 50.2566 31.6662 49.7907C37.2567 33.9511 48.6706 21.1396 64.0444 13.9186C74.7594 8.79398 82.9122 -0.523466 86.4062 -11.7044L87.5709 -15.1984C82.6793 -16.5961 78.0205 -18.9255 73.5947 -21.7207Z" fill="#24A65C"/>
<path d="M19.2297 121.929C35.3023 114.242 47.8809 101.197 55.1019 84.8919C50.4432 80.0003 44.3868 76.5062 37.8646 74.4098L34.3705 73.2451C34.1376 73.711 33.9047 74.4098 33.9047 74.8757C28.3142 90.7154 16.9004 103.527 1.52657 110.748C-9.1885 115.872 -17.1083 125.19 -20.8353 136.371L-22 139.865C-21.5341 140.098 -20.8353 140.331 -20.3694 140.331C-15.9436 141.961 -11.5179 144.058 -7.32501 146.62C-1.50161 136.138 7.81582 127.286 19.2297 121.929Z" fill="#24A65C"/>
<path d="M73.5947 100.524C64.9761 113.569 53.0964 124.051 38.4214 131.039C26.5417 136.63 17.4571 147.112 13.2643 159.69L12.0996 163.65C16.5254 167.61 21.8829 170.638 27.7063 172.502L31.2004 173.666C31.4333 173.201 31.6662 172.502 31.6662 172.036C37.2567 156.196 48.6706 143.385 64.0444 136.164C74.7594 131.039 82.9122 121.722 86.4062 110.541L87.5709 107.047C82.6793 105.649 78.0205 103.32 73.5947 100.524Z" fill="#24A65C"/>
<path d="M267.472 -0.316357C283.544 -8.00325 296.123 -21.0477 303.344 -37.3532C298.685 -42.2449 292.629 -45.7389 286.107 -47.8353L282.613 -49C282.38 -48.5341 282.147 -47.8353 282.147 -47.3694C276.556 -31.5298 265.143 -18.7183 249.769 -11.4973C239.054 -6.37267 231.134 2.94478 227.407 14.1257L226.242 17.6198C226.708 17.8527 227.407 18.0856 227.873 18.0856C232.299 19.7161 236.724 21.8126 240.917 24.3749C246.741 13.8928 256.058 5.04118 267.472 -0.316357Z" fill="#24A65C"/>
<path d="M321.837 -21.7207C313.218 -8.67628 301.339 1.80587 286.664 8.79395C274.784 14.3844 265.699 24.8666 261.506 37.4451L260.342 41.405C264.768 45.3649 270.125 48.3932 275.949 50.2566L279.443 51.4213C279.675 50.9554 279.908 50.2566 279.908 49.7907C285.499 33.9511 296.913 21.1396 312.287 13.9186C323.002 8.79398 331.154 -0.523466 334.648 -11.7044L335.813 -15.1984C330.921 -16.5961 326.263 -18.9255 321.837 -21.7207Z" fill="#24A65C"/>
<path d="M267.472 121.929C283.544 114.242 296.123 101.197 303.344 84.8919C298.685 80.0003 292.629 76.5062 286.107 74.4098L282.613 73.2451C282.38 73.711 282.147 74.4098 282.147 74.8757C276.556 90.7154 265.143 103.527 249.769 110.748C239.054 115.872 231.134 125.19 227.407 136.371L226.242 139.865C226.708 140.098 227.407 140.331 227.873 140.331C232.299 141.961 236.724 144.058 240.917 146.62C246.741 136.138 256.058 127.286 267.472 121.929Z" fill="#24A65C"/>
<path d="M321.837 100.524C313.218 113.569 301.339 124.051 286.664 131.039C274.784 136.63 265.699 147.112 261.506 159.69L260.342 163.65C264.768 167.61 270.125 170.638 275.949 172.502L279.443 173.666C279.675 173.201 279.908 172.502 279.908 172.036C285.499 156.196 296.913 143.385 312.287 136.164C323.002 131.039 331.154 121.722 334.648 110.541L335.813 107.047C330.921 105.649 326.263 103.32 321.837 100.524Z" fill="#24A65C"/>
</svg>