<svg width="32" height="24" viewBox="0 0 32 24" fill="none" xmlns="http://www.w3.org/2000/svg">
<path d="M20 14.8286L22.1714 16.1429C22.381 16.2762 22.5905 16.2714 22.8 16.1286C23.0095 15.9857 23.0857 15.7905 23.0286 15.5429L22.4571 13.0571L24.4 11.3714C24.5905 11.2 24.6476 10.9952 24.5714 10.7571C24.4952 10.519 24.3238 10.3905 24.0571 10.3714L21.5143 10.1714L20.5143 7.82857C20.419 7.6 20.2476 7.48571 20 7.48571C19.7524 7.48571 19.581 7.6 19.4857 7.82857L18.4857 10.1714L15.9429 10.3714C15.6762 10.3905 15.5048 10.519 15.4286 10.7571C15.3524 10.9952 15.4095 11.2 15.6 11.3714L17.5429 13.0571L16.9714 15.5429C16.9143 15.7905 16.9905 15.9857 17.2 16.1286C17.4095 16.2714 17.619 16.2762 17.8286 16.1429L20 14.8286ZM16.1714 21.1429H13.1429C12.5143 21.1429 11.9762 20.919 11.5286 20.4714C11.081 20.0238 10.8571 19.4857 10.8571 18.8571V15.8286L8.65714 13.6C8.44762 13.3714 8.28571 13.119 8.17143 12.8429C8.05714 12.5667 8 12.2857 8 12C8 11.7143 8.05714 11.4333 8.17143 11.1571C8.28571 10.881 8.44762 10.6286 8.65714 10.4L10.8571 8.17143V5.14286C10.8571 4.51429 11.081 3.97619 11.5286 3.52857C11.9762 3.08095 12.5143 2.85714 13.1429 2.85714H16.1714L18.4 0.657143C18.6286 0.447619 18.881 0.285714 19.1571 0.171429C19.4333 0.0571429 19.7143 0 20 0C20.2857 0 20.5667 0.0571429 20.8429 0.171429C21.119 0.285714 21.3714 0.447619 21.6 0.657143L23.8286 2.85714H26.8571C27.4857 2.85714 28.0238 3.08095 28.4714 3.52857C28.919 3.97619 29.1429 4.51429 29.1429 5.14286V8.17143L31.3429 10.4C31.5524 10.6286 31.7143 10.881 31.8286 11.1571C31.9429 11.4333 32 11.7143 32 12C32 12.2857 31.9429 12.5667 31.8286 12.8429C31.7143 13.119 31.5524 13.3714 31.3429 13.6L29.1429 15.8286V18.8571C29.1429 19.4857 28.919 20.0238 28.4714 20.4714C28.0238 20.919 27.4857 21.1429 26.8571 21.1429H23.8286L21.6 23.3429C21.3714 23.5524 21.119 23.7143 20.8429 23.8286C20.5667 23.9429 20.2857 24 20 24C19.7143 24 19.4333 23.9429 19.1571 23.8286C18.881 23.7143 18.6286 23.5524 18.4 23.3429L16.1714 21.1429ZM17.1429 18.8571L20 21.7143L22.8571 18.8571H26.8571V14.8571L29.7143 12L26.8571 9.14286V5.14286H22.8571L20 2.28571L17.1429 5.14286H13.1429V9.14286L10.2857 12L13.1429 14.8571V18.8571H17.1429Z" fill="#69B1BC"/>
<path fill-rule="evenodd" clip-rule="evenodd" d="M17.1429 18.8571L20 21.7143L22.8571 18.8571H26.8571V14.8571L29.7143 12L26.8571 9.14286V5.14286H22.8571L20 2.28571L17.1429 5.14286H13.1429V9.14286L10.2857 12L13.1429 14.8571V18.8571H17.1429ZM22.1714 16.1429L20 14.8286L17.8286 16.1429C17.619 16.2762 17.4095 16.2714 17.2 16.1286C16.9905 15.9857 16.9143 15.7905 16.9714 15.5429L17.5429 13.0571L15.6 11.3714C15.4095 11.2 15.3524 10.9952 15.4286 10.7571C15.5048 10.519 15.6762 10.3905 15.9429 10.3714L18.4857 10.1714L19.4857 7.82857C19.581 7.6 19.7524 7.48571 20 7.48571C20.2476 7.48571 20.419 7.6 20.5143 7.82857L21.5143 10.1714L24.0571 10.3714C24.3238 10.3905 24.4952 10.519 24.5714 10.7571C24.6476 10.9952 24.5905 11.2 24.4 11.3714L22.4571 13.0571L23.0286 15.5429C23.0857 15.7905 23.0095 15.9857 22.8 16.1286C22.5905 16.2714 22.381 16.2762 22.1714 16.1429Z" fill="#69B1BC"/>
<path d="M12 14.8286L14.1714 16.1429C14.381 16.2762 14.5905 16.2714 14.8 16.1286C15.0095 15.9857 15.0857 15.7905 15.0286 15.5429L14.4571 13.0571L16.4 11.3714C16.5905 11.2 16.6476 10.9952 16.5714 10.7571C16.4952 10.519 16.3238 10.3905 16.0571 10.3714L13.5143 10.1714L12.5143 7.82857C12.419 7.6 12.2476 7.48571 12 7.48571C11.7524 7.48571 11.581 7.6 11.4857 7.82857L10.4857 10.1714L7.94286 10.3714C7.67619 10.3905 7.50476 10.519 7.42857 10.7571C7.35238 10.9952 7.40952 11.2 7.6 11.3714L9.54286 13.0571L8.97143 15.5429C8.91429 15.7905 8.99048 15.9857 9.2 16.1286C9.40952 16.2714 9.61905 16.2762 9.82857 16.1429L12 14.8286ZM8.17143 21.1429H5.14286C4.51429 21.1429 3.97619 20.9191 3.52857 20.4714C3.08095 20.0238 2.85714 19.4857 2.85714 18.8571V15.8286L0.657143 13.6C0.447619 13.3714 0.285714 13.119 0.171429 12.8429C0.0571429 12.5667 0 12.2857 0 12C0 11.7143 0.0571429 11.4333 0.171429 11.1571C0.285714 10.881 0.447619 10.6286 0.657143 10.4L2.85714 8.17143V5.14286C2.85714 4.51429 3.08095 3.97619 3.52857 3.52857C3.97619 3.08095 4.51429 2.85714 5.14286 2.85714H8.17143L10.4 0.657143C10.6286 0.447619 10.881 0.285714 11.1571 0.171429C11.4333 0.0571429 11.7143 0 12 0C12.2857 0 12.5667 0.0571429 12.8429 0.171429C13.119 0.285714 13.3714 0.447619 13.6 0.657143L15.8286 2.85714H18.8571C19.4857 2.85714 20.0238 3.08095 20.4714 3.52857C20.919 3.97619 21.1429 4.51429 21.1429 5.14286V8.17143L23.3429 10.4C23.5524 10.6286 23.7143 10.881 23.8286 11.1571C23.9429 11.4333 24 11.7143 24 12C24 12.2857 23.9429 12.5667 23.8286 12.8429C23.7143 13.119 23.5524 13.3714 23.3429 13.6L21.1429 15.8286V18.8571C21.1429 19.4857 20.919 20.0238 20.4714 20.4714C20.0238 20.9191 19.4857 21.1429 18.8571 21.1429H15.8286L13.6 23.3429C13.3714 23.5524 13.119 23.7143 12.8429 23.8286C12.5667 23.9429 12.2857 24 12 24C11.7143 24 11.4333 23.9429 11.1571 23.8286C10.881 23.7143 10.6286 23.5524 10.4 23.3429L8.17143 21.1429ZM9.14286 18.8571L12 21.7143L14.8571 18.8571H18.8571V14.8571L21.7143 12L18.8571 9.14286V5.14286H14.8571L12 2.28571L9.14286 5.14286H5.14286V9.14286L2.28571 12L5.14286 14.8571V18.8571H9.14286Z" fill="#238D9D"/>
<path fill-rule="evenodd" clip-rule="evenodd" d="M9.14286 18.8571L12 21.7143L14.8571 18.8571H18.8571V14.8571L21.7143 12L18.8571 9.14286V5.14286H14.8571L12 2.28571L9.14286 5.14286H5.14286V9.14286L2.28571 12L5.14286 14.8571V18.8571H9.14286ZM14.1714 16.1429L12 14.8286L9.82857 16.1429C9.61905 16.2762 9.40952 16.2714 9.2 16.1286C8.99048 15.9857 8.91429 15.7905 8.97143 15.5429L9.54286 13.0571L7.6 11.3714C7.40952 11.2 7.35238 10.9952 7.42857 10.7571C7.50476 10.519 7.67619 10.3905 7.94286 10.3714L10.4857 10.1714L11.4857 7.82857C11.581 7.6 11.7524 7.48571 12 7.48571C12.2476 7.48571 12.419 7.6 12.5143 7.82857L13.5143 10.1714L16.0571 10.3714C16.3238 10.3905 16.4952 10.519 16.5714 10.7571C16.6476 10.9952 16.5905 11.2 16.4 11.3714L14.4571 13.0571L15.0286 15.5429C15.0857 15.7905 15.0095 15.9857 14.8 16.1286C14.5905 16.2714 14.381 16.2762 14.1714 16.1429Z" fill="#238D9D"/>
</svg>
