<svg width="473" height="402" viewBox="0 0 473 402" fill="none" xmlns="http://www.w3.org/2000/svg">
<path opacity="0.2" d="M125.946 264.697C102.345 223.421 226.592 119.173 283.544 152.675C375.088 206.525 354.94 263.408 324.77 286.066C286.238 315.005 261.565 298.325 221.864 287.62C178.07 275.812 148.504 304.15 125.946 264.697Z" fill="#238D9D"/>
<path d="M324.044 237.412C324.044 217.412 316.099 198.23 301.957 184.088C287.814 169.945 268.633 162 248.632 162C228.632 162 209.45 169.945 195.308 184.088C181.165 198.23 173.22 217.412 173.22 237.412H248.632H324.044Z" fill="#238D9D"/>
<path opacity="0.7" d="M288.197 123H286.197V162H288.197V123Z" fill="#238D9D"/>
<path d="M245.197 99H243.197V154H245.197V99Z" fill="#238D9D"/>
<path opacity="0.2" d="M207.197 115H205.197V154H207.197V115Z" fill="#238D9D"/>
<g filter="url(#filter0_d_388_2167)">
<path d="M154.197 242.168C154.197 237.665 157.847 234.015 162.35 234.015H324.044C328.547 234.015 332.197 237.665 332.197 242.168H154.197Z" fill="#238D9D"/>
</g>
<g clip-path="url(#clip0_388_2167)">
<path d="M315.824 234.412C315.824 214.412 307.879 195.23 293.737 181.088C279.594 166.945 260.413 159 240.412 159C220.412 159 201.23 166.945 187.088 181.088C172.945 195.23 165 214.412 165 234.412H240.412H315.824Z" fill="#44BCCE"/>
<path d="M226.23 217.684C242.302 209.997 254.881 196.952 262.102 180.647C257.443 175.755 251.387 172.261 244.865 170.165L241.371 169C241.138 169.466 240.905 170.165 240.905 170.631C235.314 186.47 223.9 199.282 208.527 206.503C197.812 211.627 189.892 220.945 186.165 232.126L185 235.62C185.466 235.853 186.165 236.086 186.631 236.086C191.056 237.716 195.482 239.813 199.675 242.375C205.498 231.893 214.816 223.041 226.23 217.684Z" fill="#107180"/>
<path d="M280.594 196.28C271.976 209.324 260.096 219.806 245.421 226.794C233.541 232.385 224.457 242.867 220.264 255.445L219.099 259.405C223.525 263.365 228.882 266.393 234.706 268.257L238.2 269.422C238.433 268.956 238.666 268.257 238.666 267.791C244.256 251.951 255.67 239.14 271.044 231.919C281.759 226.794 289.912 217.477 293.406 206.296L294.57 202.802C289.679 201.404 285.02 199.075 280.594 196.28Z" fill="#107180"/>
</g>
<defs>
<filter id="filter0_d_388_2167" x="148.762" y="227.221" width="188.87" height="19.0231" filterUnits="userSpaceOnUse" color-interpolation-filters="sRGB">
<feFlood flood-opacity="0" result="BackgroundImageFix"/>
<feColorMatrix in="SourceAlpha" type="matrix" values="0 0 0 0 0 0 0 0 0 0 0 0 0 0 0 0 0 0 127 0" result="hardAlpha"/>
<feOffset dy="-1.35878"/>
<feGaussianBlur stdDeviation="2.71756"/>
<feComposite in2="hardAlpha" operator="out"/>
<feColorMatrix type="matrix" values="0 0 0 0 0 0 0 0 0 0 0 0 0 0 0 0 0 0 0.1 0"/>
<feBlend mode="normal" in2="BackgroundImageFix" result="effect1_dropShadow_388_2167"/>
<feBlend mode="normal" in="SourceGraphic" in2="effect1_dropShadow_388_2167" result="shape"/>
</filter>
<clipPath id="clip0_388_2167">
<rect width="151" height="75" fill="white" transform="translate(165 159)"/>
</clipPath>
</defs>
</svg>
