<svg width="28" height="28" viewBox="0 0 28 28" fill="none" xmlns="http://www.w3.org/2000/svg">
<path d="M17.8235 1L20.302 7.69798L27 10.1765L20.302 12.6549L17.8235 19.3529L15.345 12.6549L8.64702 10.1765L15.345 7.69798L17.8235 1Z" fill="#DBF4F8"/>
<path d="M6.35295 16.2941L8.51804 19.482L11.7059 21.6471L8.51804 23.8121L6.35295 27L4.18787 23.8121L1 21.6471L4.18787 19.482L6.35295 16.2941Z" fill="#DBF4F8"/>
<path d="M17.8235 1L20.302 7.69798L27 10.1765L20.302 12.6549L17.8235 19.3529L15.345 12.6549L8.64702 10.1765L15.345 7.69798L17.8235 1Z" stroke="#42BDD0" stroke-width="1.5" stroke-linejoin="round"/>
<path d="M6.35295 16.2941L8.51804 19.482L11.7059 21.6471L8.51804 23.8121L6.35295 27L4.18787 23.8121L1 21.6471L4.18787 19.482L6.35295 16.2941Z" stroke="#42BDD0" stroke-width="1.5" stroke-linejoin="round"/>
</svg>
