<svg width="360" height="402" viewBox="0 0 360 402" fill="none" xmlns="http://www.w3.org/2000/svg">
<g clip-path="url(#clip0_0_1)">
<rect x="243.107" y="344.052" width="17.29" height="6.54" transform="rotate(20.1507 243.107 344.052)" fill="#04955E" fill-opacity="0.45"/>
<rect x="157.202" y="106.083" width="12.29" height="5.54" transform="rotate(-2.84932 157.202 106.083)" fill="#04955E" fill-opacity="0.9"/>
<rect x="240.532" y="239.729" width="13.29" height="6.54" transform="rotate(160.151 240.532 239.729)" fill="#E6F4EF" fill-opacity="0.45"/>
<rect x="5.96289" y="296.765" width="17.29" height="4.54" transform="rotate(137.151 5.96289 296.765)" fill="#58DA50" fill-opacity="0.85"/>
<rect x="292.401" y="162.531" width="5.29" height="5.54" transform="rotate(-101.849 292.401 162.531)" fill="#58DA50" fill-opacity="0.9"/>
<rect x="107.655" y="213.275" width="12.29" height="5.54" transform="rotate(-124.849 107.655 213.275)" fill="#E6F4EF" fill-opacity="0.45"/>
<rect x="145.692" y="242.071" width="7.29" height="5.54" transform="rotate(-5.84932 145.692 242.071)" fill="#E6F4EF" fill-opacity="0.6"/>
<rect x="40.7334" y="334.182" width="14.29" height="5.54" transform="rotate(92.1507 40.7334 334.182)" fill="#04955E" fill-opacity="0.85"/>
<rect x="368.073" y="319.141" width="13.29" height="4.54" transform="rotate(149.151 368.073 319.141)" fill="#04955E"/>
<rect x="233.964" y="89.0045" width="10.29" height="5.54" transform="rotate(-150.849 233.964 89.0045)" fill="#04955E" fill-opacity="0.75"/>
<rect x="272.816" y="317.38" width="11.29" height="6.54" transform="rotate(22.1507 272.816 317.38)" fill="#04955E" fill-opacity="0.65"/>
<rect x="47.0791" y="360.596" width="9.29" height="7.54" transform="rotate(-105.849 47.0791 360.596)" fill="#E6F4EF"/>
<rect x="307.349" y="127.366" width="14.29" height="3.54" transform="rotate(168.151 307.349 127.366)" fill="#04955E" fill-opacity="0.65"/>
<rect x="-9.23535" y="219.325" width="10.29" height="6.54" transform="rotate(24.1507 -9.23535 219.325)" fill="#04955E" fill-opacity="0.85"/>
<rect x="11.6143" y="218.177" width="19.29" height="3.54" transform="rotate(159.151 11.6143 218.177)" fill="#04955E" fill-opacity="0.75"/>
<rect x="289.45" y="145.522" width="17.29" height="3.54" transform="rotate(178.151 289.45 145.522)" fill="#58DA50" fill-opacity="0.65"/>
<rect x="261.104" y="137.681" width="19.29" height="7.54" transform="rotate(-43.8493 261.104 137.681)" fill="#04955E" fill-opacity="0.85"/>
<rect x="30.4297" y="173.111" width="15.29" height="7.54" transform="rotate(-128.849 30.4297 173.111)" fill="#58DA50" fill-opacity="0.85"/>
<circle cx="24.916" cy="325.193" r="3.175" transform="rotate(-19.8493 24.916 325.193)" fill="#58DA50" fill-opacity="0.9"/>
<circle cx="139.059" cy="233.488" r="2.675" transform="rotate(-19.8493 139.059 233.488)" fill="#58DA50" fill-opacity="0.65"/>
<circle cx="318.848" cy="110.111" r="1.675" transform="rotate(-19.8493 318.848 110.111)" fill="#58DA50" fill-opacity="0.9"/>
<circle cx="198.64" cy="109.916" r="2.675" transform="rotate(-19.8493 198.64 109.916)" fill="#E6F4EF" fill-opacity="0.9"/>
<circle cx="329.745" cy="90.2299" r="1.675" transform="rotate(-19.8493 329.745 90.2299)" fill="#58DA50" fill-opacity="0.85"/>
<circle cx="20.2642" cy="213.646" r="2.675" transform="rotate(-19.8493 20.2642 213.646)" fill="#04955E" fill-opacity="0.65"/>
<circle cx="318.072" cy="40.2226" r="2.675" transform="rotate(-19.8493 318.072 40.2226)" fill="#E6F4EF" fill-opacity="0.35"/>
<circle cx="47.8882" cy="128.189" r="2.675" transform="rotate(-19.8493 47.8882 128.189)" fill="#04955E" fill-opacity="0.6"/>
<circle cx="161.24" cy="247.808" r="3.675" transform="rotate(-19.8493 161.24 247.808)" fill="#E6F4EF" fill-opacity="0.45"/>
<circle cx="174.961" cy="316.744" r="1.175" transform="rotate(-19.8493 174.961 316.744)" fill="#04955E" fill-opacity="0.85"/>
<circle cx="267.042" cy="343.572" r="1.675" transform="rotate(-19.8493 267.042 343.572)" fill="#58DA50" fill-opacity="0.65"/>
<circle cx="83.1194" cy="389.235" r="1.175" transform="rotate(-19.8493 83.1194 389.235)" fill="#E6F4EF" fill-opacity="0.85"/>
<circle cx="253.764" cy="395.144" r="2.675" transform="rotate(-19.8493 253.764 395.144)" fill="#E6F4EF" fill-opacity="0.6"/>
<circle cx="230.039" cy="292.609" r="3.175" transform="rotate(-19.8493 230.039 292.609)" fill="#04955E" fill-opacity="0.75"/>
<circle cx="114.105" cy="273.328" r="3.675" transform="rotate(-19.8493 114.105 273.328)" fill="#04955E" fill-opacity="0.35"/>
<circle cx="250.299" cy="177.915" r="2.175" transform="rotate(-19.8493 250.299 177.915)" fill="#58DA50" fill-opacity="0.35"/>
<circle cx="241.845" cy="322.368" r="2.175" transform="rotate(-19.8493 241.845 322.368)" fill="#58DA50" fill-opacity="0.85"/>
<circle cx="307.693" cy="222.049" r="2.175" transform="rotate(-19.8493 307.693 222.049)" fill="#04955E" fill-opacity="0.35"/>
<path d="M208.881 215.404L213.353 214.707L215.397 218.745L212.188 221.937L208.161 219.872L208.881 215.404Z" fill="#04955E" fill-opacity="0.6"/>
<path d="M314.059 174.197L316.019 177.613L313.376 180.532L309.783 178.921L310.204 175.006L314.059 174.197Z" fill="#04955E" fill-opacity="0.6"/>
<path d="M47.9312 211.721L44.5508 213.988L44.2775 209.927L47.9312 211.721Z" fill="#E6F4EF" fill-opacity="0.9"/>
<path d="M24.6143 301.385L25.1018 304.193L22.9138 306.019L20.2382 305.037L19.7507 302.229L21.9387 300.403L24.6143 301.385Z" fill="#58DA50" fill-opacity="0.85"/>
<path d="M297.879 82.6466L294.72 84.8466L291.235 83.2103L290.909 79.3741L294.069 77.1741L297.554 78.8104L297.879 82.6466Z" fill="#E6F4EF" fill-opacity="0.65"/>
<path d="M40.3479 401.849L37.1226 404.266L34.7055 401.041L37.9307 398.624L40.3479 401.849Z" fill="#58DA50" fill-opacity="0.6"/>
<path d="M334.45 138.38L331.311 140.908L328.782 137.769L331.921 135.241L334.45 138.38Z" fill="#04955E" fill-opacity="0.75"/>
<path d="M244.722 359.45L242.436 355.3L246.585 353.014L248.871 357.164L244.722 359.45Z" fill="#04955E" fill-opacity="0.6"/>
<path d="M155.022 364.075L159.958 365.412L160.212 370.519L155.433 372.339L152.226 368.357L155.022 364.075Z" fill="#04955E" fill-opacity="0.75"/>
<path d="M183.448 75.3777L185.496 77.2317L184.366 79.7524L181.619 79.4565L181.052 76.7527L183.448 75.3777Z" fill="#58DA50" fill-opacity="0.35"/>
<path d="M191.814 242.156L191.575 239.819L193.479 238.442L195.624 239.404L195.863 241.741L193.958 243.118L191.814 242.156Z" fill="#58DA50" fill-opacity="0.45"/>
<path d="M168.443 203.755L171.568 201.147L172.264 205.158L168.443 203.755Z" fill="#04955E" fill-opacity="0.35"/>
<path d="M37.0114 392.491L33.6614 392.483L31.9941 389.577L33.6767 386.68L37.0267 386.689L38.694 389.595L37.0114 392.491Z" fill="#04955E" fill-opacity="0.9"/>
<path d="M204.276 40.1617L208.939 41.7811L205.205 45.0098L204.276 40.1617Z" fill="#04955E" fill-opacity="0.9"/>
<path d="M21.9702 249.992L17.7084 245.555L22.1449 241.294L26.4067 245.73L21.9702 249.992Z" fill="#58DA50" fill-opacity="0.75"/>
<path d="M1.84146 131.999L-2.88547 132.317L-3.20352 127.591L1.52341 127.272L1.84146 131.999Z" fill="#58DA50" fill-opacity="0.85"/>
<path d="M205.872 157.447L203.247 159.798L204.672 163.021L201.625 161.251L199 163.602L199.742 160.157L196.695 158.387L200.2 158.028L200.942 154.583L202.367 157.806L205.872 157.447Z" fill="#04955E" fill-opacity="0.65"/>
<path d="M296.057 150.916L293.689 149.427L291.541 151.22L292.225 148.508L289.857 147.019L292.648 146.831L293.331 144.119L294.373 146.715L297.163 146.527L295.016 148.32L296.057 150.916Z" fill="#04955E"/>
<path d="M246.421 366.583L244.682 368.526L245.024 371.11L243.082 369.371L240.497 369.713L242.237 367.771L241.894 365.186L243.837 366.926L246.421 366.583Z" fill="#E6F4EF" fill-opacity="0.35"/>
<path d="M256.504 266.642L256.287 263.653L253.877 261.873L256.865 261.655L258.646 259.245L258.863 262.234L261.273 264.014L258.285 264.232L256.504 266.642Z" fill="#04955E" fill-opacity="0.85"/>
<path d="M304.156 360.754L305.094 359.006L303.378 358.012L305.36 357.951L305.363 355.968L306.408 357.654L308.127 356.664L307.189 358.412L308.905 359.406L306.923 359.467L306.92 361.451L305.875 359.765L304.156 360.754Z" fill="#58DA50" fill-opacity="0.9"/>
<path d="M284.744 328.429L284.028 330.529L285.155 332.439L283.056 331.722L281.146 332.85L281.862 330.75L280.735 328.84L282.834 329.557L284.744 328.429Z" fill="#04955E" fill-opacity="0.6"/>
<path d="M137.016 147.552L139.163 145.948L137.629 143.751L140.091 144.807L141.227 142.38L141.543 145.041L144.212 144.811L142.066 146.415L143.6 148.612L141.138 147.556L140.002 149.983L139.686 147.322L137.016 147.552Z" fill="#04955E" fill-opacity="0.75"/>
<path d="M110.686 306.421L109.194 305.114L107.839 306.563L108.225 304.618L106.293 304.169L108.171 303.53L107.594 301.633L109.086 302.94L110.44 301.491L110.054 303.437L111.986 303.885L110.109 304.524L110.686 306.421Z" fill="#58DA50" fill-opacity="0.85"/>
<path d="M268.28 312.421L267.7 310.281L265.697 309.327L267.838 308.747L268.791 306.744L269.371 308.885L271.374 309.839L269.233 310.419L268.28 312.421Z" fill="#58DA50" fill-opacity="0.75"/>
<path d="M265.052 275.694L266.618 274.34L265.814 272.432L267.586 273.503L269.152 272.148L268.681 274.165L270.453 275.236L268.39 275.411L267.919 277.427L267.115 275.519L265.052 275.694Z" fill="#58DA50"/>
<path d="M332.476 317.265L331.234 315.719L329.648 316.911L330.366 315.062L328.542 314.284L330.502 313.982L330.263 312.013L331.505 313.559L333.091 312.367L332.373 314.216L334.197 314.994L332.237 315.296L332.476 317.265Z" fill="#04955E" fill-opacity="0.65"/>
<path d="M298.484 310.689L297.121 307.168L293.562 305.911L297.082 304.549L298.34 300.99L299.702 304.51L303.261 305.767L299.741 307.129L298.484 310.689Z" fill="#04955E"/>
<path d="M143.095 131.088L142.002 134.292L143.722 137.208L140.518 136.114L137.602 137.835L138.696 134.631L136.975 131.715L140.179 132.808L143.095 131.088Z" fill="#04955E" fill-opacity="0.35"/>
<path d="M200.225 130.794L197.019 129.738L195.86 132.909L195.171 129.604L191.846 130.186L194.363 127.937L192.197 125.349L195.403 126.404L196.562 123.234L197.251 126.538L200.576 125.957L198.059 128.205L200.225 130.794Z" fill="#E6F4EF" fill-opacity="0.75"/>
<path d="M306.819 273.079L303.522 273.849L301.961 276.853L301.191 273.557L298.187 271.996L301.483 271.225L303.044 268.221L303.815 271.518L306.819 273.079Z" fill="#58DA50" fill-opacity="0.35"/>
<path d="M151.185 89.3907L154.274 88.0298L153.014 84.8986L155.737 86.8932L157.819 84.2363L157.453 87.5916L160.794 88.066L157.706 89.4268L158.966 92.558L156.243 90.5635L154.161 93.2204L154.527 89.865L151.185 89.3907Z" fill="#E6F4EF" fill-opacity="0.65"/>
<path d="M178.239 128.009L179.73 129.801L181.569 128.368L180.764 130.556L182.924 131.432L180.626 131.828L180.948 134.137L179.456 132.346L177.617 133.778L178.423 131.591L176.263 130.714L178.56 130.319L178.239 128.009Z" fill="#04955E" fill-opacity="0.45"/>
<path d="M91.7459 307.083L91.6682 309.152L93.6121 309.865L91.6201 310.431L91.5424 312.5L90.3891 310.78L88.3971 311.346L89.6762 309.717L88.5229 307.998L90.4668 308.711L91.7459 307.083Z" fill="#04955E" fill-opacity="0.9"/>
</g>
<path opacity="0.2" d="M70.7488 332.697C47.148 291.421 171.395 187.173 228.347 220.675C319.891 274.525 299.742 331.408 269.573 354.066C231.041 383.005 206.368 366.325 166.667 355.62C122.874 343.812 93.3073 372.15 70.7488 332.697Z" fill="#59CA9F"/>
<path opacity="0.2" d="M160.591 323.093L130.905 293.407L117.967 329.006C117.607 329.988 117.534 331.052 117.759 332.073C117.983 333.095 118.496 334.03 119.235 334.77C119.975 335.509 120.91 336.022 121.932 336.246C122.953 336.471 124.017 336.399 124.999 336.038L160.591 323.093Z" fill="#219653"/>
<path opacity="0.2" d="M144.41 256.282L197.721 309.593L226.549 299.116C227.417 298.802 228.19 298.274 228.799 297.582C229.408 296.889 229.832 296.053 230.032 295.153C230.232 294.252 230.201 293.316 229.943 292.431C229.684 291.545 229.206 290.74 228.553 290.088L163.915 225.485C163.263 224.834 162.458 224.357 161.574 224.1C160.689 223.842 159.754 223.812 158.854 224.011C157.955 224.211 157.121 224.635 156.428 225.243C155.736 225.85 155.208 226.623 154.894 227.489L144.41 256.282Z" fill="#219653"/>
<path d="M117.968 329.006L154.889 227.489C155.203 226.622 155.731 225.848 156.424 225.239C157.117 224.63 157.952 224.206 158.853 224.006C159.753 223.806 160.69 223.837 161.575 224.096C162.46 224.354 163.266 224.832 163.917 225.485L228.521 290.088C229.172 290.74 229.648 291.546 229.905 292.431C230.162 293.316 230.192 294.251 229.991 295.151C229.791 296.05 229.367 296.885 228.758 297.576C228.15 298.268 227.376 298.796 226.51 299.109L124.992 336.03C124.012 336.389 122.95 336.459 121.931 336.234C120.912 336.008 119.978 335.497 119.24 334.759C118.502 334.021 117.99 333.087 117.765 332.068C117.54 331.049 117.61 329.987 117.968 329.006Z" stroke="#219653" stroke-width="11.25" stroke-linecap="round" stroke-linejoin="round"/>
<path d="M207.625 235.125C207.625 235.125 207.625 218.25 224.5 218.25C241.375 218.25 241.375 201.375 241.375 201.375" stroke="#219653" stroke-width="11.25" stroke-linecap="round" stroke-linejoin="round"/>
<path d="M190.75 195.75V212.625" stroke="#C5F2C2" stroke-width="11.25" stroke-linecap="round" stroke-linejoin="round"/>
<path d="M241.375 263.25L252.625 274.5" stroke="#219653" stroke-width="11.25" stroke-linecap="round" stroke-linejoin="round"/>
<path d="M241.375 240.75L258.25 235.125" stroke="#71DF6A" stroke-width="11.25" stroke-linecap="round" stroke-linejoin="round"/>
<path d="M144.41 256.282L197.721 309.593" stroke="#219653" stroke-width="11.25" stroke-linecap="round" stroke-linejoin="round"/>
<path d="M160.593 323.093L130.907 293.407" stroke="#219653" stroke-width="11.25" stroke-linecap="round" stroke-linejoin="round"/>
<defs>
<clipPath id="clip0_0_1">
<rect width="394" height="285" fill="white" transform="translate(-55 133.782) rotate(-19.8493)"/>
</clipPath>
</defs>
</svg>
