<svg width="360" height="474" viewBox="0 0 360 474" fill="none" xmlns="http://www.w3.org/2000/svg">
<path opacity="0.2" d="M70.7488 315.697C47.148 274.421 171.395 170.173 228.347 203.675C319.891 257.525 299.743 314.408 269.573 337.066C231.041 366.005 206.368 349.325 166.667 338.62C122.874 326.812 93.3073 355.15 70.7488 315.697Z" fill="#59CA9F"/>
<g clip-path="url(#clip0_3_5651)">
<rect x="171.221" y="325.388" width="5.18273" height="6.00447" transform="rotate(160.937 171.221 325.388)" fill="#42BED0" fill-opacity="0.9"/>
<rect x="91.1382" y="184.635" width="9.23069" height="6.00447" transform="rotate(-174.063 91.1382 184.635)" fill="#EFFDFF" fill-opacity="0.85"/>
<rect x="91.91" y="179.125" width="9.23069" height="7.35379" transform="rotate(-75.0632 91.91 179.125)" fill="#0C5E6A" fill-opacity="0.65"/>
<rect x="83.5782" y="330.627" width="13.2786" height="4.65515" transform="rotate(-176.063 83.5782 330.627)" fill="#42BED0" fill-opacity="0.6"/>
<rect x="49.794" y="229.734" width="11.9293" height="4.65515" transform="rotate(-129.063 49.794 229.734)" fill="#0C5E6A" fill-opacity="0.65"/>
<rect x="333.404" y="127.692" width="2.4841" height="6.00447" transform="rotate(84.9368 333.404 127.692)" fill="#42BED0" fill-opacity="0.45"/>
<rect x="148.796" y="63.1731" width="10.58" height="7.35379" transform="rotate(18.9368 148.796 63.1731)" fill="#228998" fill-opacity="0.35"/>
<rect x="279.118" y="229.8" width="14.628" height="3.30583" transform="rotate(-85.0632 279.118 229.8)" fill="#EFFDFF" fill-opacity="0.9"/>
<rect x="23.3411" y="338.383" width="10.58" height="7.35379" transform="rotate(-144.063 23.3411 338.383)" fill="#ADF4FF" fill-opacity="0.75"/>
<rect x="121.926" y="104.021" width="14.628" height="6.00447" transform="rotate(169.937 121.926 104.021)" fill="#42BED0" fill-opacity="0.6"/>
<rect x="148.083" y="56.4646" width="11.9293" height="7.35379" transform="rotate(-155.063 148.083 56.4646)" fill="#EFFDFF" fill-opacity="0.6"/>
<rect x="60.2044" y="110.577" width="5.18273" height="4.65515" transform="rotate(155.937 60.2044 110.577)" fill="#228998" fill-opacity="0.9"/>
<rect x="155.262" y="328.441" width="3.83341" height="4.65515" transform="rotate(91.9368 155.262 328.441)" fill="#ADF4FF"/>
<rect x="68.2794" y="135.501" width="2.4841" height="4.65515" transform="rotate(-148.063 68.2794 135.501)" fill="#228998" fill-opacity="0.75"/>
<rect x="189.814" y="270.494" width="3.83341" height="6.00447" transform="rotate(-43.0632 189.814 270.494)" fill="#6AEBFF"/>
<rect x="24.5055" y="374.895" width="6.53205" height="4.65515" transform="rotate(-3.06324 24.5055 374.895)" fill="#0C5E6A" fill-opacity="0.35"/>
<rect x="300.145" y="133.939" width="9.23069" height="3.30583" transform="rotate(103.937 300.145 133.939)" fill="#ADF4FF" fill-opacity="0.85"/>
<rect x="115.373" y="195.63" width="9.23069" height="7.35379" transform="rotate(154.937 115.373 195.63)" fill="#228998" fill-opacity="0.35"/>
<rect x="25.5238" y="256.737" width="13.2786" height="6.00447" transform="rotate(97.9368 25.5238 256.737)" fill="#228998" fill-opacity="0.35"/>
<rect x="104.914" y="263.229" width="9.23069" height="3.30583" transform="rotate(-30.0632 104.914 263.229)" fill="#42BED0" fill-opacity="0.35"/>
<rect x="206.903" y="341.952" width="13.2786" height="7.35379" transform="rotate(-166.063 206.903 341.952)" fill="#42BED0"/>
<circle cx="59.1155" cy="168.575" r="0.887177" transform="rotate(-6.06324 59.1155 168.575)" fill="#6AEBFF" fill-opacity="0.75"/>
<circle cx="234.239" cy="99.0893" r="2.91115" transform="rotate(-6.06324 234.239 99.0893)" fill="#0C5E6A" fill-opacity="0.85"/>
<circle cx="121.583" cy="315.949" r="1.56184" transform="rotate(-6.06324 121.583 315.949)" fill="#6AEBFF" fill-opacity="0.6"/>
<circle cx="86.8063" cy="173.775" r="0.887177" transform="rotate(-6.06324 86.8063 173.775)" fill="#0C5E6A" fill-opacity="0.6"/>
<circle cx="306.517" cy="128.048" r="1.56184" transform="rotate(-6.06324 306.517 128.048)" fill="#6AEBFF" fill-opacity="0.85"/>
<circle cx="309.354" cy="65.3293" r="2.91115" transform="rotate(-6.06324 309.354 65.3293)" fill="#EFFDFF" fill-opacity="0.75"/>
<circle cx="296.122" cy="151.541" r="0.887177" transform="rotate(-6.06324 296.122 151.541)" fill="#42BED0" fill-opacity="0.9"/>
<circle cx="116.864" cy="367.334" r="2.2365" transform="rotate(-6.06324 116.864 367.334)" fill="#ADF4FF" fill-opacity="0.35"/>
<circle cx="210.518" cy="259.01" r="2.91115" transform="rotate(-6.06324 210.518 259.01)" fill="#228998" fill-opacity="0.85"/>
<circle cx="133.144" cy="143.75" r="1.56184" transform="rotate(-6.06324 133.144 143.75)" fill="#6AEBFF" fill-opacity="0.9"/>
<circle cx="200.704" cy="224.095" r="0.887177" transform="rotate(-6.06324 200.704 224.095)" fill="#0C5E6A" fill-opacity="0.45"/>
<circle cx="34.5608" cy="192.894" r="0.887177" transform="rotate(-6.06324 34.5608 192.894)" fill="#ADF4FF"/>
<circle cx="165.867" cy="279.358" r="2.2365" transform="rotate(-6.06324 165.867 279.358)" fill="#42BED0" fill-opacity="0.65"/>
<circle cx="168.143" cy="147.496" r="0.887177" transform="rotate(-6.06324 168.143 147.496)" fill="#0C5E6A" fill-opacity="0.75"/>
<circle cx="273.749" cy="279.432" r="2.91115" transform="rotate(-6.06324 273.749 279.432)" fill="#228998" fill-opacity="0.65"/>
<circle cx="318.913" cy="91.4521" r="1.56184" transform="rotate(-6.06324 318.913 91.4521)" fill="#6AEBFF" fill-opacity="0.9"/>
<circle cx="193.282" cy="218.099" r="0.887177" transform="rotate(-6.06324 193.282 218.099)" fill="#6AEBFF" fill-opacity="0.75"/>
<circle cx="128.912" cy="186.943" r="0.887177" transform="rotate(-6.06324 128.912 186.943)" fill="#228998" fill-opacity="0.9"/>
<circle cx="28.4757" cy="218.643" r="1.56184" transform="rotate(-6.06324 28.4757 218.643)" fill="#42BED0" fill-opacity="0.45"/>
<circle cx="145.671" cy="357.49" r="0.887177" transform="rotate(-6.06324 145.671 357.49)" fill="#42BED0" fill-opacity="0.75"/>
<circle cx="5.57291" cy="86.0632" r="0.887177" transform="rotate(-6.06324 5.57291 86.0632)" fill="#EFFDFF" fill-opacity="0.75"/>
<circle cx="96.5873" cy="61.4697" r="2.2365" transform="rotate(-6.06324 96.5873 61.4697)" fill="#ADF4FF" fill-opacity="0.35"/>
<path d="M210.813 31.4072L213.249 32.0116L212.644 34.447L210.209 33.8427L210.813 31.4072Z" fill="#6AEBFF" fill-opacity="0.9"/>
<path d="M344.644 162.011L344.125 164.466L341.67 163.947L342.189 161.492L344.644 162.011Z" fill="#0C5E6A"/>
<path d="M127.61 217.042L124.264 216.15L125.156 212.803L128.503 213.696L127.61 217.042Z" fill="#42BED0" fill-opacity="0.75"/>
<path d="M334.285 325.906L332.041 328.079L329.037 327.221L328.278 324.191L330.522 322.019L333.526 322.876L334.285 325.906Z" fill="#ADF4FF" fill-opacity="0.85"/>
<path d="M8.66871 307.069L13.7507 305.213L12.8171 310.543L8.66871 307.069Z" fill="#0C5E6A" fill-opacity="0.35"/>
<path d="M279.608 98.5158L277.91 101.137L274.79 100.977L273.369 98.1957L275.067 95.5741L278.187 95.7342L279.608 98.5158Z" fill="#6AEBFF" fill-opacity="0.45"/>
<path d="M37.6204 278.109L40.7406 274.981L43.8677 278.102L40.7475 281.229L37.6204 278.109Z" fill="#0C5E6A" fill-opacity="0.9"/>
<path d="M129.765 53.9853L130.351 49.7842L133.696 52.392L129.765 53.9853Z" fill="#ADF4FF" fill-opacity="0.35"/>
<path d="M168.706 239.373L171.172 237.888L173.347 239.774L172.225 242.426L169.357 242.178L168.706 239.373Z" fill="#ADF4FF" fill-opacity="0.35"/>
<path d="M143.26 59.7766L140.716 58.4278L141.213 55.592L144.064 55.1882L145.329 57.7744L143.26 59.7766Z" fill="#228998" fill-opacity="0.85"/>
<path d="M69.9023 137.019L72.4057 137.191L72.2334 139.694L69.73 139.522L69.9023 137.019Z" fill="#42BED0" fill-opacity="0.35"/>
<path d="M324.902 199.765L325.256 202.622L322.648 203.842L320.683 201.738L322.076 199.219L324.902 199.765Z" fill="#228998" fill-opacity="0.85"/>
<path d="M191.56 122.327L187.291 121.188L188.43 116.92L192.698 118.058L191.56 122.327Z" fill="#EFFDFF" fill-opacity="0.65"/>
<path d="M178.323 223.267L176.191 225.48L175.34 222.526L178.323 223.267Z" fill="#EFFDFF" fill-opacity="0.9"/>
<path d="M144.12 282.759L144.047 287.224L139.779 288.534L137.214 284.879L139.897 281.31L144.12 282.759Z" fill="#42BED0" fill-opacity="0.35"/>
<path d="M73.4467 239.622L73.449 241.708L71.466 242.354L70.2381 240.668L71.4622 238.979L73.4467 239.622Z" fill="#6AEBFF" fill-opacity="0.45"/>
<path d="M20.4434 299.36L16.7799 299.108L15.8876 295.546L18.9996 293.597L21.8152 295.954L20.4434 299.36Z" fill="#EFFDFF" fill-opacity="0.45"/>
<path d="M208.356 262.801L207.433 259.116L210.162 256.475L213.815 257.518L214.738 261.202L212.008 263.844L208.356 262.801Z" fill="#42BED0" fill-opacity="0.85"/>
<path d="M266.506 313.781L268.639 316.063L267.729 319.051L264.686 319.757L262.553 317.475L263.463 314.487L266.506 313.781Z" fill="#0C5E6A" fill-opacity="0.6"/>
<path d="M73.6377 108.984L78.5437 111.265L74.1152 114.373L73.6377 108.984Z" fill="#ADF4FF" fill-opacity="0.9"/>
<path d="M249.515 136.226L254.77 137.337L253.659 142.593L248.404 141.482L249.515 136.226Z" fill="#228998" fill-opacity="0.45"/>
<path d="M224.782 311.319L221.379 312.699L219.016 309.888L220.958 306.772L224.522 307.656L224.782 311.319Z" fill="#6AEBFF" fill-opacity="0.85"/>
<path d="M140.72 308.264L140.159 309.364L141.241 309.961L140.008 310.025L140.032 311.26L139.36 310.224L138.303 310.862L138.864 309.762L137.782 309.166L139.015 309.102L138.991 307.867L139.663 308.903L140.72 308.264Z" fill="#0C5E6A" fill-opacity="0.6"/>
<path d="M148.9 159.81L149.893 157.769L148.258 156.195L150.506 156.508L151.499 154.467L151.895 156.702L154.143 157.015L152.14 158.083L152.537 160.317L150.903 158.743L148.9 159.81Z" fill="#6AEBFF" fill-opacity="0.35"/>
<path d="M245.69 89.8079L243.291 90.2037L242.03 92.2822L241.635 89.8836L239.556 88.6226L241.955 88.2268L243.216 86.1483L243.612 88.547L245.69 89.8079Z" fill="#ADF4FF"/>
<path d="M360.605 285.2L362.159 284.097L362.333 282.199L363.436 283.753L365.334 283.927L363.78 285.03L363.606 286.928L362.503 285.374L360.605 285.2Z" fill="#42BED0"/>
<path d="M144.327 39.3491L145.67 40.3986L146.762 39.0904L146.525 40.7781L148.204 41.0701L146.624 41.7083L147.211 43.3085L145.868 42.259L144.775 43.5672L145.013 41.8795L143.334 41.5875L144.914 40.9493L144.327 39.3491Z" fill="#0C5E6A"/>
<path d="M212.309 313.957L212.578 316.373L214.588 317.741L212.172 318.011L210.804 320.021L210.534 317.605L208.525 316.237L210.941 315.967L212.309 313.957Z" fill="#0C5E6A" fill-opacity="0.9"/>
<path d="M61.5937 163.297L61.1071 164.589L61.7715 165.8L60.4791 165.313L59.2685 165.978L59.7551 164.685L59.0907 163.475L60.3831 163.961L61.5937 163.297Z" fill="#EFFDFF" fill-opacity="0.45"/>
<path d="M352.059 189.975L351.533 192.084L353.624 192.679L351.535 193.277L352.065 195.385L350.502 193.875L348.942 195.389L349.468 193.28L347.377 192.685L349.467 192.087L348.936 189.979L350.499 191.489L352.059 189.975Z" fill="#228998" fill-opacity="0.45"/>
<path d="M312.345 160.558L311.301 161.998L312.348 163.437L310.656 162.889L309.611 164.329L309.609 162.55L307.917 162.002L309.608 161.45L309.606 159.671L310.654 161.109L312.345 160.558Z" fill="#ADF4FF" fill-opacity="0.6"/>
<path d="M326.094 234.564L323.923 234.678L323.966 236.851L322.782 235.028L320.922 236.152L321.909 234.215L320.005 233.166L322.176 233.052L322.133 230.879L323.317 232.702L325.177 231.578L324.19 233.515L326.094 234.564Z" fill="#6AEBFF" fill-opacity="0.75"/>
<path d="M262.35 343.399L261.486 342.441L260.309 342.967L260.952 341.85L260.089 340.893L261.35 341.16L261.993 340.042L262.13 341.324L263.391 341.591L262.214 342.117L262.35 343.399Z" fill="#EFFDFF" fill-opacity="0.75"/>
<path d="M4.13075 70.4844L4.91721 72.2206L6.74714 72.7538L5.01095 73.5402L4.47782 75.3701L3.69136 73.6339L1.86143 73.1008L3.59762 72.3144L4.13075 70.4844Z" fill="#0C5E6A" fill-opacity="0.6"/>
<path d="M234.447 252.403L235.118 254.471L237.207 253.867L235.752 255.482L237.319 256.988L235.193 256.536L234.672 258.646L234.001 256.579L231.912 257.183L233.367 255.568L231.8 254.061L233.926 254.514L234.447 252.403Z" fill="#0C5E6A"/>
<path d="M257.714 215.9L258.457 217.943L260.523 217.266L259.125 218.931L260.744 220.382L258.603 220.004L258.156 222.131L257.413 220.089L255.347 220.765L256.745 219.1L255.126 217.649L257.267 218.027L257.714 215.9Z" fill="#ADF4FF" fill-opacity="0.45"/>
<path d="M44.7142 289.852L45.1126 288.118L43.5864 287.203L45.3588 287.046L45.7571 285.312L46.4542 286.949L48.2265 286.792L46.885 287.961L47.582 289.598L46.0558 288.683L44.7142 289.852Z" fill="#42BED0"/>
<path d="M150.467 206.132L149.554 207.805L150.23 209.587L148.557 208.674L146.774 209.349L147.688 207.676L147.012 205.894L148.685 206.807L150.467 206.132Z" fill="#EFFDFF" fill-opacity="0.65"/>
<path d="M146.104 206.594L146.081 205.306L144.847 204.93L146.066 204.509L146.042 203.22L146.819 204.249L148.037 203.828L147.299 204.884L148.076 205.913L146.843 205.538L146.104 206.594Z" fill="#ADF4FF" fill-opacity="0.45"/>
<path d="M148.644 153.601L149.394 151.987L148.091 150.775L149.858 150.99L150.608 149.377L150.949 151.123L152.716 151.338L151.16 152.202L151.502 153.948L150.199 152.736L148.644 153.601Z" fill="#ADF4FF" fill-opacity="0.75"/>
<path d="M112.879 308.026L110.575 307.249L108.486 308.492L109.263 306.189L108.019 304.099L110.323 304.876L112.412 303.633L111.635 305.937L112.879 308.026Z" fill="#42BED0" fill-opacity="0.65"/>
<path d="M153.761 332.759L155.122 333.785L156.192 332.458L155.984 334.15L157.668 334.412L156.099 335.078L156.713 336.668L155.352 335.642L154.283 336.969L154.491 335.277L152.807 335.015L154.376 334.349L153.761 332.759Z" fill="#0C5E6A" fill-opacity="0.85"/>
<path d="M223.317 135.76L222.624 137.398L223.968 138.564L222.195 138.411L221.502 140.05L221.1 138.316L219.327 138.163L220.851 137.245L220.449 135.512L221.793 136.678L223.317 135.76Z" fill="#EFFDFF" fill-opacity="0.65"/>
<path d="M126.183 99.1549L125.227 101.213L126.888 102.759L124.635 102.485L123.678 104.543L123.243 102.315L120.99 102.041L122.974 100.939L122.538 98.7114L124.2 100.257L126.183 99.1549Z" fill="#6AEBFF" fill-opacity="0.35"/>
<path d="M163.773 116.682L165.636 117.802L166.816 115.976L166.778 118.15L168.949 118.258L167.047 119.312L168.039 121.246L166.176 120.126L164.996 121.952L165.034 119.779L162.863 119.67L164.765 118.617L163.773 116.682Z" fill="#ADF4FF" fill-opacity="0.75"/>
</g>
<path opacity="0.2" d="M160.593 306.093L130.907 276.407L117.97 312.007C117.609 312.988 117.536 314.052 117.761 315.074C117.985 316.095 118.498 317.031 119.237 317.77C119.977 318.51 120.912 319.022 121.934 319.247C122.955 319.471 124.019 319.399 125.001 319.038L160.593 306.093Z" fill="#238D9D"/>
<path opacity="0.2" d="M144.407 239.283L197.718 292.594L226.546 282.117C227.413 281.803 228.187 281.275 228.796 280.582C229.405 279.889 229.829 279.054 230.029 278.154C230.229 277.253 230.198 276.317 229.94 275.431C229.681 274.546 229.203 273.74 228.55 273.089L163.912 208.486C163.26 207.834 162.455 207.358 161.57 207.1C160.686 206.843 159.751 206.812 158.851 207.012C157.952 207.212 157.118 207.635 156.425 208.243C155.733 208.851 155.205 209.624 154.891 210.49L144.407 239.283Z" fill="#238D9D"/>
<path d="M117.97 312.007L154.891 210.489C155.205 209.622 155.732 208.848 156.425 208.239C157.118 207.63 157.954 207.206 158.854 207.007C159.754 206.807 160.691 206.837 161.576 207.096C162.462 207.355 163.267 207.833 163.919 208.486L228.522 273.089C229.173 273.741 229.649 274.546 229.906 275.431C230.164 276.316 230.193 277.252 229.993 278.151C229.792 279.051 229.368 279.885 228.759 280.577C228.151 281.269 227.377 281.796 226.511 282.11L124.994 319.031C124.013 319.389 122.951 319.46 121.932 319.234C120.913 319.009 119.979 318.497 119.241 317.759C118.503 317.021 117.991 316.088 117.766 315.068C117.541 314.049 117.611 312.987 117.97 312.007Z" stroke="#238D9D" stroke-width="11.25" stroke-linecap="round" stroke-linejoin="round"/>
<path d="M207.625 218.125C207.625 218.125 207.625 201.25 224.5 201.25C241.375 201.25 241.375 184.375 241.375 184.375" stroke="#238D9D" stroke-width="11.25" stroke-linecap="round" stroke-linejoin="round"/>
<path d="M190.75 178.75V195.625" stroke="#ADF4FF" stroke-width="11.25" stroke-linecap="round" stroke-linejoin="round"/>
<path d="M241.375 246.25L252.625 257.5" stroke="#238D9D" stroke-width="11.25" stroke-linecap="round" stroke-linejoin="round"/>
<path d="M241.375 223.75L258.25 218.125" stroke="#42BDD0" stroke-width="11.25" stroke-linecap="round" stroke-linejoin="round"/>
<path d="M144.407 239.282L197.718 292.593" stroke="#238D9D" stroke-width="11.25" stroke-linecap="round" stroke-linejoin="round"/>
<path d="M160.593 306.093L130.907 276.407" stroke="#238D9D" stroke-width="11.25" stroke-linecap="round" stroke-linejoin="round"/>
<defs>
<clipPath id="clip0_3_5651">
<rect width="458.728" height="427.332" fill="white" transform="translate(-21.0042 48.6438) rotate(-6.06324)"/>
</clipPath>
</defs>
</svg>
