<svg width="360" height="402" viewBox="0 0 360 402" fill="none" xmlns="http://www.w3.org/2000/svg">
<g clip-path="url(#clip0_3_5651)">
<rect x="243.108" y="344.052" width="17.29" height="6.54" transform="rotate(20.1507 243.108 344.052)" fill="#04955E" fill-opacity="0.45"/>
<rect x="157.202" y="106.083" width="12.29" height="5.54" transform="rotate(-2.84932 157.202 106.083)" fill="#04955E" fill-opacity="0.9"/>
<rect x="240.532" y="239.729" width="13.29" height="6.54" transform="rotate(160.151 240.532 239.729)" fill="#E6F4EF" fill-opacity="0.45"/>
<rect x="5.96246" y="296.765" width="17.29" height="4.54" transform="rotate(137.151 5.96246 296.765)" fill="#58DA50" fill-opacity="0.85"/>
<rect x="292.401" y="162.531" width="5.29" height="5.54" transform="rotate(-101.849 292.401 162.531)" fill="#58DA50" fill-opacity="0.9"/>
<rect x="107.655" y="213.275" width="12.29" height="5.54" transform="rotate(-124.849 107.655 213.275)" fill="#E6F4EF" fill-opacity="0.45"/>
<rect x="145.693" y="242.071" width="7.29" height="5.54" transform="rotate(-5.84932 145.693 242.071)" fill="#E6F4EF" fill-opacity="0.6"/>
<rect x="40.733" y="334.182" width="14.29" height="5.54" transform="rotate(92.1507 40.733 334.182)" fill="#04955E" fill-opacity="0.85"/>
<rect x="368.073" y="319.141" width="13.29" height="4.54" transform="rotate(149.151 368.073 319.141)" fill="#04955E"/>
<rect x="233.964" y="89.0046" width="10.29" height="5.54" transform="rotate(-150.849 233.964 89.0046)" fill="#04955E" fill-opacity="0.75"/>
<rect x="272.816" y="317.38" width="11.29" height="6.54" transform="rotate(22.1507 272.816 317.38)" fill="#04955E" fill-opacity="0.65"/>
<rect x="47.079" y="360.596" width="9.29" height="7.54" transform="rotate(-105.849 47.079 360.596)" fill="#E6F4EF"/>
<rect x="307.349" y="127.366" width="14.29" height="3.54" transform="rotate(168.151 307.349 127.366)" fill="#04955E" fill-opacity="0.65"/>
<rect x="-9.23518" y="219.325" width="10.29" height="6.54" transform="rotate(24.1507 -9.23518 219.325)" fill="#04955E" fill-opacity="0.85"/>
<rect x="11.6139" y="218.177" width="19.29" height="3.54" transform="rotate(159.151 11.6139 218.177)" fill="#04955E" fill-opacity="0.75"/>
<rect x="289.451" y="145.522" width="17.29" height="3.54" transform="rotate(178.151 289.451 145.522)" fill="#58DA50" fill-opacity="0.65"/>
<rect x="261.104" y="137.681" width="19.29" height="7.54" transform="rotate(-43.8493 261.104 137.681)" fill="#04955E" fill-opacity="0.85"/>
<rect x="30.4296" y="173.111" width="15.29" height="7.54" transform="rotate(-128.849 30.4296 173.111)" fill="#58DA50" fill-opacity="0.85"/>
<circle cx="24.9163" cy="325.193" r="3.175" transform="rotate(-19.8493 24.9163 325.193)" fill="#58DA50" fill-opacity="0.9"/>
<circle cx="139.059" cy="233.488" r="2.675" transform="rotate(-19.8493 139.059 233.488)" fill="#58DA50" fill-opacity="0.65"/>
<circle cx="318.848" cy="110.111" r="1.675" transform="rotate(-19.8493 318.848 110.111)" fill="#58DA50" fill-opacity="0.9"/>
<circle cx="198.64" cy="109.916" r="2.675" transform="rotate(-19.8493 198.64 109.916)" fill="#E6F4EF" fill-opacity="0.9"/>
<circle cx="329.745" cy="90.2299" r="1.675" transform="rotate(-19.8493 329.745 90.2299)" fill="#58DA50" fill-opacity="0.85"/>
<circle cx="20.2642" cy="213.646" r="2.675" transform="rotate(-19.8493 20.2642 213.646)" fill="#04955E" fill-opacity="0.65"/>
<circle cx="318.072" cy="40.2225" r="2.675" transform="rotate(-19.8493 318.072 40.2225)" fill="#E6F4EF" fill-opacity="0.35"/>
<circle cx="47.8887" cy="128.189" r="2.675" transform="rotate(-19.8493 47.8887 128.189)" fill="#04955E" fill-opacity="0.6"/>
<circle cx="161.239" cy="247.808" r="3.675" transform="rotate(-19.8493 161.239 247.808)" fill="#E6F4EF" fill-opacity="0.45"/>
<circle cx="174.962" cy="316.744" r="1.175" transform="rotate(-19.8493 174.962 316.744)" fill="#04955E" fill-opacity="0.85"/>
<circle cx="267.042" cy="343.572" r="1.675" transform="rotate(-19.8493 267.042 343.572)" fill="#58DA50" fill-opacity="0.65"/>
<circle cx="83.1195" cy="389.235" r="1.175" transform="rotate(-19.8493 83.1195 389.235)" fill="#E6F4EF" fill-opacity="0.85"/>
<circle cx="253.764" cy="395.144" r="2.675" transform="rotate(-19.8493 253.764 395.144)" fill="#E6F4EF" fill-opacity="0.6"/>
<circle cx="230.039" cy="292.608" r="3.175" transform="rotate(-19.8493 230.039 292.608)" fill="#04955E" fill-opacity="0.75"/>
<circle cx="114.104" cy="273.328" r="3.675" transform="rotate(-19.8493 114.104 273.328)" fill="#04955E" fill-opacity="0.35"/>
<circle cx="250.299" cy="177.915" r="2.175" transform="rotate(-19.8493 250.299 177.915)" fill="#58DA50" fill-opacity="0.35"/>
<circle cx="241.845" cy="322.368" r="2.175" transform="rotate(-19.8493 241.845 322.368)" fill="#58DA50" fill-opacity="0.85"/>
<circle cx="307.694" cy="222.049" r="2.175" transform="rotate(-19.8493 307.694 222.049)" fill="#04955E" fill-opacity="0.35"/>
<path d="M208.881 215.404L213.353 214.707L215.397 218.745L212.189 221.937L208.162 219.872L208.881 215.404Z" fill="#04955E" fill-opacity="0.6"/>
<path d="M314.059 174.197L316.019 177.612L313.376 180.532L309.783 178.921L310.205 175.005L314.059 174.197Z" fill="#04955E" fill-opacity="0.6"/>
<path d="M47.9316 211.721L44.5512 213.988L44.278 209.927L47.9316 211.721Z" fill="#E6F4EF" fill-opacity="0.9"/>
<path d="M24.6139 301.385L25.1014 304.193L22.9133 306.019L20.2378 305.037L19.7503 302.229L21.9383 300.403L24.6139 301.385Z" fill="#58DA50" fill-opacity="0.85"/>
<path d="M297.88 82.6466L294.72 84.8466L291.235 83.2103L290.91 79.3741L294.069 77.1741L297.554 78.8104L297.88 82.6466Z" fill="#E6F4EF" fill-opacity="0.65"/>
<path d="M40.3484 401.849L37.1231 404.266L34.706 401.041L37.9312 398.624L40.3484 401.849Z" fill="#58DA50" fill-opacity="0.6"/>
<path d="M334.45 138.38L331.311 140.908L328.782 137.769L331.921 135.241L334.45 138.38Z" fill="#04955E" fill-opacity="0.75"/>
<path d="M244.722 359.45L242.436 355.3L246.585 353.014L248.871 357.164L244.722 359.45Z" fill="#04955E" fill-opacity="0.6"/>
<path d="M155.023 364.075L159.959 365.412L160.213 370.519L155.434 372.339L152.226 368.356L155.023 364.075Z" fill="#04955E" fill-opacity="0.75"/>
<path d="M183.448 75.3778L185.496 77.2317L184.366 79.7525L181.619 79.4565L181.052 76.7528L183.448 75.3778Z" fill="#58DA50" fill-opacity="0.35"/>
<path d="M191.814 242.156L191.575 239.818L193.479 238.442L195.624 239.404L195.863 241.741L193.958 243.118L191.814 242.156Z" fill="#58DA50" fill-opacity="0.45"/>
<path d="M168.442 203.755L171.567 201.147L172.264 205.157L168.442 203.755Z" fill="#04955E" fill-opacity="0.35"/>
<path d="M37.0117 392.491L33.6617 392.483L31.9943 389.577L33.6769 386.68L37.0269 386.689L38.6943 389.595L37.0117 392.491Z" fill="#04955E" fill-opacity="0.9"/>
<path d="M204.276 40.1618L208.939 41.7812L205.205 45.0099L204.276 40.1618Z" fill="#04955E" fill-opacity="0.9"/>
<path d="M21.9707 249.992L17.7089 245.555L22.1454 241.293L26.4072 245.73L21.9707 249.992Z" fill="#58DA50" fill-opacity="0.75"/>
<path d="M1.84189 132L-2.88504 132.318L-3.20309 127.591L1.52384 127.273L1.84189 132Z" fill="#58DA50" fill-opacity="0.85"/>
<path d="M205.873 157.447L203.248 159.798L204.673 163.021L201.626 161.251L199.001 163.602L199.742 160.157L196.695 158.388L200.201 158.028L200.942 154.584L202.367 157.806L205.873 157.447Z" fill="#04955E" fill-opacity="0.65"/>
<path d="M296.057 150.916L293.688 149.427L291.541 151.22L292.225 148.507L289.857 147.019L292.647 146.831L293.331 144.119L294.372 146.715L297.163 146.527L295.016 148.32L296.057 150.916Z" fill="#04955E"/>
<path d="M246.421 366.583L244.682 368.526L245.024 371.11L243.082 369.371L240.497 369.713L242.237 367.771L241.894 365.186L243.837 366.926L246.421 366.583Z" fill="#E6F4EF" fill-opacity="0.35"/>
<path d="M256.504 266.641L256.287 263.653L253.877 261.872L256.866 261.655L258.646 259.245L258.863 262.234L261.273 264.014L258.285 264.231L256.504 266.641Z" fill="#04955E" fill-opacity="0.85"/>
<path d="M304.156 360.754L305.094 359.006L303.378 358.012L305.361 357.951L305.363 355.968L306.408 357.654L308.127 356.664L307.189 358.412L308.905 359.406L306.923 359.467L306.92 361.451L305.875 359.765L304.156 360.754Z" fill="#58DA50" fill-opacity="0.9"/>
<path d="M284.745 328.43L284.028 330.529L285.155 332.439L283.056 331.723L281.146 332.85L281.862 330.751L280.735 328.84L282.834 329.557L284.745 328.43Z" fill="#04955E" fill-opacity="0.6"/>
<path d="M137.016 147.552L139.162 145.948L137.629 143.751L140.091 144.807L141.226 142.38L141.543 145.041L144.212 144.811L142.066 146.415L143.6 148.612L141.138 147.556L140.002 149.983L139.686 147.322L137.016 147.552Z" fill="#04955E" fill-opacity="0.75"/>
<path d="M110.686 306.421L109.194 305.114L107.839 306.563L108.226 304.617L106.294 304.169L108.171 303.53L107.594 301.633L109.086 302.94L110.441 301.491L110.055 303.436L111.987 303.885L110.109 304.524L110.686 306.421Z" fill="#58DA50" fill-opacity="0.85"/>
<path d="M268.28 312.421L267.7 310.28L265.698 309.327L267.838 308.747L268.792 306.744L269.372 308.885L271.375 309.839L269.234 310.419L268.28 312.421Z" fill="#58DA50" fill-opacity="0.75"/>
<path d="M265.051 275.694L266.618 274.34L265.814 272.432L267.586 273.503L269.152 272.148L268.681 274.165L270.453 275.236L268.39 275.411L267.919 277.427L267.115 275.519L265.051 275.694Z" fill="#58DA50"/>
<path d="M332.476 317.265L331.234 315.719L329.648 316.911L330.366 315.062L328.541 314.284L330.501 313.982L330.262 312.013L331.505 313.559L333.09 312.367L332.372 314.216L334.197 314.994L332.237 315.296L332.476 317.265Z" fill="#04955E" fill-opacity="0.65"/>
<path d="M298.483 310.689L297.121 307.168L293.562 305.911L297.082 304.549L298.34 300.99L299.702 304.51L303.261 305.767L299.741 307.13L298.483 310.689Z" fill="#04955E"/>
<path d="M143.095 131.088L142.001 134.292L143.722 137.208L140.518 136.114L137.602 137.834L138.695 134.63L136.975 131.715L140.179 132.808L143.095 131.088Z" fill="#04955E" fill-opacity="0.35"/>
<path d="M200.225 130.794L197.019 129.738L195.86 132.909L195.171 129.604L191.847 130.186L194.364 127.937L192.198 125.349L195.404 126.404L196.562 123.234L197.251 126.538L200.576 125.957L198.059 128.205L200.225 130.794Z" fill="#E6F4EF" fill-opacity="0.75"/>
<path d="M306.819 273.079L303.522 273.849L301.961 276.853L301.191 273.557L298.187 271.996L301.483 271.225L303.044 268.221L303.815 271.518L306.819 273.079Z" fill="#58DA50" fill-opacity="0.35"/>
<path d="M151.185 89.3908L154.274 88.0299L153.014 84.8987L155.737 86.8932L157.818 84.2364L157.453 87.5917L160.794 88.066L157.706 89.4269L158.966 92.5581L156.243 90.5636L154.161 93.2204L154.527 89.8651L151.185 89.3908Z" fill="#E6F4EF" fill-opacity="0.65"/>
<path d="M178.239 128.009L179.73 129.801L181.57 128.368L180.764 130.556L182.924 131.432L180.627 131.828L180.948 134.137L179.456 132.346L177.617 133.778L178.423 131.591L176.263 130.715L178.56 130.319L178.239 128.009Z" fill="#04955E" fill-opacity="0.45"/>
<path d="M91.7454 307.083L91.6677 309.152L93.6116 309.865L91.6197 310.431L91.542 312.5L90.3886 310.78L88.3967 311.346L89.6758 309.717L88.5224 307.998L90.4663 308.711L91.7454 307.083Z" fill="#04955E" fill-opacity="0.9"/>
</g>
<path opacity="0.2" d="M70.7488 332.697C47.148 291.421 171.395 187.173 228.347 220.675C319.891 274.525 299.743 331.408 269.573 354.066C231.041 383.005 206.368 366.325 166.667 355.62C122.874 343.812 93.3073 372.15 70.7488 332.697Z" fill="#59CA9F"/>
<path opacity="0.2" d="M166.16 308.785L145.215 287.84L136.087 312.958C135.832 313.65 135.781 314.401 135.94 315.122C136.098 315.842 136.46 316.502 136.981 317.024C137.503 317.546 138.163 317.907 138.884 318.066C139.604 318.224 140.355 318.173 141.048 317.918L166.16 308.785Z" fill="#219653"/>
<path opacity="0.2" d="M154.74 261.647L192.354 299.261L212.694 291.869C213.306 291.647 213.852 291.275 214.281 290.786C214.711 290.297 215.01 289.708 215.151 289.072C215.292 288.437 215.27 287.776 215.088 287.152C214.905 286.527 214.568 285.958 214.108 285.499L168.502 239.918C168.042 239.458 167.474 239.122 166.85 238.94C166.226 238.759 165.566 238.737 164.931 238.878C164.297 239.019 163.708 239.318 163.219 239.747C162.731 240.176 162.359 240.721 162.137 241.332L154.74 261.647Z" fill="#219653"/>
<path d="M136.087 312.957L162.137 241.331C162.358 240.719 162.731 240.173 163.22 239.744C163.708 239.314 164.298 239.015 164.933 238.874C165.568 238.733 166.229 238.755 166.854 238.937C167.478 239.12 168.047 239.457 168.507 239.918L214.088 285.499C214.547 285.959 214.883 286.527 215.065 287.151C215.246 287.776 215.267 288.436 215.125 289.071C214.984 289.705 214.685 290.294 214.255 290.782C213.826 291.27 213.28 291.642 212.669 291.863L141.043 317.913C140.351 318.166 139.602 318.216 138.883 318.057C138.164 317.898 137.505 317.537 136.984 317.016C136.463 316.495 136.102 315.837 135.943 315.118C135.784 314.399 135.834 313.649 136.087 312.957Z" stroke="#219653" stroke-width="7.9375" stroke-linecap="round" stroke-linejoin="round"/>
<path d="M199.344 246.719C199.344 246.719 199.344 234.812 211.25 234.812C223.156 234.812 223.156 222.906 223.156 222.906" stroke="#219653" stroke-width="7.9375" stroke-linecap="round" stroke-linejoin="round"/>
<path d="M187.438 218.938V230.844" stroke="#219653" stroke-width="7.9375" stroke-linecap="round" stroke-linejoin="round"/>
<path d="M223.156 266.562L231.094 274.5" stroke="#219653" stroke-width="7.9375" stroke-linecap="round" stroke-linejoin="round"/>
<path d="M223.156 250.688L235.062 246.719" stroke="#219653" stroke-width="7.9375" stroke-linecap="round" stroke-linejoin="round"/>
<path d="M154.74 261.646L192.354 299.26" stroke="#219653" stroke-width="7.9375" stroke-linecap="round" stroke-linejoin="round"/>
<path d="M166.16 308.785L145.215 287.84" stroke="#219653" stroke-width="7.9375" stroke-linecap="round" stroke-linejoin="round"/>
<defs>
<clipPath id="clip0_3_5651">
<rect width="394" height="285" fill="white" transform="translate(-55 133.782) rotate(-19.8493)"/>
</clipPath>
</defs>
</svg>
