<svg width="42" height="44" viewBox="0 0 42 44" fill="none" xmlns="http://www.w3.org/2000/svg">
<path d="M1.66932 13.9947L6.15069 12.1841L6.15069 7.35071L10.984 7.35071L12.7946 2.86944L17.4497 4.75024L21 1.19995L24.5502 4.7502L29.2053 2.86944L31.0158 7.35071L35.8492 7.35071V12.1841L40.3305 13.9947L38.4498 18.6497L42 22.2L38.4497 25.7502L40.3305 30.4054L35.8492 32.216V37.0492H31.0159L29.2053 41.5306L24.5501 39.6498L21 43.2L17.4498 39.6498L12.7946 41.5306L10.9839 37.0492H6.15069L6.15069 32.216L1.66934 30.4054L3.55019 25.7501L0 22.2L3.55012 18.6498L1.66932 13.9947Z" fill="black"/>
<path d="M6.75098 30.6113L6.375 30.46L2.4502 28.874L4.10645 24.7754L4.25488 24.4072L3.97461 24.126L0.847656 21L3.97461 17.874L4.25488 17.5938L4.10645 17.2256L2.44922 13.126L6.375 11.54L6.75098 11.3887V6.75098H11.3887L11.54 6.37598L13.126 2.44922L17.2246 4.10645L17.5928 4.25488L17.874 3.97461L21 0.847656L24.126 3.97461L24.4072 4.25488L24.7754 4.10645L28.873 2.44922L30.46 6.37598L30.6113 6.75098H35.249V11.3887L35.624 11.54L39.5498 13.126L37.8936 17.2246L37.7451 17.5928L38.0254 17.874L41.1514 21L38.0254 24.126L37.7451 24.4072L37.8936 24.7754L39.5488 28.874L35.624 30.46L35.249 30.6113V35.249H30.6113L30.46 35.624L28.873 39.5498L24.7744 37.8936L24.4062 37.7451L21 41.1514L17.5938 37.7451L17.2246 37.8936L13.125 39.5488L11.54 35.624L11.3887 35.249H6.75098V30.6113Z" fill="url(#paint0_linear_210_22179)" stroke="white" stroke-width="1.2"/>
<path d="M15.728 19.8008C15.6968 19.4857 15.5627 19.2409 15.3257 19.0664C15.0887 18.8919 14.7671 18.8047 14.3608 18.8047C14.0848 18.8047 13.8517 18.8437 13.6616 18.9219C13.4715 18.9974 13.3257 19.1029 13.2241 19.2383C13.1252 19.3737 13.0757 19.5273 13.0757 19.6992C13.0705 19.8424 13.1004 19.9674 13.1655 20.0742C13.2332 20.181 13.3257 20.2734 13.4429 20.3516C13.5601 20.4271 13.6955 20.4935 13.8491 20.5508C14.0028 20.6055 14.1668 20.6523 14.3413 20.6914L15.0601 20.8633C15.409 20.9414 15.7293 21.0456 16.021 21.1758C16.3127 21.306 16.5653 21.4661 16.7788 21.6562C16.9924 21.8464 17.1577 22.0703 17.2749 22.3281C17.3947 22.5859 17.4559 22.8815 17.4585 23.2148C17.4559 23.7044 17.3309 24.1289 17.0835 24.4883C16.8387 24.8451 16.4845 25.1224 16.021 25.3203C15.5601 25.5156 15.0041 25.6133 14.353 25.6133C13.7072 25.6133 13.1447 25.5143 12.6655 25.3164C12.189 25.1185 11.8166 24.8255 11.5483 24.4375C11.2827 24.0469 11.1434 23.5638 11.1304 22.9883H12.7671C12.7853 23.2565 12.8621 23.4805 12.9976 23.6602C13.1356 23.8372 13.3192 23.9714 13.5483 24.0625C13.7801 24.151 14.0418 24.1953 14.3335 24.1953C14.62 24.1953 14.8687 24.1536 15.0796 24.0703C15.2931 23.987 15.4585 23.8711 15.5757 23.7227C15.6929 23.5742 15.7515 23.4036 15.7515 23.2109C15.7515 23.0312 15.6981 22.8802 15.5913 22.7578C15.4871 22.6354 15.3335 22.5312 15.1304 22.4453C14.9299 22.3594 14.6838 22.2812 14.3921 22.2109L13.521 21.9922C12.8465 21.8281 12.314 21.5716 11.9233 21.2227C11.5327 20.8737 11.3387 20.4036 11.3413 19.8125C11.3387 19.3281 11.4676 18.9049 11.728 18.543C11.991 18.181 12.3517 17.8984 12.8101 17.6953C13.2684 17.4922 13.7892 17.3906 14.3726 17.3906C14.9663 17.3906 15.4845 17.4922 15.9272 17.6953C16.3726 17.8984 16.7189 18.181 16.9663 18.543C17.2137 18.9049 17.3413 19.3242 17.3491 19.8008H15.728ZM22.0298 17.5V25.5H20.3384V19.1055H20.2915L18.4595 20.2539V18.7539L20.4399 17.5H22.0298ZM28.9194 17.5H30.6108V22.6953C30.6108 23.2786 30.4715 23.7891 30.1929 24.2266C29.9168 24.6641 29.5301 25.0052 29.0327 25.25C28.5353 25.4922 27.9559 25.6133 27.2944 25.6133C26.6304 25.6133 26.0496 25.4922 25.5522 25.25C25.0549 25.0052 24.6681 24.6641 24.3921 24.2266C24.116 23.7891 23.978 23.2786 23.978 22.6953V17.5H25.6694V22.5508C25.6694 22.8555 25.7358 23.1263 25.8687 23.3633C26.0041 23.6003 26.1942 23.7865 26.439 23.9219C26.6838 24.0573 26.9689 24.125 27.2944 24.125C27.6226 24.125 27.9077 24.0573 28.1499 23.9219C28.3947 23.7865 28.5835 23.6003 28.7163 23.3633C28.8517 23.1263 28.9194 22.8555 28.9194 22.5508V17.5Z" fill="black"/>
<defs>
<linearGradient id="paint0_linear_210_22179" x1="2.20566e-08" y1="30.3" x2="42.6248" y2="29.0415" gradientUnits="userSpaceOnUse">
<stop stop-color="#FCFF52"/>
<stop offset="1" stop-color="#E2E622"/>
</linearGradient>
</defs>
</svg>