<svg width="360" height="287" viewBox="0 0 360 287" fill="none" xmlns="http://www.w3.org/2000/svg">
<g clip-path="url(#clip0_3_5651)">
<rect x="190.682" y="46.4248" width="12.29" height="5.54" transform="rotate(17 190.682 46.4248)" fill="#04955E" fill-opacity="0.9"/>
<rect x="223.682" y="200.425" width="13.29" height="6.54" transform="rotate(-180 223.682 200.425)" fill="#E6F4EF" fill-opacity="0.45"/>
<rect x="298.682" y="145.425" width="5.29" height="5.54" transform="rotate(-82 298.682 145.425)" fill="#58DA50" fill-opacity="0.9"/>
<rect x="107.682" y="130.425" width="12.29" height="5.54" transform="rotate(-105 107.682 130.425)" fill="#E6F4EF" fill-opacity="0.45"/>
<rect x="345.682" y="268.425" width="15.29" height="4.54" transform="rotate(-122 345.682 268.425)" fill="#58DA50" fill-opacity="0.85"/>
<rect x="133.682" y="170.425" width="7.29" height="5.54" transform="rotate(14 133.682 170.425)" fill="#E6F4EF" fill-opacity="0.6"/>
<rect x="3.68164" y="221.425" width="14.29" height="5.54" transform="rotate(112 3.68164 221.425)" fill="#04955E" fill-opacity="0.85"/>
<rect x="268.682" y="56.4248" width="10.29" height="5.54" transform="rotate(-131 268.682 56.4248)" fill="#04955E" fill-opacity="0.75"/>
<rect x="227.682" y="284.425" width="11.29" height="6.54" transform="rotate(42 227.682 284.425)" fill="#04955E" fill-opacity="0.65"/>
<rect x="0.681641" y="248.425" width="9.29" height="7.54" transform="rotate(-86 0.681641 248.425)" fill="#E6F4EF"/>
<rect x="-9.31836" y="69.4248" width="16.29" height="3.54" transform="rotate(48 -9.31836 69.4248)" fill="#E6F4EF" fill-opacity="0.9"/>
<rect x="324.682" y="117.425" width="14.29" height="3.54" transform="rotate(-172 324.682 117.425)" fill="#04955E" fill-opacity="0.65"/>
<rect x="-4.31836" y="96.4248" width="10.29" height="6.54" transform="rotate(44 -4.31836 96.4248)" fill="#04955E" fill-opacity="0.85"/>
<rect x="15.6816" y="102.425" width="19.29" height="3.54" transform="rotate(179 15.6816 102.425)" fill="#04955E" fill-opacity="0.75"/>
<rect x="301.682" y="128.425" width="17.29" height="3.54" transform="rotate(-162 301.682 128.425)" fill="#58DA50" fill-opacity="0.65"/>
<rect x="277.682" y="111.425" width="19.29" height="7.54" transform="rotate(-24 277.682 111.425)" fill="#04955E" fill-opacity="0.85"/>
<rect x="48.6816" y="66.4248" width="15.29" height="7.54" transform="rotate(-109 48.6816 66.4248)" fill="#58DA50" fill-opacity="0.85"/>
<circle cx="130.357" cy="160.1" r="2.675" fill="#58DA50" fill-opacity="0.65"/>
<circle cx="341.357" cy="105.1" r="1.675" fill="#58DA50" fill-opacity="0.9"/>
<circle cx="228.357" cy="64.0998" r="2.675" fill="#E6F4EF" fill-opacity="0.9"/>
<circle cx="358.357" cy="90.0998" r="1.675" fill="#58DA50" fill-opacity="0.85"/>
<circle cx="25.3566" cy="101.1" r="2.675" fill="#04955E" fill-opacity="0.65"/>
<circle cx="80.3566" cy="30.0998" r="2.675" fill="#04955E" fill-opacity="0.6"/>
<circle cx="146.357" cy="181.1" r="3.675" fill="#E6F4EF" fill-opacity="0.45"/>
<circle cx="135.857" cy="250.6" r="1.175" fill="#04955E" fill-opacity="0.85"/>
<circle cx="195.857" cy="246.6" r="3.175" fill="#04955E" fill-opacity="0.75"/>
<circle cx="93.3566" cy="189.1" r="3.675" fill="#04955E" fill-opacity="0.35"/>
<circle cx="253.857" cy="145.6" r="2.175" fill="#58DA50" fill-opacity="0.35"/>
<circle cx="196.857" cy="278.6" r="2.175" fill="#58DA50" fill-opacity="0.85"/>
<circle cx="292.857" cy="206.6" r="2.175" fill="#04955E" fill-opacity="0.35"/>
<path d="M202.171 166.798L206.614 167.661L207.165 172.154L203.063 174.066L199.977 170.756L202.171 166.798Z" fill="#04955E" fill-opacity="0.6"/>
<path d="M315.091 163.752L315.775 167.63L312.298 169.479L309.465 166.743L311.192 163.204L315.091 163.752Z" fill="#04955E" fill-opacity="0.6"/>
<path d="M52.0339 108.684L48.0845 109.668L49.2064 105.756L52.0339 108.684Z" fill="#E6F4EF" fill-opacity="0.9"/>
<path d="M20.3189 38.8311L19.173 35.6828L21.8131 33.6201L24.5907 35.4936L23.6672 38.7142L20.3189 38.8311Z" fill="#04955E" fill-opacity="0.35"/>
<path d="M-0.343602 185.103L-0.838499 187.91L-3.51662 188.884L-5.69985 187.052L-5.20495 184.246L-2.52683 183.271L-0.343602 185.103Z" fill="#58DA50" fill-opacity="0.85"/>
<path d="M330.959 72.1472L327.24 73.1436L324.518 70.4213L325.515 66.7024L329.233 65.706L331.956 68.4284L330.959 72.1472Z" fill="#E6F4EF" fill-opacity="0.65"/>
<path d="M346.432 136.986L342.621 138.299L341.309 134.488L345.12 133.175L346.432 136.986Z" fill="#04955E" fill-opacity="0.75"/>
<path d="M225.794 26.455L227.091 28.8942L225.172 30.8814L222.689 29.6704L223.073 26.9347L225.794 26.455Z" fill="#58DA50" fill-opacity="0.35"/>
<path d="M177.034 186.166L177.602 183.886L179.861 183.238L181.552 184.87L180.983 187.151L178.724 187.798L177.034 186.166Z" fill="#58DA50" fill-opacity="0.45"/>
<path d="M168.09 142.111L171.915 140.718L171.208 144.727L168.09 142.111Z" fill="#04955E" fill-opacity="0.35"/>
<path d="M257.342 0.403456L261.179 3.51L256.57 5.27903L257.342 0.403456Z" fill="#04955E" fill-opacity="0.9"/>
<path d="M14.6206 135.866L12.1184 130.246L17.7384 127.744L20.2405 133.364L14.6206 135.866Z" fill="#58DA50" fill-opacity="0.75"/>
<path d="M35.7517 18.0489L31.1976 16.7431L32.5034 12.189L37.0575 13.4948L35.7517 18.0489Z" fill="#58DA50" fill-opacity="0.85"/>
<path d="M219.02 111.263L215.753 112.583L215.999 116.098L213.734 113.399L210.466 114.719L212.334 111.731L210.069 109.031L213.488 109.884L215.355 106.895L215.601 110.411L219.02 111.263Z" fill="#04955E" fill-opacity="0.65"/>
<path d="M306.064 135.742L304.342 133.537L301.713 134.494L303.277 132.175L301.555 129.971L304.244 130.742L305.808 128.423L305.906 131.218L308.595 131.989L305.966 132.946L306.064 135.742Z" fill="#04955E"/>
<path d="M229.567 231.162L230.377 228.277L228.715 225.784L231.6 226.595L234.093 224.932L233.282 227.817L234.945 230.31L232.06 229.5L229.567 231.162Z" fill="#04955E" fill-opacity="0.85"/>
<path d="M157.614 78.5754L160.178 77.7953L159.481 75.2081L161.438 77.0379L163.33 75.1409L162.724 77.7508L165.313 78.441L162.75 79.2211L163.447 81.8083L161.49 79.9785L159.597 81.8755L160.203 79.2656L157.614 78.5754Z" fill="#04955E" fill-opacity="0.75"/>
<path d="M78.9047 219.066L77.9453 217.33L76.1792 218.233L77.2029 216.534L75.5381 215.456L77.5212 215.493L77.6225 213.512L78.5819 215.248L80.3479 214.345L79.3243 216.044L80.989 217.122L79.006 217.085L78.9047 219.066Z" fill="#58DA50" fill-opacity="0.85"/>
<path d="M225.099 278.22L225.28 276.01L223.72 274.433L225.931 274.614L227.508 273.054L227.326 275.265L228.886 276.842L226.675 276.66L225.099 278.22Z" fill="#58DA50" fill-opacity="0.75"/>
<path d="M234.532 242.579L236.466 241.837L236.357 239.769L237.66 241.378L239.593 240.636L238.466 242.373L239.769 243.982L237.769 243.446L236.641 245.182L236.533 243.115L234.532 242.579Z" fill="#58DA50"/>
<path d="M254.096 286.846L254.01 283.072L251.089 280.681L254.863 280.595L257.254 277.674L257.34 281.448L260.261 283.839L256.487 283.925L254.096 286.846Z" fill="#04955E"/>
<path d="M168.922 65.1535L166.806 67.7959L167.434 71.1226L164.791 69.0061L161.465 69.6343L163.581 66.9919L162.953 63.6652L165.595 65.7817L168.922 65.1535Z" fill="#04955E" fill-opacity="0.35"/>
<path d="M222.758 84.2756L220.101 82.1942L217.934 84.7825L218.408 81.4407L215.084 80.8588L218.215 79.5983L217.056 76.4281L219.714 78.5094L221.88 75.9211L221.406 79.2629L224.731 79.8449L221.6 81.1053L222.758 84.2756Z" fill="#E6F4EF" fill-opacity="0.75"/>
<path d="M274.707 254.301L271.344 253.906L268.856 256.202L269.251 252.839L266.955 250.351L270.317 250.746L272.806 248.45L272.411 251.812L274.707 254.301Z" fill="#58DA50" fill-opacity="0.35"/>
<path d="M190.69 28.6808L194.057 28.4496L193.935 25.0765L195.819 27.8771L198.679 26.0849L197.196 29.1167L200.178 30.6975L196.811 30.9287L196.933 34.3018L195.049 31.5012L192.189 33.2934L193.672 30.2616L190.69 28.6808Z" fill="#E6F4EF" fill-opacity="0.65"/>
<path d="M203.023 74.1911L203.818 76.3829L206.034 75.6597L204.534 77.4437L206.268 79.0015L203.973 78.5938L203.491 80.8748L202.696 78.683L200.48 79.4063L201.981 77.6222L200.246 76.0644L202.542 76.4721L203.023 74.1911Z" fill="#04955E" fill-opacity="0.45"/>
<path d="M60.8649 213.257L60.0892 215.177L61.6754 216.508L59.6098 216.363L58.8341 218.283L58.3332 216.274L56.2676 216.129L58.0236 215.032L57.5227 213.023L59.1089 214.354L60.8649 213.257Z" fill="#04955E" fill-opacity="0.9"/>
</g>
<g clip-path="url(#clip1_3_5651)">
<path d="M70.7488 222.697C47.148 181.421 171.395 77.1732 228.347 110.675C319.891 164.525 299.742 221.408 269.573 244.066C231.041 273.005 206.368 256.325 166.667 245.62C122.874 233.812 93.3073 262.15 70.7488 222.697Z" fill="#219653"/>
<path d="M149.251 199.473C143.747 199.473 139.834 196.334 138.845 192.292L143.618 190.787C144.521 193.324 146.456 194.915 149.122 194.915C152.433 194.915 155.056 192.636 155.056 189.282C155.056 185.928 152.476 183.864 149.38 183.864C147.144 183.864 145.424 184.896 144.349 186.444L139.404 184.81L141.855 169.545H158.281V174.103H145.682L144.435 181.671H144.65C145.639 180.596 147.531 179.564 150.455 179.564C155.916 179.564 160.388 183.305 160.388 189.153C160.388 194.829 156.088 199.473 149.251 199.473Z" fill="white"/>
<path d="M171.532 193C170.813 193 170.248 192.897 169.838 192.692C169.442 192.472 169.163 192.164 169.002 191.768C168.84 191.372 168.76 190.895 168.76 190.338V183.518H166.604V181.296H168.76V177.996L171.51 177.71V181.296H178.836V193H176.086V183.518H171.51V189.832C171.51 190.213 171.583 190.463 171.73 190.58C171.891 190.697 172.14 190.756 172.478 190.756H173.974V193H171.532ZM177.472 179.712C177.032 179.712 176.665 179.595 176.372 179.36C176.093 179.111 175.954 178.781 175.954 178.37C175.954 177.945 176.093 177.615 176.372 177.38C176.665 177.145 177.032 177.028 177.472 177.028C177.926 177.028 178.293 177.145 178.572 177.38C178.865 177.615 179.012 177.945 179.012 178.37C179.012 178.781 178.865 179.111 178.572 179.36C178.293 179.595 177.926 179.712 177.472 179.712ZM185.878 193.198C185.013 193.198 184.228 193.059 183.524 192.78C182.82 192.487 182.212 192.076 181.698 191.548C181.185 191.005 180.796 190.367 180.532 189.634C180.268 188.886 180.136 188.057 180.136 187.148C180.136 186.239 180.268 185.41 180.532 184.662C180.811 183.914 181.207 183.276 181.72 182.748C182.234 182.205 182.85 181.795 183.568 181.516C184.287 181.223 185.086 181.076 185.966 181.076C186.934 181.076 187.792 181.259 188.54 181.626C189.303 181.978 189.912 182.477 190.366 183.122C190.836 183.753 191.1 184.493 191.158 185.344H188.474C188.386 184.904 188.218 184.537 187.968 184.244C187.734 183.951 187.433 183.731 187.066 183.584C186.714 183.423 186.326 183.342 185.9 183.342C185.416 183.342 184.991 183.437 184.624 183.628C184.258 183.804 183.942 184.061 183.678 184.398C183.429 184.735 183.238 185.139 183.106 185.608C182.974 186.063 182.908 186.576 182.908 187.148C182.908 187.984 183.033 188.681 183.282 189.238C183.532 189.795 183.876 190.221 184.316 190.514C184.771 190.793 185.292 190.932 185.878 190.932C186.377 190.932 186.81 190.844 187.176 190.668C187.558 190.492 187.866 190.25 188.1 189.942C188.335 189.619 188.482 189.253 188.54 188.842H191.202C191.144 189.722 190.872 190.492 190.388 191.152C189.919 191.797 189.296 192.303 188.518 192.67C187.756 193.022 186.876 193.198 185.878 193.198ZM192.386 193V176.962H195.18V186.51L196.17 185.388L200.086 181.296H203.496L198.964 185.894L203.606 193H200.372L197.732 188.93L197.028 187.72L195.18 189.546V193H192.386ZM208.752 193.198C207.564 193.198 206.552 192.956 205.716 192.472C204.895 191.973 204.264 191.277 203.824 190.382C203.384 189.473 203.164 188.417 203.164 187.214C203.164 185.967 203.384 184.889 203.824 183.98C204.264 183.056 204.895 182.345 205.716 181.846C206.537 181.347 207.513 181.098 208.642 181.098C209.933 181.098 210.989 181.384 211.81 181.956C212.646 182.513 213.247 183.291 213.614 184.288C213.981 185.285 214.105 186.429 213.988 187.72H205.848C205.848 188.468 205.965 189.099 206.2 189.612C206.449 190.111 206.787 190.492 207.212 190.756C207.652 191.005 208.165 191.13 208.752 191.13C209.441 191.13 209.999 190.983 210.424 190.69C210.864 190.397 211.157 190.008 211.304 189.524H213.9C213.783 190.287 213.489 190.947 213.02 191.504C212.551 192.047 211.949 192.465 211.216 192.758C210.483 193.051 209.661 193.198 208.752 193.198ZM205.848 186.246L205.606 185.96H211.568L211.304 186.268C211.333 185.549 211.238 184.963 211.018 184.508C210.798 184.053 210.483 183.716 210.072 183.496C209.661 183.276 209.185 183.166 208.642 183.166C208.085 183.166 207.601 183.283 207.19 183.518C206.779 183.753 206.457 184.105 206.222 184.574C205.987 185.029 205.863 185.586 205.848 186.246ZM219.052 193C218.113 193 217.409 192.78 216.94 192.34C216.485 191.885 216.258 191.167 216.258 190.184V183.518H214.102V181.296H216.258V177.996L219.008 177.71V181.296H221.472V183.518H219.008V189.678C219.008 190.074 219.096 190.353 219.272 190.514C219.462 190.661 219.734 190.734 220.086 190.734H221.494V193H219.052ZM227.02 193.22C226.243 193.22 225.546 193.132 224.93 192.956C224.329 192.765 223.808 192.509 223.368 192.186C222.943 191.849 222.605 191.453 222.356 190.998C222.121 190.529 221.997 190.008 221.982 189.436H224.688C224.732 189.861 224.857 190.206 225.062 190.47C225.267 190.734 225.539 190.932 225.876 191.064C226.228 191.181 226.631 191.24 227.086 191.24C227.79 191.24 228.318 191.115 228.67 190.866C229.037 190.602 229.22 190.243 229.22 189.788C229.22 189.421 229.132 189.143 228.956 188.952C228.795 188.747 228.531 188.593 228.164 188.49C227.812 188.373 227.335 188.27 226.734 188.182C225.737 188.035 224.908 187.837 224.248 187.588C223.588 187.324 223.097 186.965 222.774 186.51C222.451 186.055 222.29 185.454 222.29 184.706C222.29 183.973 222.488 183.335 222.884 182.792C223.295 182.249 223.859 181.831 224.578 181.538C225.297 181.23 226.133 181.076 227.086 181.076C228.025 181.076 228.839 181.223 229.528 181.516C230.217 181.809 230.753 182.227 231.134 182.77C231.53 183.313 231.743 183.943 231.772 184.662H229.066C229.066 184.281 228.971 183.973 228.78 183.738C228.604 183.503 228.362 183.327 228.054 183.21C227.761 183.093 227.416 183.034 227.02 183.034C226.404 183.034 225.92 183.166 225.568 183.43C225.216 183.679 225.04 184.024 225.04 184.464C225.04 184.787 225.128 185.051 225.304 185.256C225.495 185.447 225.795 185.601 226.206 185.718C226.617 185.835 227.145 185.938 227.79 186.026C228.729 186.158 229.506 186.349 230.122 186.598C230.753 186.847 231.222 187.207 231.53 187.676C231.853 188.145 232.014 188.769 232.014 189.546C232.014 190.323 231.801 190.991 231.376 191.548C230.965 192.091 230.386 192.509 229.638 192.802C228.89 193.081 228.017 193.22 227.02 193.22Z" fill="white"/>
<path d="M118.5 199C119.575 203.169 122.831 206.425 127 207.5C122.831 208.575 119.575 211.831 118.5 216C117.425 211.831 114.169 208.575 110 207.5C114.169 206.425 117.425 203.169 118.5 199Z" fill="#59CA9F"/>
<path d="M240 146C240.886 149.433 243.567 152.114 247 153C243.567 153.886 240.886 156.567 240 160C239.114 156.567 236.433 153.886 233 153C236.433 152.114 239.114 149.433 240 146Z" fill="#B2DEC4"/>
</g>
<defs>
<clipPath id="clip0_3_5651">
<rect width="394" height="285" fill="white" transform="translate(-18.3184 0.424805)"/>
</clipPath>
<clipPath id="clip1_3_5651">
<rect width="310" height="230" fill="white" transform="translate(25 57)"/>
</clipPath>
</defs>
</svg>
