<svg width="360" height="238" viewBox="0 0 360 238" fill="none" xmlns="http://www.w3.org/2000/svg">
<g clip-path="url(#clip0_384_12717)">
<mask id="mask0_384_12717" style="mask-type:luminance" maskUnits="userSpaceOnUse" x="-9" y="0" width="459" height="238">
<path d="M450 0H-9V238H450V0Z" fill="white"/>
</mask>
<g mask="url(#mask0_384_12717)">
<path d="M79.1224 145.157L88.1514 147.076L89.3998 141.203L80.3708 139.284L79.1224 145.157Z" fill="#EFFDFF" fill-opacity="0.85"/>
<path d="M92.809 133.061L89.501 141.679L96.3663 144.314L99.6743 135.697L92.809 133.061Z" fill="#0C5E6A" fill-opacity="0.65"/>
<path d="M35.7773 177.55L42.2744 187.555L46.1786 185.02L39.6814 175.015L35.7773 177.55Z" fill="#0C5E6A" fill-opacity="0.65"/>
<path d="M335.033 118.526L335.076 116.042L329.073 115.937L329.029 118.421L335.033 118.526Z" fill="#42BED0" fill-opacity="0.45"/>
<path d="M167.905 36.8546L158.316 32.3833L155.209 39.0481L164.797 43.5194L167.905 36.8546Z" fill="#228998" fill-opacity="0.35"/>
<path d="M273.1 197.484L270.309 211.843L273.554 212.474L276.345 198.115L273.1 197.484Z" fill="#EFFDFF" fill-opacity="0.9"/>
<path d="M112.689 71.1849L127.281 70.1646L126.862 64.1747L112.27 65.1951L112.689 71.1849Z" fill="#42BED0" fill-opacity="0.6"/>
<path d="M148.09 19.4932L158.315 25.6372L162.103 19.3338L151.878 13.1897L148.09 19.4932Z" fill="#EFFDFF" fill-opacity="0.6"/>
<path d="M60.2838 71.7661L65.2129 70.1646L63.7744 65.7372L58.8453 67.3388L60.2838 71.7661Z" fill="#228998" fill-opacity="0.9"/>
<path d="M68.6529 94.2724L70.6104 95.8018L73.4763 92.1335L71.5188 90.6041L68.6529 94.2724Z" fill="#228998" fill-opacity="0.75"/>
<path d="M298.186 127.414L301.343 118.74L298.236 117.609L295.079 126.283L298.186 127.414Z" fill="#ADF4FF" fill-opacity="0.85"/>
<path d="M102.361 163.574L111.089 160.569L108.695 153.616L99.9669 156.621L102.361 163.574Z" fill="#228998" fill-opacity="0.35"/>
<path d="M12.0747 224.727L15.2871 211.843L9.461 210.39L6.24861 223.275L12.0747 224.727Z" fill="#228998" fill-opacity="0.35"/>
<path d="M-4.66645 83.6037L-9 91.7539L-2.50699 95.2063L1.82656 87.0561L-4.66645 83.6037Z" fill="#0C5E6A" fill-opacity="0.35"/>
<path d="M101.981 222.932L93.5479 226.686L94.8925 229.706L103.325 225.952L101.981 222.932Z" fill="#42BED0" fill-opacity="0.35"/>
<path d="M58.0044 128.61C58.4943 128.61 58.8915 128.213 58.8915 127.723C58.8915 127.233 58.4943 126.836 58.0044 126.836C57.5144 126.836 57.1172 127.233 57.1172 127.723C57.1172 128.213 57.5144 128.61 58.0044 128.61Z" fill="#6AEBFF" fill-opacity="0.75"/>
<path d="M239.487 80.0347C241.095 80.0347 242.398 78.7313 242.398 77.1236C242.398 75.5158 241.095 74.2124 239.487 74.2124C237.88 74.2124 236.576 75.5158 236.576 77.1236C236.576 78.7313 237.88 80.0347 239.487 80.0347Z" fill="#0C5E6A" fill-opacity="0.85"/>
<path d="M84.9897 136.706C85.4797 136.706 85.8769 136.309 85.8769 135.819C85.8769 135.329 85.4797 134.932 84.9897 134.932C84.4997 134.932 84.1025 135.329 84.1025 135.819C84.1025 136.309 84.4997 136.706 84.9897 136.706Z" fill="#0C5E6A" fill-opacity="0.6"/>
<path d="M308.302 115.117C309.165 115.117 309.864 114.418 309.864 113.555C309.864 112.692 309.165 111.993 308.302 111.993C307.439 111.993 306.74 112.692 306.74 113.555C306.74 114.418 307.439 115.117 308.302 115.117Z" fill="#6AEBFF" fill-opacity="0.85"/>
<path d="M317.748 54.398C319.356 54.398 320.659 53.0946 320.659 51.4868C320.659 49.8791 319.356 48.5757 317.748 48.5757C316.14 48.5757 314.837 49.8791 314.837 51.4868C314.837 53.0946 316.14 54.398 317.748 54.398Z" fill="#EFFDFF" fill-opacity="0.75"/>
<path d="M295.484 136.706C295.974 136.706 296.371 136.309 296.371 135.819C296.371 135.329 295.974 134.932 295.484 134.932C294.994 134.932 294.597 135.329 294.597 135.819C294.597 136.309 294.994 136.706 295.484 136.706Z" fill="#42BED0" fill-opacity="0.9"/>
<path d="M199.007 236.556C200.615 236.556 201.918 235.253 201.918 233.645C201.918 232.037 200.615 230.734 199.007 230.734C197.399 230.734 196.096 232.037 196.096 233.645C196.096 235.253 197.399 236.556 199.007 236.556Z" fill="#228998" fill-opacity="0.85"/>
<path d="M134.241 112.419C135.103 112.419 135.802 111.72 135.802 110.857C135.802 109.994 135.103 109.295 134.241 109.295C133.378 109.295 132.679 109.994 132.679 110.857C132.679 111.72 133.378 112.419 134.241 112.419Z" fill="#6AEBFF" fill-opacity="0.9"/>
<path d="M192.936 198.775C193.426 198.775 193.823 198.378 193.823 197.888C193.823 197.398 193.426 197.001 192.936 197.001C192.446 197.001 192.049 197.398 192.049 197.888C192.049 198.378 192.446 198.775 192.936 198.775Z" fill="#0C5E6A" fill-opacity="0.45"/>
<path d="M31.0171 150.199C31.507 150.199 31.9042 149.802 31.9042 149.312C31.9042 148.822 31.507 148.425 31.0171 148.425C30.5271 148.425 30.1299 148.822 30.1299 149.312C30.1299 149.802 30.5271 150.199 31.0171 150.199Z" fill="#ADF4FF"/>
<path d="M168.648 119.165C169.138 119.165 169.535 118.768 169.535 118.278C169.535 117.788 169.138 117.391 168.648 117.391C168.158 117.391 167.761 117.788 167.761 118.278C167.761 118.768 168.158 119.165 168.648 119.165Z" fill="#0C5E6A" fill-opacity="0.75"/>
<path d="M324.494 80.0348C325.357 80.0348 326.056 79.3355 326.056 78.473C326.056 77.6104 325.357 76.9111 324.494 76.9111C323.632 76.9111 322.933 77.6104 322.933 78.473C322.933 79.3355 323.632 80.0348 324.494 80.0348Z" fill="#6AEBFF" fill-opacity="0.9"/>
<path d="M186.189 192.028C186.679 192.028 187.076 191.631 187.076 191.141C187.076 190.651 186.679 190.254 186.189 190.254C185.699 190.254 185.302 190.651 185.302 191.141C185.302 191.631 185.699 192.028 186.189 192.028Z" fill="#6AEBFF" fill-opacity="0.75"/>
<path d="M125.47 154.247C125.96 154.247 126.357 153.85 126.357 153.36C126.357 152.87 125.96 152.473 125.47 152.473C124.98 152.473 124.583 152.87 124.583 153.36C124.583 153.85 124.98 154.247 125.47 154.247Z" fill="#228998" fill-opacity="0.9"/>
<path d="M22.2474 175.837C23.11 175.837 23.8092 175.138 23.8092 174.275C23.8092 173.412 23.11 172.713 22.2474 172.713C21.3848 172.713 20.6855 173.412 20.6855 174.275C20.6855 175.138 21.3848 175.837 22.2474 175.837Z" fill="#42BED0" fill-opacity="0.45"/>
<path d="M13.476 40.9047C13.966 40.9047 14.3632 40.5075 14.3632 40.0176C14.3632 39.5276 13.966 39.1304 13.476 39.1304C12.9861 39.1304 12.5889 39.5276 12.5889 40.0176C12.5889 40.5075 12.9861 40.9047 13.476 40.9047Z" fill="#EFFDFF" fill-opacity="0.75"/>
<path d="M106.579 27.4115C107.814 27.4115 108.816 26.4102 108.816 25.175C108.816 23.9398 107.814 22.9385 106.579 22.9385C105.344 22.9385 104.343 23.9398 104.343 25.175C104.343 26.4102 105.344 27.4115 106.579 27.4115Z" fill="#ADF4FF" fill-opacity="0.35"/>
<path d="M223.342 7.34583L225.699 8.20407L224.841 10.5621L222.483 9.7038L223.342 7.34583Z" fill="#6AEBFF" fill-opacity="0.9"/>
<path d="M342.629 151.355L341.853 153.742L339.467 152.966L340.242 150.58L342.629 151.355Z" fill="#0C5E6A"/>
<path d="M120.996 183.154L117.762 181.913L119.003 178.679L122.237 179.92L120.996 183.154Z" fill="#42BED0" fill-opacity="0.75"/>
<path d="M284.663 81.3455L282.697 83.773L279.612 83.2844L278.492 80.3682L280.458 77.9406L283.543 78.4293L284.663 81.3455Z" fill="#6AEBFF" fill-opacity="0.45"/>
<path d="M25.0596 234.373L28.4927 231.593L31.2727 235.026L27.8397 237.806L25.0596 234.373Z" fill="#0C5E6A" fill-opacity="0.9"/>
<path d="M140.362 21.2367L141.388 17.1208L144.439 20.0676L140.362 21.2367Z" fill="#ADF4FF" fill-opacity="0.35"/>
<path d="M159.503 209.701L162.112 208.484L164.076 210.59L162.68 213.108L159.854 212.558L159.503 209.701Z" fill="#ADF4FF" fill-opacity="0.35"/>
<path d="M153.169 28.4209L150.782 26.811L151.576 24.0435L154.453 23.9431L155.438 26.6484L153.169 28.4209Z" fill="#228998" fill-opacity="0.85"/>
<path d="M72.0636 97.4828L74.5348 97.9185L74.0991 100.39L71.6279 99.954L72.0636 97.4828Z" fill="#42BED0" fill-opacity="0.35"/>
<path d="M319.009 186.812L319.059 189.691L316.337 190.628L314.605 188.329L316.256 185.971L319.009 186.812Z" fill="#228998" fill-opacity="0.85"/>
<path d="M194.592 95.7227L190.468 94.1396L192.051 90.0154L196.175 91.5985L194.592 95.7227Z" fill="#EFFDFF" fill-opacity="0.65"/>
<path d="M170.768 194.7L168.413 196.675L167.88 193.649L170.768 194.7Z" fill="#EFFDFF" fill-opacity="0.9"/>
<path d="M7.10758 2.76772L2.90625 1.40262L4.27135 -2.79871L8.47268 -1.43361L7.10758 2.76772Z" fill="#EFFDFF" fill-opacity="0.85"/>
<path d="M64.7505 199.886L64.5324 201.961L62.4921 202.394L61.4492 200.588L62.8449 199.038L64.7505 199.886Z" fill="#6AEBFF" fill-opacity="0.45"/>
<path d="M196.456 237.186L195.928 233.424L198.921 231.086L202.443 232.509L202.971 236.27L199.978 238.608L196.456 237.186Z" fill="#42BED0" fill-opacity="0.85"/>
<path d="M78.739 69.9993L83.3765 72.7858L78.6445 75.4088L78.739 69.9993Z" fill="#ADF4FF" fill-opacity="0.9"/>
<path d="M250.755 115.666L255.864 117.326L254.204 122.435L249.095 120.775L250.755 115.666Z" fill="#228998" fill-opacity="0.45"/>
<path d="M148.212 128.491L149.415 126.566L147.956 124.828L150.158 125.377L151.36 123.452L151.519 125.716L153.721 126.265L151.617 127.115L151.775 129.379L150.316 127.641L148.212 128.491Z" fill="#6AEBFF" fill-opacity="0.35"/>
<path d="M251.854 69.1039L249.427 69.2441L247.954 71.1778L247.814 68.7508L245.88 67.2773L248.307 67.1371L249.78 65.2034L249.921 67.6305L251.854 69.1039Z" fill="#ADF4FF"/>
<path d="M156.388 8.22083L157.613 9.40629L158.837 8.22083L158.423 9.87401L160.062 10.3417L158.423 10.8094L158.837 12.4626L157.613 11.2772L156.388 12.4626L156.803 10.8094L155.164 10.3417L156.803 9.87401L156.388 8.22083Z" fill="#0C5E6A"/>
<path d="M61.026 122.736L60.4057 123.97L60.9385 125.244L59.7047 124.624L58.4307 125.156L59.051 123.923L58.5182 122.649L59.752 123.269L61.026 122.736Z" fill="#EFFDFF" fill-opacity="0.45"/>
<path d="M347.049 179.946L346.303 181.988L348.319 182.8L346.178 183.174L346.483 185.327L345.088 183.66L343.376 185L344.123 182.958L342.106 182.147L344.247 181.772L343.942 179.619L345.337 181.286L347.049 179.946Z" fill="#228998" fill-opacity="0.45"/>
<path d="M310.664 146.498L309.473 147.82L310.363 149.361L308.738 148.637L307.547 149.96L307.733 148.19L306.107 147.466L307.848 147.096L308.034 145.327L308.924 146.868L310.664 146.498Z" fill="#ADF4FF" fill-opacity="0.6"/>
<path d="M316.518 221.543L314.347 221.427L314.161 223.593L313.176 221.654L311.207 222.576L312.393 220.754L310.611 219.509L312.782 219.626L312.969 217.46L313.953 219.398L315.922 218.477L314.736 220.299L316.518 221.543Z" fill="#6AEBFF" fill-opacity="0.75"/>
<path d="M13.6873 24.373L14.2859 26.1825L16.0493 26.906L14.2398 27.5046L13.5163 29.268L12.9177 27.4585L11.1543 26.735L12.9638 26.1364L13.6873 24.373Z" fill="#0C5E6A" fill-opacity="0.6"/>
<path d="M223.5 229.602L223.949 231.729L226.089 231.348L224.472 232.801L225.872 234.464L223.805 233.79L223.064 235.834L222.615 233.707L220.474 234.087L222.092 232.635L220.692 230.971L222.759 231.645L223.5 229.602Z" fill="#0C5E6A"/>
<path d="M250.492 195.76L251.016 197.87L253.141 197.416L251.576 198.924L253.032 200.537L250.944 199.936L250.274 202.004L249.751 199.894L247.625 200.349L249.191 198.841L247.734 197.227L249.823 197.829L250.492 195.76Z" fill="#ADF4FF" fill-opacity="0.45"/>
<path d="M144.878 174.719L143.793 176.286L144.276 178.13L142.709 177.045L140.866 177.528L141.95 175.961L141.467 174.118L143.034 175.202L144.878 174.719Z" fill="#EFFDFF" fill-opacity="0.65"/>
<path d="M140.49 174.718L140.603 173.434L139.416 172.93L140.672 172.64L140.784 171.356L141.448 172.461L142.704 172.171L141.859 173.144L142.523 174.249L141.336 173.745L140.49 174.718Z" fill="#ADF4FF" fill-opacity="0.45"/>
<path d="M148.613 122.289L149.529 120.764L148.362 119.421L150.096 119.821L151.012 118.296L151.167 120.069L152.901 120.469L151.263 121.164L151.418 122.937L150.251 121.594L148.613 122.289Z" fill="#ADF4FF" fill-opacity="0.75"/>
<path d="M224.753 112.435L223.89 113.991L225.104 115.293L223.357 114.953L222.494 116.509L222.278 114.743L220.531 114.404L222.143 113.652L221.927 111.886L223.14 113.187L224.753 112.435Z" fill="#EFFDFF" fill-opacity="0.65"/>
<path d="M132.029 65.7753L130.86 67.7207L132.349 69.4335L130.138 68.9229L128.969 70.8683L128.771 68.6074L126.56 68.0969L128.649 67.2101L128.451 64.9493L129.94 66.6621L132.029 65.7753Z" fill="#6AEBFF" fill-opacity="0.35"/>
<path d="M167.557 87.1753L169.292 88.4857L170.658 86.7946L170.39 88.9519L172.537 89.2893L170.535 90.1362L171.317 92.1647L169.582 90.8542L168.217 92.5453L168.484 90.388L166.337 90.0507L168.339 89.2038L167.557 87.1753Z" fill="#ADF4FF" fill-opacity="0.75"/>
</g>
<mask id="mask1_384_12717" style="mask-type:luminance" maskUnits="userSpaceOnUse" x="25" y="6" width="310" height="230">
<path d="M335 6H25V236H335V6Z" fill="white"/>
</mask>
<g mask="url(#mask1_384_12717)">
<path d="M70.7485 171.697C47.1477 130.421 171.395 26.1732 228.347 59.675C319.891 113.525 299.742 170.408 269.573 193.066C231.041 222.005 206.368 205.325 166.667 194.62C122.874 182.812 93.307 211.15 70.7485 171.697Z" fill="#0D5E6A"/>
<path d="M118.5 148C119.575 152.169 122.831 155.425 127 156.5C122.831 157.575 119.575 160.831 118.5 165C117.425 160.831 114.169 157.575 110 156.5C114.169 155.425 117.425 152.169 118.5 148Z" fill="#ADF4FF"/>
<path d="M240 95C240.886 98.4333 243.567 101.114 247 102C243.567 102.886 240.886 105.567 240 109C239.114 105.567 236.433 102.886 233 102C236.433 101.114 239.114 98.4333 240 95Z" fill="#6AEBFF"/>
</g>
</g>
<defs>
<clipPath id="clip0_384_12717">
<rect width="360" height="238" fill="white"/>
</clipPath>
</defs>
</svg>
