<svg width="360" height="287" viewBox="0 0 360 287" fill="none" xmlns="http://www.w3.org/2000/svg">
<g clip-path="url(#clip0_357_12244)">
<mask id="mask0_357_12244" style="mask-type:luminance" maskUnits="userSpaceOnUse" x="-19" y="0" width="395" height="286">
<path d="M375.682 0.424805H-18.3184V285.425H375.682V0.424805Z" fill="white"/>
</mask>
<g mask="url(#mask0_357_12244)">
<path d="M202.435 50.0181L190.682 46.4248L189.062 51.7227L200.815 55.316L202.435 50.0181Z" fill="#04955E" fill-opacity="0.9"/>
<path d="M210.392 200.425H223.682V193.885H210.392V200.425Z" fill="#E6F4EF" fill-opacity="0.45"/>
<path d="M299.418 140.186L298.682 145.425L304.168 146.196L304.904 140.958L299.418 140.186Z" fill="#58DA50" fill-opacity="0.9"/>
<path d="M104.501 118.554L107.682 130.425L113.033 128.991L109.852 117.12L104.501 118.554Z" fill="#E6F4EF" fill-opacity="0.45"/>
<path d="M337.579 255.458L345.682 268.425L349.532 266.019L341.429 253.053L337.579 255.458Z" fill="#58DA50" fill-opacity="0.85"/>
<path d="M140.755 172.189L133.682 170.425L132.341 175.8L139.415 177.564L140.755 172.189Z" fill="#E6F4EF" fill-opacity="0.6"/>
<path d="M-1.67149 234.674L3.68164 221.425L-1.45495 219.35L-6.80808 232.599L-1.67149 234.674Z" fill="#04955E" fill-opacity="0.85"/>
<path d="M261.931 48.6588L268.682 56.4248L272.863 52.7902L266.112 45.0243L261.931 48.6588Z" fill="#04955E" fill-opacity="0.75"/>
<path d="M236.072 291.979L227.682 284.425L223.306 289.285L231.696 296.84L236.072 291.979Z" fill="#04955E" fill-opacity="0.65"/>
<path d="M1.32968 239.158L0.681641 248.425L8.20327 248.951L8.8513 239.684L1.32968 239.158Z" fill="#E6F4EF"/>
<path d="M1.58178 81.5306L-9.31836 69.4248L-11.9491 71.7935L-1.04895 83.8994L1.58178 81.5306Z" fill="#E6F4EF" fill-opacity="0.9"/>
<path d="M310.531 115.436L324.682 117.425L325.174 113.919L311.023 111.931L310.531 115.436Z" fill="#04955E" fill-opacity="0.65"/>
<path d="M3.08365 103.573L-4.31836 96.4248L-8.86143 101.129L-1.45942 108.277L3.08365 103.573Z" fill="#04955E" fill-opacity="0.85"/>
<path d="M-3.60542 102.762L15.6816 102.425L15.6199 98.8855L-3.6672 99.2222L-3.60542 102.762Z" fill="#04955E" fill-opacity="0.75"/>
<path d="M285.238 123.082L301.682 128.425L302.776 125.058L286.332 119.715L285.238 123.082Z" fill="#58DA50" fill-opacity="0.65"/>
<path d="M295.304 103.579L277.682 111.425L280.748 118.313L298.371 110.467L295.304 103.579Z" fill="#04955E" fill-opacity="0.85"/>
<path d="M43.7037 51.9678L48.6816 66.4248L55.8109 63.97L50.8329 49.513L43.7037 51.9678Z" fill="#58DA50" fill-opacity="0.85"/>
<path d="M130.357 162.775C131.834 162.775 133.032 161.577 133.032 160.1C133.032 158.623 131.834 157.425 130.357 157.425C128.879 157.425 127.682 158.623 127.682 160.1C127.682 161.577 128.879 162.775 130.357 162.775Z" fill="#58DA50" fill-opacity="0.65"/>
<path d="M341.357 106.775C342.282 106.775 343.032 106.025 343.032 105.1C343.032 104.175 342.282 103.425 341.357 103.425C340.432 103.425 339.682 104.175 339.682 105.1C339.682 106.025 340.432 106.775 341.357 106.775Z" fill="#58DA50" fill-opacity="0.9"/>
<path d="M228.357 66.7748C229.834 66.7748 231.032 65.5772 231.032 64.0998C231.032 62.6224 229.834 61.4248 228.357 61.4248C226.879 61.4248 225.682 62.6224 225.682 64.0998C225.682 65.5772 226.879 66.7748 228.357 66.7748Z" fill="#E6F4EF" fill-opacity="0.9"/>
<path d="M358.357 91.7748C359.282 91.7748 360.032 91.0249 360.032 90.0998C360.032 89.1747 359.282 88.4248 358.357 88.4248C357.432 88.4248 356.682 89.1747 356.682 90.0998C356.682 91.0249 357.432 91.7748 358.357 91.7748Z" fill="#58DA50" fill-opacity="0.85"/>
<path d="M25.3566 103.775C26.834 103.775 28.0316 102.577 28.0316 101.1C28.0316 99.6226 26.834 98.425 25.3566 98.425C23.8793 98.425 22.6816 99.6226 22.6816 101.1C22.6816 102.577 23.8793 103.775 25.3566 103.775Z" fill="#04955E" fill-opacity="0.65"/>
<path d="M80.3566 32.7748C81.834 32.7748 83.0316 31.5772 83.0316 30.0998C83.0316 28.6224 81.834 27.4248 80.3566 27.4248C78.8793 27.4248 77.6816 28.6224 77.6816 30.0998C77.6816 31.5772 78.8793 32.7748 80.3566 32.7748Z" fill="#04955E" fill-opacity="0.6"/>
<path d="M146.357 184.775C148.386 184.775 150.032 183.13 150.032 181.1C150.032 179.07 148.386 177.425 146.357 177.425C144.327 177.425 142.682 179.07 142.682 181.1C142.682 183.13 144.327 184.775 146.357 184.775Z" fill="#E6F4EF" fill-opacity="0.45"/>
<path d="M135.857 251.775C136.506 251.775 137.032 251.249 137.032 250.6C137.032 249.951 136.506 249.425 135.857 249.425C135.208 249.425 134.682 249.951 134.682 250.6C134.682 251.249 135.208 251.775 135.857 251.775Z" fill="#04955E" fill-opacity="0.85"/>
<path d="M195.857 249.775C197.61 249.775 199.032 248.353 199.032 246.6C199.032 244.846 197.61 243.425 195.857 243.425C194.103 243.425 192.682 244.846 192.682 246.6C192.682 248.353 194.103 249.775 195.857 249.775Z" fill="#04955E" fill-opacity="0.75"/>
<path d="M93.3566 192.775C95.3863 192.775 97.0316 191.13 97.0316 189.1C97.0316 187.07 95.3863 185.425 93.3566 185.425C91.327 185.425 89.6816 187.07 89.6816 189.1C89.6816 191.13 91.327 192.775 93.3566 192.775Z" fill="#04955E" fill-opacity="0.35"/>
<path d="M253.857 147.775C255.058 147.775 256.032 146.801 256.032 145.6C256.032 144.399 255.058 143.425 253.857 143.425C252.655 143.425 251.682 144.399 251.682 145.6C251.682 146.801 252.655 147.775 253.857 147.775Z" fill="#58DA50" fill-opacity="0.35"/>
<path d="M196.857 280.775C198.058 280.775 199.032 279.801 199.032 278.6C199.032 277.399 198.058 276.425 196.857 276.425C195.655 276.425 194.682 277.399 194.682 278.6C194.682 279.801 195.655 280.775 196.857 280.775Z" fill="#58DA50" fill-opacity="0.85"/>
<path d="M292.857 208.775C294.058 208.775 295.032 207.801 295.032 206.6C295.032 205.399 294.058 204.425 292.857 204.425C291.655 204.425 290.682 205.399 290.682 206.6C290.682 207.801 291.655 208.775 292.857 208.775Z" fill="#04955E" fill-opacity="0.35"/>
<path d="M202.171 166.798L206.614 167.661L207.165 172.154L203.063 174.066L199.977 170.756L202.171 166.798Z" fill="#04955E" fill-opacity="0.6"/>
<path d="M315.091 163.752L315.775 167.63L312.298 169.479L309.465 166.743L311.192 163.204L315.091 163.752Z" fill="#04955E" fill-opacity="0.6"/>
<path d="M52.0334 108.684L48.084 109.668L49.2059 105.756L52.0334 108.684Z" fill="#E6F4EF" fill-opacity="0.9"/>
<path d="M20.3188 38.8311L19.1729 35.6828L21.813 33.6201L24.5906 35.4936L23.6671 38.7142L20.3188 38.8311Z" fill="#04955E" fill-opacity="0.35"/>
<path d="M330.959 72.1472L327.24 73.1436L324.518 70.4213L325.515 66.7024L329.233 65.706L331.956 68.4284L330.959 72.1472Z" fill="#E6F4EF" fill-opacity="0.65"/>
<path d="M346.432 136.986L342.621 138.299L341.309 134.488L345.12 133.175L346.432 136.986Z" fill="#04955E" fill-opacity="0.75"/>
<path d="M225.793 26.455L227.09 28.8942L225.171 30.8814L222.688 29.6704L223.072 26.9347L225.793 26.455Z" fill="#58DA50" fill-opacity="0.35"/>
<path d="M177.034 186.166L177.602 183.886L179.861 183.238L181.552 184.87L180.983 187.151L178.724 187.798L177.034 186.166Z" fill="#58DA50" fill-opacity="0.45"/>
<path d="M168.09 142.111L171.915 140.718L171.208 144.727L168.09 142.111Z" fill="#04955E" fill-opacity="0.35"/>
<path d="M257.342 0.403458L261.179 3.51L256.57 5.27903L257.342 0.403458Z" fill="#04955E" fill-opacity="0.9"/>
<path d="M14.6204 135.866L12.1182 130.246L17.7382 127.744L20.2403 133.364L14.6204 135.866Z" fill="#58DA50" fill-opacity="0.75"/>
<path d="M35.7514 18.0489L31.1973 16.7431L32.5031 12.189L37.0572 13.4948L35.7514 18.0489Z" fill="#58DA50" fill-opacity="0.85"/>
<path d="M219.02 111.263L215.753 112.583L215.999 116.098L213.734 113.399L210.466 114.719L212.334 111.731L210.069 109.031L213.488 109.884L215.355 106.895L215.601 110.411L219.02 111.263Z" fill="#04955E" fill-opacity="0.65"/>
<path d="M306.064 135.742L304.342 133.537L301.713 134.494L303.277 132.175L301.555 129.971L304.244 130.742L305.808 128.423L305.906 131.218L308.595 131.989L305.966 132.946L306.064 135.742Z" fill="#04955E"/>
<path d="M229.567 231.162L230.377 228.277L228.715 225.784L231.6 226.595L234.093 224.932L233.282 227.817L234.945 230.31L232.06 229.5L229.567 231.162Z" fill="#04955E" fill-opacity="0.85"/>
<path d="M157.614 78.5754L160.178 77.7953L159.481 75.2081L161.438 77.0379L163.33 75.1409L162.724 77.7508L165.313 78.441L162.75 79.2211L163.447 81.8083L161.49 79.9785L159.597 81.8755L160.203 79.2656L157.614 78.5754Z" fill="#04955E" fill-opacity="0.75"/>
<path d="M78.9047 219.066L77.9453 217.33L76.1792 218.233L77.2029 216.534L75.5381 215.456L77.5212 215.493L77.6225 213.512L78.5819 215.248L80.3479 214.345L79.3243 216.044L80.989 217.122L79.006 217.085L78.9047 219.066Z" fill="#58DA50" fill-opacity="0.85"/>
<path d="M225.099 278.22L225.28 276.01L223.72 274.433L225.931 274.614L227.508 273.054L227.326 275.265L228.886 276.842L226.675 276.66L225.099 278.22Z" fill="#58DA50" fill-opacity="0.75"/>
<path d="M234.532 242.579L236.466 241.837L236.357 239.769L237.66 241.378L239.593 240.636L238.466 242.373L239.769 243.982L237.769 243.446L236.641 245.182L236.533 243.115L234.532 242.579Z" fill="#58DA50"/>
<path d="M254.096 286.846L254.01 283.072L251.089 280.681L254.863 280.595L257.254 277.674L257.34 281.448L260.261 283.839L256.487 283.925L254.096 286.846Z" fill="#04955E"/>
<path d="M168.922 65.1535L166.806 67.7959L167.434 71.1226L164.791 69.0061L161.465 69.6343L163.581 66.9919L162.953 63.6652L165.595 65.7817L168.922 65.1535Z" fill="#04955E" fill-opacity="0.35"/>
<path d="M222.758 84.2756L220.101 82.1942L217.934 84.7825L218.408 81.4407L215.084 80.8588L218.215 79.5983L217.056 76.4281L219.714 78.5094L221.88 75.9211L221.406 79.2629L224.731 79.8449L221.6 81.1053L222.758 84.2756Z" fill="#E6F4EF" fill-opacity="0.75"/>
<path d="M274.707 254.301L271.344 253.906L268.856 256.202L269.251 252.839L266.955 250.351L270.317 250.746L272.806 248.45L272.411 251.812L274.707 254.301Z" fill="#58DA50" fill-opacity="0.35"/>
<path d="M190.689 28.6808L194.056 28.4496L193.934 25.0765L195.818 27.8771L198.678 26.0849L197.195 29.1167L200.177 30.6975L196.81 30.9287L196.932 34.3018L195.048 31.5012L192.188 33.2934L193.671 30.2616L190.689 28.6808Z" fill="#E6F4EF" fill-opacity="0.65"/>
<path d="M203.023 74.1911L203.818 76.3829L206.034 75.6597L204.534 77.4437L206.268 79.0015L203.973 78.5938L203.491 80.8748L202.696 78.683L200.48 79.4063L201.981 77.6222L200.246 76.0644L202.542 76.4721L203.023 74.1911Z" fill="#04955E" fill-opacity="0.45"/>
<path d="M60.8649 213.257L60.0892 215.177L61.6754 216.508L59.6098 216.363L58.8341 218.283L58.3332 216.274L56.2676 216.129L58.0236 215.032L57.5227 213.023L59.1089 214.354L60.8649 213.257Z" fill="#04955E" fill-opacity="0.9"/>
</g>
<mask id="mask1_357_12244" style="mask-type:luminance" maskUnits="userSpaceOnUse" x="25" y="57" width="310" height="230">
<path d="M335 57H25V287H335V57Z" fill="white"/>
</mask>
<g mask="url(#mask1_357_12244)">
<path d="M70.7485 222.697C47.1477 181.421 171.395 77.1732 228.347 110.675C319.891 164.525 299.742 221.408 269.573 244.066C231.041 273.005 206.368 256.325 166.667 245.62C122.874 233.812 93.307 262.15 70.7485 222.697Z" fill="#219653"/>
<path d="M118.5 199C119.575 203.169 122.831 206.425 127 207.5C122.831 208.575 119.575 211.831 118.5 216C117.425 211.831 114.169 208.575 110 207.5C114.169 206.425 117.425 203.169 118.5 199Z" fill="#59CA9F"/>
<path d="M240 146C240.886 149.433 243.567 152.114 247 153C243.567 153.886 240.886 156.567 240 160C239.114 156.567 236.433 153.886 233 153C236.433 152.114 239.114 149.433 240 146Z" fill="#B2DEC4"/>
</g>
</g>
<defs>
<clipPath id="clip0_357_12244">
<rect width="360" height="287" fill="white"/>
</clipPath>
</defs>
</svg>
