<?xml version="1.0" encoding="UTF-8"?>
<svg xmlns="http://www.w3.org/2000/svg" xmlns:xlink="http://www.w3.org/1999/xlink" viewBox="0 0 564.58 541">
  <defs>
    <style>
      .cls-1 {
        isolation: isolate;
      }

      .cls-2 {
        fill: url(#linear-gradient);
        mix-blend-mode: overlay;
      }

      .cls-3 {
        fill: #038293;
      }

      .cls-4 {
        fill: #ff0420;
      }
    </style>
    <linearGradient id="linear-gradient" x1="250.35" y1="306.11" x2="174.94" y2="283.4" gradientUnits="userSpaceOnUse">
      <stop offset="0" stop-color="#fff"/>
      <stop offset="1" stop-color="#f7f7f7" stop-opacity="0"/>
    </linearGradient>
  </defs>
  <g class="cls-1">
    <g id="Layer_2" data-name="Layer 2">
      <g id="Layer_1-2" data-name="Layer 1">
        <g>
          <path class="cls-3" d="m469.37,406.79c3.49-1.3,6.89-2.71,10.22-4.24,22.17-10.18,39.42-24.56,51.73-43.11,12.32-18.55,18.48-39.99,18.48-64.3s-6.16-46.64-18.48-65.03c-12.32-18.39-29.56-32.76-51.73-43.11-22.17-10.35-48.04-15.52-77.6-15.52h-211.32c-11.18,0-20.24,9.06-20.24,20.24v349.27h127.11v-123.17h0c23.66,0,45.79,11.7,59.11,31.26l62.58,91.91h145.34l-95.21-134.21Zm-155.67-146.13h107.32v52.37c0,9.04-7.33,16.36-16.36,16.36h-107.11v-52.57c0-8.92,7.23-16.16,16.16-16.16Z"/>
          <path class="cls-4" d="m153.53.04v133.37c0,11.13-9.03,20.16-20.16,20.16H0c19.12-5.02,64.13-19.6,103.07-61.47C135.94,56.76,148.54,19.12,153.53.04Z"/>
          <path class="cls-4" d="m171.14,0v132.74c0,11.48,9.31,20.79,20.79,20.79h132.73c-19.12-5.02-64.13-19.6-103.07-61.47C188.73,56.72,176.13,19.08,171.14,0Z"/>
          <path class="cls-4" d="m132.83,171.69c11.43,0,20.69,9.26,20.69,20.69v247.98c.54-23.9,1.77-171.36-101.12-242.82-13.63-9.47-30.87-18.84-52.41-25.85h132.83Z"/>
          <path class="cls-2" d="m190.95,170.98c-11.04,0-19.99,8.95-19.99,19.99v248.68c-.54-23.9-1.77-171.36,101.12-242.82,13.63-9.47,30.87-18.84,52.41-25.85h-133.53Z"/>
        </g>
      </g>
    </g>
  </g>
</svg>