<svg width="24" height="24" viewBox="0 0 24 24" fill="none" xmlns="http://www.w3.org/2000/svg">
<path d="M12 24C18.6274 24 24 18.6274 24 12C24 5.37258 18.6274 0 12 0C5.37258 0 0 5.37258 0 12C0 18.6274 5.37258 24 12 24Z" fill="#009393"/>
<path fill-rule="evenodd" clip-rule="evenodd" d="M12.0148 12.8579C14.0785 12.8579 15.8032 12.509 16.2247 12.0428C15.8668 11.6474 14.5723 11.336 12.9283 11.2508V12.2357C12.634 12.251 12.328 12.2585 12.0145 12.2585C11.701 12.2585 11.395 12.251 11.1001 12.2357V11.2508C9.45669 11.336 8.16159 11.6474 7.80369 12.0428C8.22579 12.509 9.95079 12.8579 12.0145 12.8579H12.0148ZM15.6814 8.22198V9.57828H12.9283V10.5188C14.8621 10.6193 16.3132 11.0327 16.324 11.5274V12.5588C16.3132 13.0535 14.8621 13.466 12.9283 13.5668V15.875H11.1004V13.5668C9.16659 13.4663 7.71609 13.0535 7.70529 12.5588V11.5274C7.71609 11.0327 9.16659 10.6193 11.1004 10.5188V9.57828H8.34729V8.22198H15.6817H15.6814ZM7.26459 6.06348H16.9294C17.1604 6.06348 17.3731 6.18498 17.4883 6.38238L20.3038 11.2172C20.4496 11.468 20.4064 11.7845 20.1982 11.9876L12.448 19.553C12.1966 19.7981 11.7928 19.7981 11.542 19.553L3.80139 11.9978C3.58869 11.7896 3.54849 11.4641 3.70539 11.2121L6.71529 6.36738C6.83259 6.17898 7.04079 6.06378 7.26489 6.06378L7.26459 6.06348Z" fill="white"/>
</svg>
