<svg width="32" height="32" viewBox="0 0 32 32" fill="none" xmlns="http://www.w3.org/2000/svg">
<circle cx="16" cy="16" r="16" fill="white"/>
<path d="M16 6.40039C15.4845 6.40039 15.0662 6.81864 15.0662 7.33412V8.57022H10.2283C9.71284 8.57022 9.29459 8.98847 9.29459 9.50395V11.2414C9.29459 11.7569 9.71284 12.1751 10.2283 12.1751H15.0662V13.0531C11.1851 13.268 8.35913 14.1131 8.35913 15.1174C8.35913 16.1217 11.1851 16.9668 15.0662 17.1816V23.6053C15.0662 24.1208 15.4845 24.5391 16 24.5391C16.5155 24.5391 16.9338 24.1208 16.9338 23.6053V17.1816C20.8148 16.9668 23.6408 16.1217 23.6408 15.1174C23.6408 14.1131 20.8148 13.268 16.9338 13.0531V12.1751H21.7717C22.2872 12.1751 22.7054 11.7569 22.7054 11.2414V9.50395C22.7054 8.98847 22.2872 8.57022 21.7717 8.57022H16.9338V7.33412C16.9338 6.81864 16.5155 6.40039 16 6.40039ZM16 15.4371C12.4708 15.4371 10.4213 14.8159 10.4213 14.3023C10.4213 13.8463 12.0566 13.2532 15.0662 13.0625V14.9127C15.0662 15.4281 15.4845 15.8464 16 15.8464C16.5155 15.8464 16.9338 15.4281 16.9338 14.9127V13.0625C19.9434 13.2532 21.5787 13.8463 21.5787 14.3023C21.5787 14.8159 19.5292 15.4371 16 15.4371Z" fill="#26A17B"/>
</svg>
