<svg width="16" height="16" viewBox="0 0 16 16" fill="none" xmlns="http://www.w3.org/2000/svg">
<circle cx="8" cy="8" r="8" fill="#26A17B"/>
<path d="M8.00008 3.2002C7.74235 3.2002 7.5332 3.40933 7.5332 3.66706V4.28511H5.11426C4.85653 4.28511 4.6474 4.49424 4.6474 4.75197V5.62071C4.6474 5.87844 4.85653 6.08757 5.11426 6.08757H7.5332V6.52655C5.59267 6.63398 4.17969 7.05651 4.17969 7.55865C4.17969 8.0608 5.59267 8.48333 7.5332 8.59076V11.8026C7.5332 12.0603 7.74235 12.2695 8.00008 12.2695C8.25781 12.2695 8.46694 12.0603 8.46694 11.8026V8.59076C10.4075 8.48333 11.8205 8.0608 11.8205 7.55865C11.8205 7.05651 10.4075 6.63398 8.46694 6.52655V6.08757H10.8859C11.1436 6.08757 11.3527 5.87844 11.3527 5.62071V4.75197C11.3527 4.49424 11.1436 4.28511 10.8859 4.28511H8.46694V3.66706C8.46694 3.40933 8.25781 3.2002 8.00008 3.2002ZM8.00008 7.71848C6.23548 7.71848 5.21075 7.40792 5.21075 7.15111C5.21075 6.92314 6.02842 6.62658 7.5332 6.53124V7.45634C7.5332 7.71407 7.74235 7.92319 8.00008 7.92319C8.25781 7.92319 8.46694 7.71407 8.46694 7.45634V6.53124C9.97171 6.62658 10.7894 6.92314 10.7894 7.15111C10.7894 7.40792 9.76467 7.71848 8.00008 7.71848Z" fill="white"/>
</svg>
